%TF.GenerationSoftware,KiCad,Pcbnew,9.0.0*%
%TF.CreationDate,2025-04-23T21:59:36+02:00*%
%TF.ProjectId,Projecte,50726f6a-6563-4746-952e-6b696361645f,rev?*%
%TF.SameCoordinates,Original*%
%TF.FileFunction,Legend,Top*%
%TF.FilePolarity,Positive*%
%FSLAX46Y46*%
G04 Gerber Fmt 4.6, Leading zero omitted, Abs format (unit mm)*
G04 Created by KiCad (PCBNEW 9.0.0) date 2025-04-23 21:59:36*
%MOMM*%
%LPD*%
G01*
G04 APERTURE LIST*
%ADD10C,0.100000*%
%ADD11C,0.300000*%
%ADD12C,0.200000*%
%ADD13C,0.150000*%
%ADD14C,0.120000*%
%ADD15C,0.127000*%
%ADD16C,0.152400*%
G04 APERTURE END LIST*
D10*
X200780000Y-124245000D02*
X202160000Y-124245000D01*
X202160000Y-126735000D01*
X200780000Y-126735000D01*
X200780000Y-124245000D01*
G36*
X200780000Y-124245000D02*
G01*
X202160000Y-124245000D01*
X202160000Y-126735000D01*
X200780000Y-126735000D01*
X200780000Y-124245000D01*
G37*
X208440000Y-78025000D02*
X211280000Y-78025000D01*
X211280000Y-78615000D01*
X208440000Y-78615000D01*
X208440000Y-78025000D01*
G36*
X208440000Y-78025000D02*
G01*
X211280000Y-78025000D01*
X211280000Y-78615000D01*
X208440000Y-78615000D01*
X208440000Y-78025000D01*
G37*
D11*
X157330000Y-92900000D02*
X161700000Y-92900000D01*
X161700000Y-95680000D01*
X157330000Y-95680000D01*
X157330000Y-92900000D01*
D10*
X217130000Y-78030000D02*
X219970000Y-78030000D01*
X219970000Y-78600000D01*
X217130000Y-78600000D01*
X217130000Y-78030000D01*
G36*
X217130000Y-78030000D02*
G01*
X219970000Y-78030000D01*
X219970000Y-78600000D01*
X217130000Y-78600000D01*
X217130000Y-78030000D01*
G37*
X157185000Y-104045000D02*
X159595000Y-104045000D01*
X159595000Y-105015000D01*
X157185000Y-105015000D01*
X157185000Y-104045000D01*
G36*
X157185000Y-104045000D02*
G01*
X159595000Y-104045000D01*
X159595000Y-105015000D01*
X157185000Y-105015000D01*
X157185000Y-104045000D01*
G37*
X228070000Y-105730000D02*
X230910000Y-105730000D01*
X230910000Y-106300000D01*
X228070000Y-106300000D01*
X228070000Y-105730000D01*
G36*
X228070000Y-105730000D02*
G01*
X230910000Y-105730000D01*
X230910000Y-106300000D01*
X228070000Y-106300000D01*
X228070000Y-105730000D01*
G37*
D11*
X205570000Y-75650000D02*
X212990000Y-75650000D01*
X212990000Y-78120000D01*
X205570000Y-78120000D01*
X205570000Y-75650000D01*
D10*
X228090000Y-86975000D02*
X230930000Y-86975000D01*
X230930000Y-87545000D01*
X228090000Y-87545000D01*
X228090000Y-86975000D01*
G36*
X228090000Y-86975000D02*
G01*
X230930000Y-86975000D01*
X230930000Y-87545000D01*
X228090000Y-87545000D01*
X228090000Y-86975000D01*
G37*
X157850000Y-118860000D02*
X162120000Y-118860000D01*
X162120000Y-119830000D01*
X157850000Y-119830000D01*
X157850000Y-118860000D01*
G36*
X157850000Y-118860000D02*
G01*
X162120000Y-118860000D01*
X162120000Y-119830000D01*
X157850000Y-119830000D01*
X157850000Y-118860000D01*
G37*
D11*
X196960000Y-75660000D02*
X204380000Y-75660000D01*
X204380000Y-78130000D01*
X196960000Y-78130000D01*
X196960000Y-75660000D01*
X225780000Y-106350000D02*
X230790000Y-106350000D01*
X230790000Y-108270000D01*
X225780000Y-108270000D01*
X225780000Y-106350000D01*
X222750000Y-84465000D02*
X230830000Y-84465000D01*
X230830000Y-86935000D01*
X222750000Y-86935000D01*
X222750000Y-84465000D01*
X157275000Y-105000000D02*
X163755000Y-105000000D01*
X163755000Y-107780000D01*
X157275000Y-107780000D01*
X157275000Y-105000000D01*
D10*
X162625000Y-127330000D02*
X172595000Y-127330000D01*
X172595000Y-128980000D01*
X162625000Y-128980000D01*
X162625000Y-127330000D01*
D11*
X206515000Y-84940000D02*
X217865000Y-84940000D01*
X217865000Y-87110000D01*
X206515000Y-87110000D01*
X206515000Y-84940000D01*
D10*
X157225000Y-91965000D02*
X160065000Y-91965000D01*
X160065000Y-92935000D01*
X157225000Y-92935000D01*
X157225000Y-91965000D01*
G36*
X157225000Y-91965000D02*
G01*
X160065000Y-91965000D01*
X160065000Y-92935000D01*
X157225000Y-92935000D01*
X157225000Y-91965000D01*
G37*
X199250000Y-78045000D02*
X202090000Y-78045000D01*
X202090000Y-78635000D01*
X199250000Y-78635000D01*
X199250000Y-78045000D01*
G36*
X199250000Y-78045000D02*
G01*
X202090000Y-78045000D01*
X202090000Y-78635000D01*
X199250000Y-78635000D01*
X199250000Y-78045000D01*
G37*
D11*
X214300000Y-75650000D02*
X224600000Y-75650000D01*
X224600000Y-78120000D01*
X214300000Y-78120000D01*
X214300000Y-75650000D01*
X202160000Y-123930000D02*
X206490000Y-123930000D01*
X206490000Y-126640000D01*
X202160000Y-126640000D01*
X202160000Y-123930000D01*
X157935000Y-119850000D02*
X170605000Y-119850000D01*
X170605000Y-122630000D01*
X157935000Y-122630000D01*
X157935000Y-119850000D01*
D10*
X162625000Y-124530000D02*
X178015000Y-124530000D01*
X178015000Y-127330000D01*
X162625000Y-127330000D01*
X162625000Y-124530000D01*
G36*
X163092364Y-124899963D02*
G01*
X163153379Y-124908672D01*
X163193447Y-124920669D01*
X163229600Y-124940089D01*
X163260004Y-124965900D01*
X163285282Y-124998681D01*
X163303568Y-125035970D01*
X163314918Y-125078670D01*
X163318890Y-125127934D01*
X163313677Y-125182058D01*
X163298856Y-125227751D01*
X163274877Y-125266713D01*
X163242586Y-125299399D01*
X163203194Y-125324995D01*
X163155491Y-125343649D01*
X163102197Y-125352224D01*
X162994291Y-125356106D01*
X162994291Y-125700000D01*
X162841249Y-125700000D01*
X162841249Y-125209169D01*
X162994291Y-125209169D01*
X163042944Y-125209169D01*
X163095915Y-125206616D01*
X163122665Y-125200914D01*
X163142783Y-125189902D01*
X163157934Y-125173656D01*
X163167437Y-125153132D01*
X163170781Y-125127690D01*
X163166529Y-125098536D01*
X163154606Y-125076372D01*
X163134731Y-125059448D01*
X163116146Y-125051642D01*
X163085373Y-125045825D01*
X163037473Y-125043475D01*
X162994291Y-125043475D01*
X162994291Y-125209169D01*
X162841249Y-125209169D01*
X162841249Y-124896538D01*
X163003572Y-124896538D01*
X163092364Y-124899963D01*
G37*
G36*
X164207494Y-125038297D02*
G01*
X164100369Y-125139706D01*
X164053536Y-125096694D01*
X164006003Y-125064653D01*
X163957381Y-125042387D01*
X163907106Y-125029157D01*
X163854466Y-125024717D01*
X163798205Y-125029785D01*
X163747781Y-125044519D01*
X163702038Y-125068789D01*
X163660146Y-125103217D01*
X163625507Y-125144878D01*
X163601108Y-125190394D01*
X163586300Y-125240597D01*
X163581207Y-125296657D01*
X163585262Y-125349104D01*
X163597013Y-125396199D01*
X163616182Y-125438855D01*
X163642678Y-125477263D01*
X163675443Y-125509624D01*
X163715101Y-125536406D01*
X163758912Y-125555944D01*
X163806024Y-125567780D01*
X163857201Y-125571821D01*
X163901112Y-125568972D01*
X163941565Y-125560656D01*
X163979078Y-125547055D01*
X164014170Y-125527882D01*
X164054311Y-125498569D01*
X164100369Y-125456831D01*
X164204221Y-125564884D01*
X164142142Y-125619826D01*
X164086332Y-125659054D01*
X164035889Y-125685198D01*
X163982091Y-125703448D01*
X163922117Y-125714807D01*
X163855003Y-125718757D01*
X163780353Y-125713690D01*
X163713389Y-125699058D01*
X163652954Y-125675363D01*
X163598100Y-125642629D01*
X163548136Y-125600397D01*
X163505430Y-125550742D01*
X163472405Y-125496362D01*
X163448548Y-125436585D01*
X163433839Y-125370480D01*
X163428750Y-125296901D01*
X163432312Y-125237357D01*
X163442700Y-125182453D01*
X163459644Y-125131554D01*
X163483119Y-125084117D01*
X163512931Y-125040237D01*
X163548523Y-125000820D01*
X163590297Y-124965578D01*
X163638848Y-124934396D01*
X163690664Y-124909570D01*
X163744049Y-124891958D01*
X163799407Y-124881356D01*
X163857201Y-124877780D01*
X163922618Y-124882411D01*
X163986260Y-124896263D01*
X164048736Y-124919546D01*
X164107327Y-124951320D01*
X164160077Y-124990763D01*
X164207494Y-125038297D01*
G37*
G36*
X164570389Y-124900788D02*
G01*
X164628569Y-124910753D01*
X164674260Y-124927625D01*
X164712120Y-124951321D01*
X164743314Y-124981974D01*
X164766932Y-125018574D01*
X164781101Y-125059072D01*
X164785959Y-125104633D01*
X164781008Y-125148965D01*
X164766566Y-125188164D01*
X164742134Y-125223312D01*
X164703454Y-125258506D01*
X164749859Y-125284631D01*
X164784938Y-125313264D01*
X164810530Y-125344382D01*
X164829079Y-125380073D01*
X164840473Y-125420321D01*
X164844431Y-125466161D01*
X164840485Y-125510221D01*
X164828856Y-125551039D01*
X164809455Y-125589357D01*
X164783528Y-125623703D01*
X164753587Y-125651202D01*
X164719281Y-125672498D01*
X164681387Y-125686802D01*
X164631538Y-125696419D01*
X164566824Y-125700000D01*
X164341681Y-125700000D01*
X164341681Y-125553063D01*
X164494675Y-125553063D01*
X164532923Y-125553063D01*
X164596908Y-125549554D01*
X164637244Y-125540926D01*
X164661053Y-125529371D01*
X164679273Y-125511364D01*
X164690244Y-125488842D01*
X164694124Y-125460348D01*
X164689672Y-125428133D01*
X164676879Y-125401656D01*
X164655338Y-125379504D01*
X164627633Y-125364456D01*
X164586252Y-125353940D01*
X164526378Y-125349853D01*
X164494675Y-125349853D01*
X164494675Y-125553063D01*
X164341681Y-125553063D01*
X164341681Y-125212295D01*
X164494675Y-125212295D01*
X164527990Y-125212295D01*
X164564506Y-125209244D01*
X164591334Y-125201119D01*
X164610788Y-125188897D01*
X164625657Y-125171658D01*
X164634675Y-125150780D01*
X164637850Y-125125150D01*
X164634849Y-125101289D01*
X164626302Y-125081765D01*
X164612156Y-125065554D01*
X164593704Y-125054010D01*
X164568365Y-125046348D01*
X164533998Y-125043475D01*
X164494675Y-125043475D01*
X164494675Y-125212295D01*
X164341681Y-125212295D01*
X164341681Y-124896538D01*
X164467906Y-124896538D01*
X164570389Y-124900788D01*
G37*
G36*
X165381374Y-124896538D02*
G01*
X165531144Y-124896538D01*
X165716915Y-125456929D01*
X165905471Y-124896538D01*
X166053042Y-124896538D01*
X166188548Y-125700000D01*
X166040976Y-125700000D01*
X165954661Y-125192561D01*
X165783593Y-125700000D01*
X165648625Y-125700000D01*
X165479755Y-125192561D01*
X165391779Y-125700000D01*
X165242595Y-125700000D01*
X165381374Y-124896538D01*
G37*
G36*
X167020586Y-125700000D02*
G01*
X166861535Y-125700000D01*
X166798715Y-125534305D01*
X166470795Y-125534305D01*
X166405240Y-125700000D01*
X166246189Y-125700000D01*
X166366771Y-125387369D01*
X166527655Y-125387369D01*
X166741318Y-125387369D01*
X166634780Y-125110397D01*
X166527655Y-125387369D01*
X166366771Y-125387369D01*
X166556085Y-124896538D01*
X166711277Y-124896538D01*
X167020586Y-125700000D01*
G37*
G36*
X167139727Y-124896538D02*
G01*
X167292721Y-124896538D01*
X167292721Y-125553063D01*
X167515715Y-125553063D01*
X167515715Y-125700000D01*
X167139727Y-125700000D01*
X167139727Y-124896538D01*
G37*
G36*
X167632658Y-124896538D02*
G01*
X168071465Y-124896538D01*
X168071465Y-125043475D01*
X167784577Y-125043475D01*
X167784577Y-125190411D01*
X168071465Y-125190411D01*
X168071465Y-125337348D01*
X167784577Y-125337348D01*
X167784577Y-125553063D01*
X168071465Y-125553063D01*
X168071465Y-125700000D01*
X167632658Y-125700000D01*
X167632658Y-124896538D01*
G37*
G36*
X168135115Y-124896538D02*
G01*
X168579441Y-124896538D01*
X168579441Y-125043475D01*
X168432993Y-125043475D01*
X168432993Y-125700000D01*
X168277752Y-125700000D01*
X168277752Y-125043475D01*
X168135115Y-125043475D01*
X168135115Y-124896538D01*
G37*
G36*
X168684661Y-124896538D02*
G01*
X169123468Y-124896538D01*
X169123468Y-125043475D01*
X168836580Y-125043475D01*
X168836580Y-125190411D01*
X169123468Y-125190411D01*
X169123468Y-125337348D01*
X168836580Y-125337348D01*
X168836580Y-125553063D01*
X169123468Y-125553063D01*
X169123468Y-125700000D01*
X168684661Y-125700000D01*
X168684661Y-124896538D01*
G37*
G36*
X169529106Y-124899926D02*
G01*
X169589916Y-124908476D01*
X169628953Y-124920132D01*
X169664022Y-124939171D01*
X169694192Y-124965030D01*
X169719958Y-124998436D01*
X169738762Y-125036297D01*
X169750359Y-125079120D01*
X169754396Y-125127983D01*
X169749868Y-125179174D01*
X169737025Y-125222491D01*
X169716392Y-125259434D01*
X169687952Y-125290803D01*
X169650387Y-125317485D01*
X169601939Y-125339399D01*
X169792107Y-125700000D01*
X169624898Y-125700000D01*
X169443963Y-125356106D01*
X169429797Y-125356106D01*
X169429797Y-125700000D01*
X169276755Y-125700000D01*
X169276755Y-125209169D01*
X169429797Y-125209169D01*
X169477864Y-125209169D01*
X169527003Y-125206380D01*
X169558977Y-125199422D01*
X169578688Y-125189923D01*
X169593504Y-125175013D01*
X169602844Y-125154378D01*
X169606287Y-125126029D01*
X169602779Y-125101028D01*
X169592609Y-125080062D01*
X169576710Y-125063331D01*
X169556022Y-125052023D01*
X169528284Y-125046140D01*
X169471856Y-125043475D01*
X169429797Y-125043475D01*
X169429797Y-125209169D01*
X169276755Y-125209169D01*
X169276755Y-124896538D01*
X169439078Y-124896538D01*
X169529106Y-124899926D01*
G37*
G36*
X170362537Y-124882787D02*
G01*
X170424480Y-124897477D01*
X170482408Y-124921724D01*
X170537039Y-124955895D01*
X170588876Y-125000830D01*
X170633390Y-125052649D01*
X170667428Y-125107889D01*
X170691720Y-125167099D01*
X170706517Y-125231053D01*
X170711584Y-125300711D01*
X170706577Y-125369771D01*
X170691963Y-125433107D01*
X170667987Y-125491675D01*
X170634415Y-125546246D01*
X170590537Y-125597369D01*
X170539480Y-125641490D01*
X170485210Y-125675171D01*
X170427196Y-125699168D01*
X170364691Y-125713765D01*
X170296762Y-125718757D01*
X170225344Y-125713545D01*
X170160548Y-125698395D01*
X170101293Y-125673651D01*
X170046710Y-125639121D01*
X169996196Y-125594096D01*
X169952604Y-125541647D01*
X169919364Y-125486403D01*
X169895732Y-125427866D01*
X169881402Y-125365341D01*
X169876659Y-125299930D01*
X170030635Y-125299930D01*
X170034715Y-125352680D01*
X170046452Y-125399254D01*
X170065461Y-125440694D01*
X170091864Y-125477805D01*
X170126280Y-125511102D01*
X170165069Y-125537821D01*
X170206024Y-125556632D01*
X170249688Y-125567967D01*
X170296762Y-125571821D01*
X170349551Y-125566815D01*
X170397362Y-125552171D01*
X170441275Y-125527850D01*
X170482044Y-125493028D01*
X170515504Y-125451353D01*
X170539171Y-125405699D01*
X170553578Y-125355232D01*
X170558541Y-125298806D01*
X170553566Y-125242707D01*
X170539090Y-125192289D01*
X170515248Y-125146436D01*
X170481458Y-125104340D01*
X170440395Y-125069183D01*
X170396040Y-125044604D01*
X170347620Y-125029788D01*
X170294026Y-125024717D01*
X170239747Y-125029720D01*
X170191124Y-125044274D01*
X170147009Y-125068286D01*
X170106594Y-125102435D01*
X170073630Y-125143489D01*
X170050108Y-125189396D01*
X170035654Y-125241109D01*
X170030635Y-125299930D01*
X169876659Y-125299930D01*
X169876517Y-125297976D01*
X169880071Y-125241162D01*
X169890559Y-125187353D01*
X169907902Y-125136044D01*
X169932254Y-125086803D01*
X169962799Y-125041056D01*
X169998330Y-125000589D01*
X170039101Y-124965025D01*
X170085540Y-124934152D01*
X170135473Y-124909399D01*
X170186860Y-124891871D01*
X170240109Y-124881332D01*
X170295687Y-124877780D01*
X170362537Y-124882787D01*
G37*
G36*
X163041821Y-126240538D02*
G01*
X163195401Y-126240538D01*
X163195401Y-126772695D01*
X163192454Y-126858642D01*
X163185085Y-126915513D01*
X163175177Y-126950992D01*
X163158735Y-126982895D01*
X163136669Y-127009887D01*
X163108499Y-127032520D01*
X163076295Y-127048999D01*
X163039477Y-127059194D01*
X162997027Y-127062757D01*
X162945811Y-127058220D01*
X162898317Y-127044845D01*
X162853690Y-127022534D01*
X162811296Y-126990591D01*
X162770760Y-126947768D01*
X162881158Y-126845772D01*
X162917593Y-126882790D01*
X162943440Y-126901606D01*
X162969347Y-126912444D01*
X162993168Y-126915821D01*
X163014702Y-126910594D01*
X163029804Y-126895060D01*
X163037920Y-126867931D01*
X163041821Y-126803616D01*
X163041821Y-126240538D01*
G37*
G36*
X163825426Y-126226787D02*
G01*
X163887369Y-126241477D01*
X163945297Y-126265724D01*
X163999928Y-126299895D01*
X164051765Y-126344830D01*
X164096279Y-126396649D01*
X164130317Y-126451889D01*
X164154609Y-126511099D01*
X164169406Y-126575053D01*
X164174473Y-126644711D01*
X164169466Y-126713771D01*
X164154852Y-126777107D01*
X164130877Y-126835675D01*
X164097304Y-126890246D01*
X164053426Y-126941369D01*
X164002369Y-126985490D01*
X163948099Y-127019171D01*
X163890085Y-127043168D01*
X163827580Y-127057765D01*
X163759651Y-127062757D01*
X163688233Y-127057545D01*
X163623437Y-127042395D01*
X163564182Y-127017651D01*
X163509599Y-126983121D01*
X163459085Y-126938096D01*
X163415493Y-126885647D01*
X163382253Y-126830403D01*
X163358621Y-126771866D01*
X163344291Y-126709341D01*
X163339548Y-126643930D01*
X163493524Y-126643930D01*
X163497604Y-126696680D01*
X163509341Y-126743254D01*
X163528350Y-126784694D01*
X163554753Y-126821805D01*
X163589169Y-126855102D01*
X163627958Y-126881821D01*
X163668913Y-126900632D01*
X163712577Y-126911967D01*
X163759651Y-126915821D01*
X163812440Y-126910815D01*
X163860251Y-126896171D01*
X163904164Y-126871850D01*
X163944933Y-126837028D01*
X163978393Y-126795353D01*
X164002060Y-126749699D01*
X164016467Y-126699232D01*
X164021430Y-126642806D01*
X164016455Y-126586707D01*
X164001979Y-126536289D01*
X163978137Y-126490436D01*
X163944347Y-126448340D01*
X163903284Y-126413183D01*
X163858929Y-126388604D01*
X163810509Y-126373788D01*
X163756915Y-126368717D01*
X163702636Y-126373720D01*
X163654013Y-126388274D01*
X163609898Y-126412286D01*
X163569483Y-126446435D01*
X163536519Y-126487489D01*
X163512997Y-126533396D01*
X163498543Y-126585109D01*
X163493524Y-126643930D01*
X163339548Y-126643930D01*
X163339406Y-126641976D01*
X163342960Y-126585162D01*
X163353448Y-126531353D01*
X163370791Y-126480044D01*
X163395143Y-126430803D01*
X163425688Y-126385056D01*
X163461219Y-126344589D01*
X163501990Y-126309025D01*
X163548429Y-126278152D01*
X163598362Y-126253399D01*
X163649749Y-126235871D01*
X163702998Y-126225332D01*
X163758576Y-126221780D01*
X163825426Y-126226787D01*
G37*
G36*
X164581723Y-126243926D02*
G01*
X164642533Y-126252476D01*
X164681570Y-126264132D01*
X164716639Y-126283171D01*
X164746809Y-126309030D01*
X164772575Y-126342436D01*
X164791379Y-126380297D01*
X164802976Y-126423120D01*
X164807013Y-126471983D01*
X164802485Y-126523174D01*
X164789642Y-126566491D01*
X164769009Y-126603434D01*
X164740569Y-126634803D01*
X164703004Y-126661485D01*
X164654556Y-126683399D01*
X164844724Y-127044000D01*
X164677515Y-127044000D01*
X164496580Y-126700106D01*
X164482414Y-126700106D01*
X164482414Y-127044000D01*
X164329371Y-127044000D01*
X164329371Y-126553169D01*
X164482414Y-126553169D01*
X164530481Y-126553169D01*
X164579620Y-126550380D01*
X164611594Y-126543422D01*
X164631304Y-126533923D01*
X164646121Y-126519013D01*
X164655461Y-126498378D01*
X164658904Y-126470029D01*
X164655396Y-126445028D01*
X164645226Y-126424062D01*
X164629327Y-126407331D01*
X164608639Y-126396023D01*
X164580901Y-126390140D01*
X164524473Y-126387475D01*
X164482414Y-126387475D01*
X164482414Y-126553169D01*
X164329371Y-126553169D01*
X164329371Y-126240538D01*
X164491695Y-126240538D01*
X164581723Y-126243926D01*
G37*
G36*
X165241995Y-126243971D02*
G01*
X165313759Y-126253220D01*
X165369144Y-126266909D01*
X165411172Y-126283965D01*
X165450950Y-126308371D01*
X165487481Y-126339563D01*
X165521017Y-126378194D01*
X165551612Y-126425186D01*
X165575261Y-126474835D01*
X165592486Y-126528979D01*
X165603134Y-126588268D01*
X165606810Y-126653455D01*
X165603254Y-126714760D01*
X165592875Y-126771464D01*
X165575938Y-126824181D01*
X165552218Y-126874045D01*
X165523791Y-126916838D01*
X165490648Y-126953337D01*
X165452576Y-126984629D01*
X165413429Y-127008077D01*
X165372875Y-127024362D01*
X165329147Y-127033970D01*
X165259010Y-127041137D01*
X165153203Y-127044000D01*
X164969043Y-127044000D01*
X164969043Y-126897063D01*
X165121500Y-126897063D01*
X165192526Y-126897063D01*
X165262986Y-126893676D01*
X165311946Y-126885006D01*
X165344689Y-126872883D01*
X165373478Y-126853788D01*
X165399197Y-126827109D01*
X165422016Y-126791550D01*
X165438173Y-126752305D01*
X165448449Y-126705847D01*
X165452107Y-126650769D01*
X165447104Y-126586784D01*
X165433053Y-126533396D01*
X165410837Y-126488692D01*
X165380544Y-126451222D01*
X165346734Y-126425272D01*
X165302699Y-126405400D01*
X165245961Y-126392298D01*
X165173426Y-126387475D01*
X165121500Y-126387475D01*
X165121500Y-126897063D01*
X164969043Y-126897063D01*
X164969043Y-126240538D01*
X165150467Y-126240538D01*
X165241995Y-126243971D01*
G37*
G36*
X165741486Y-126240538D02*
G01*
X165893405Y-126240538D01*
X165893405Y-127044000D01*
X165741486Y-127044000D01*
X165741486Y-126240538D01*
G37*
G36*
X167116524Y-126382297D02*
G01*
X167009399Y-126483706D01*
X166962566Y-126440694D01*
X166915033Y-126408653D01*
X166866411Y-126386387D01*
X166816136Y-126373157D01*
X166763496Y-126368717D01*
X166707235Y-126373785D01*
X166656811Y-126388519D01*
X166611068Y-126412789D01*
X166569176Y-126447217D01*
X166534537Y-126488878D01*
X166510138Y-126534394D01*
X166495330Y-126584597D01*
X166490237Y-126640657D01*
X166494292Y-126693104D01*
X166506043Y-126740199D01*
X166525212Y-126782855D01*
X166551708Y-126821263D01*
X166584473Y-126853624D01*
X166624131Y-126880406D01*
X166667942Y-126899944D01*
X166715054Y-126911780D01*
X166766231Y-126915821D01*
X166810142Y-126912972D01*
X166850595Y-126904656D01*
X166888108Y-126891055D01*
X166923200Y-126871882D01*
X166963341Y-126842569D01*
X167009399Y-126800831D01*
X167113251Y-126908884D01*
X167051172Y-126963826D01*
X166995362Y-127003054D01*
X166944919Y-127029198D01*
X166891121Y-127047448D01*
X166831147Y-127058807D01*
X166764033Y-127062757D01*
X166689383Y-127057690D01*
X166622419Y-127043058D01*
X166561984Y-127019363D01*
X166507130Y-126986629D01*
X166457166Y-126944397D01*
X166414460Y-126894742D01*
X166381435Y-126840362D01*
X166357578Y-126780585D01*
X166342869Y-126714480D01*
X166337780Y-126640901D01*
X166341342Y-126581357D01*
X166351730Y-126526453D01*
X166368674Y-126475554D01*
X166392149Y-126428117D01*
X166421961Y-126384237D01*
X166457553Y-126344820D01*
X166499327Y-126309578D01*
X166547878Y-126278396D01*
X166599694Y-126253570D01*
X166653079Y-126235958D01*
X166708437Y-126225356D01*
X166766231Y-126221780D01*
X166831648Y-126226411D01*
X166895290Y-126240263D01*
X166957766Y-126263546D01*
X167016357Y-126295320D01*
X167069107Y-126334763D01*
X167116524Y-126382297D01*
G37*
G36*
X167697359Y-126226787D02*
G01*
X167759302Y-126241477D01*
X167817230Y-126265724D01*
X167871861Y-126299895D01*
X167923698Y-126344830D01*
X167968212Y-126396649D01*
X168002250Y-126451889D01*
X168026542Y-126511099D01*
X168041339Y-126575053D01*
X168046406Y-126644711D01*
X168041399Y-126713771D01*
X168026785Y-126777107D01*
X168002810Y-126835675D01*
X167969237Y-126890246D01*
X167925359Y-126941369D01*
X167874302Y-126985490D01*
X167820032Y-127019171D01*
X167762018Y-127043168D01*
X167699513Y-127057765D01*
X167631584Y-127062757D01*
X167560166Y-127057545D01*
X167495370Y-127042395D01*
X167436115Y-127017651D01*
X167381532Y-126983121D01*
X167331018Y-126938096D01*
X167287426Y-126885647D01*
X167254186Y-126830403D01*
X167230554Y-126771866D01*
X167216224Y-126709341D01*
X167211481Y-126643930D01*
X167365457Y-126643930D01*
X167369537Y-126696680D01*
X167381274Y-126743254D01*
X167400283Y-126784694D01*
X167426686Y-126821805D01*
X167461102Y-126855102D01*
X167499891Y-126881821D01*
X167540846Y-126900632D01*
X167584510Y-126911967D01*
X167631584Y-126915821D01*
X167684373Y-126910815D01*
X167732184Y-126896171D01*
X167776097Y-126871850D01*
X167816866Y-126837028D01*
X167850326Y-126795353D01*
X167873993Y-126749699D01*
X167888400Y-126699232D01*
X167893363Y-126642806D01*
X167888388Y-126586707D01*
X167873912Y-126536289D01*
X167850070Y-126490436D01*
X167816280Y-126448340D01*
X167775217Y-126413183D01*
X167730862Y-126388604D01*
X167682442Y-126373788D01*
X167628848Y-126368717D01*
X167574569Y-126373720D01*
X167525946Y-126388274D01*
X167481831Y-126412286D01*
X167441416Y-126446435D01*
X167408452Y-126487489D01*
X167384930Y-126533396D01*
X167370476Y-126585109D01*
X167365457Y-126643930D01*
X167211481Y-126643930D01*
X167211339Y-126641976D01*
X167214893Y-126585162D01*
X167225381Y-126531353D01*
X167242724Y-126480044D01*
X167267076Y-126430803D01*
X167297621Y-126385056D01*
X167333152Y-126344589D01*
X167373923Y-126309025D01*
X167420362Y-126278152D01*
X167470295Y-126253399D01*
X167521682Y-126235871D01*
X167574931Y-126225332D01*
X167630509Y-126221780D01*
X167697359Y-126226787D01*
G37*
G36*
X168268520Y-126240538D02*
G01*
X168418290Y-126240538D01*
X168604061Y-126800929D01*
X168792616Y-126240538D01*
X168940188Y-126240538D01*
X169075694Y-127044000D01*
X168928122Y-127044000D01*
X168841807Y-126536561D01*
X168670739Y-127044000D01*
X168535771Y-127044000D01*
X168366901Y-126536561D01*
X168278925Y-127044000D01*
X168129741Y-127044000D01*
X168268520Y-126240538D01*
G37*
G36*
X169907732Y-127044000D02*
G01*
X169748681Y-127044000D01*
X169685861Y-126878305D01*
X169357941Y-126878305D01*
X169292386Y-127044000D01*
X169133335Y-127044000D01*
X169253917Y-126731369D01*
X169414801Y-126731369D01*
X169628464Y-126731369D01*
X169521926Y-126454397D01*
X169414801Y-126731369D01*
X169253917Y-126731369D01*
X169443230Y-126240538D01*
X169598422Y-126240538D01*
X169907732Y-127044000D01*
G37*
G36*
X170448192Y-126352304D02*
G01*
X170335059Y-126453127D01*
X170301526Y-126412465D01*
X170270648Y-126386934D01*
X170241722Y-126373087D01*
X170213719Y-126368717D01*
X170185818Y-126372915D01*
X170164528Y-126384739D01*
X170149936Y-126402302D01*
X170145429Y-126420887D01*
X170148751Y-126440190D01*
X170159106Y-126458940D01*
X170187624Y-126488432D01*
X170271116Y-126561669D01*
X170377166Y-126653504D01*
X170418315Y-126701237D01*
X170443014Y-126742946D01*
X170457469Y-126787128D01*
X170462407Y-126836100D01*
X170457964Y-126884044D01*
X170445106Y-126926432D01*
X170423995Y-126964368D01*
X170394068Y-126998619D01*
X170358175Y-127026159D01*
X170317219Y-127046059D01*
X170270239Y-127058425D01*
X170215966Y-127062757D01*
X170160037Y-127057843D01*
X170110621Y-127043651D01*
X170066489Y-127020454D01*
X170027842Y-126988651D01*
X169991495Y-126945095D01*
X169957459Y-126887538D01*
X170085882Y-126809526D01*
X170119627Y-126860638D01*
X170152643Y-126892675D01*
X170185421Y-126910191D01*
X170219190Y-126915821D01*
X170244597Y-126913169D01*
X170266387Y-126905555D01*
X170285331Y-126893057D01*
X170300626Y-126876464D01*
X170309253Y-126859117D01*
X170312100Y-126840399D01*
X170307324Y-126814013D01*
X170291877Y-126786128D01*
X170264627Y-126756649D01*
X170202826Y-126703085D01*
X170115887Y-126628657D01*
X170062588Y-126575639D01*
X170033419Y-126538954D01*
X170011588Y-126499129D01*
X169999185Y-126460933D01*
X169995170Y-126423623D01*
X169999159Y-126383549D01*
X170010886Y-126346971D01*
X170030501Y-126313053D01*
X170058820Y-126281229D01*
X170092366Y-126255322D01*
X170129251Y-126236911D01*
X170170148Y-126225663D01*
X170215966Y-126221780D01*
X170255350Y-126224895D01*
X170293349Y-126234201D01*
X170330418Y-126249868D01*
X170364567Y-126271411D01*
X170403539Y-126304603D01*
X170448192Y-126352304D01*
G37*
G36*
X170963838Y-126203023D02*
G01*
X170988875Y-126206251D01*
X171011120Y-126215764D01*
X171031346Y-126231990D01*
X171047006Y-126252675D01*
X171056301Y-126275757D01*
X171059483Y-126302039D01*
X171056333Y-126328005D01*
X171047121Y-126350847D01*
X171031591Y-126371355D01*
X171011581Y-126387394D01*
X170989608Y-126396792D01*
X170964912Y-126399980D01*
X170939536Y-126396713D01*
X170917121Y-126387111D01*
X170896866Y-126370769D01*
X170881227Y-126349890D01*
X170871920Y-126326519D01*
X170868729Y-126299840D01*
X170871866Y-126274268D01*
X170881051Y-126251714D01*
X170896573Y-126231404D01*
X170916607Y-126215539D01*
X170938769Y-126206202D01*
X170963838Y-126203023D01*
G37*
G36*
X170888953Y-126450001D02*
G01*
X171038722Y-126450001D01*
X171038722Y-127044000D01*
X170888953Y-127044000D01*
X170888953Y-126450001D01*
G37*
G36*
X171503028Y-126240538D02*
G01*
X171941835Y-126240538D01*
X171941835Y-126387475D01*
X171654947Y-126387475D01*
X171654947Y-126534411D01*
X171941835Y-126534411D01*
X171941835Y-126681348D01*
X171654947Y-126681348D01*
X171654947Y-126897063D01*
X171941835Y-126897063D01*
X171941835Y-127044000D01*
X171503028Y-127044000D01*
X171503028Y-126240538D01*
G37*
G36*
X172084766Y-126240538D02*
G01*
X172237759Y-126240538D01*
X172237759Y-126897063D01*
X172460753Y-126897063D01*
X172460753Y-127044000D01*
X172084766Y-127044000D01*
X172084766Y-126240538D01*
G37*
G36*
X172577697Y-126240538D02*
G01*
X173016503Y-126240538D01*
X173016503Y-126387475D01*
X172729616Y-126387475D01*
X172729616Y-126534411D01*
X173016503Y-126534411D01*
X173016503Y-126681348D01*
X172729616Y-126681348D01*
X172729616Y-126897063D01*
X173016503Y-126897063D01*
X173016503Y-127044000D01*
X172577697Y-127044000D01*
X172577697Y-126240538D01*
G37*
G36*
X173159972Y-126240538D02*
G01*
X173306420Y-126240538D01*
X173651242Y-126769275D01*
X173651242Y-126240538D01*
X173804284Y-126240538D01*
X173804284Y-127044000D01*
X173657250Y-127044000D01*
X173312965Y-126516923D01*
X173312965Y-127044000D01*
X173159972Y-127044000D01*
X173159972Y-126240538D01*
G37*
G36*
X174697236Y-127044000D02*
G01*
X174538185Y-127044000D01*
X174475366Y-126878305D01*
X174147445Y-126878305D01*
X174081891Y-127044000D01*
X173922840Y-127044000D01*
X174043422Y-126731369D01*
X174204305Y-126731369D01*
X174417969Y-126731369D01*
X174311430Y-126454397D01*
X174204305Y-126731369D01*
X174043422Y-126731369D01*
X174232735Y-126240538D01*
X174387927Y-126240538D01*
X174697236Y-127044000D01*
G37*
G36*
X175550327Y-126352304D02*
G01*
X175437194Y-126453127D01*
X175403662Y-126412465D01*
X175372783Y-126386934D01*
X175343858Y-126373087D01*
X175315854Y-126368717D01*
X175287954Y-126372915D01*
X175266664Y-126384739D01*
X175252072Y-126402302D01*
X175247564Y-126420887D01*
X175250886Y-126440190D01*
X175261242Y-126458940D01*
X175289759Y-126488432D01*
X175373251Y-126561669D01*
X175479302Y-126653504D01*
X175520451Y-126701237D01*
X175545150Y-126742946D01*
X175559604Y-126787128D01*
X175564542Y-126836100D01*
X175560099Y-126884044D01*
X175547242Y-126926432D01*
X175526131Y-126964368D01*
X175496203Y-126998619D01*
X175460310Y-127026159D01*
X175419354Y-127046059D01*
X175372374Y-127058425D01*
X175318101Y-127062757D01*
X175262172Y-127057843D01*
X175212757Y-127043651D01*
X175168625Y-127020454D01*
X175129978Y-126988651D01*
X175093631Y-126945095D01*
X175059595Y-126887538D01*
X175188018Y-126809526D01*
X175221762Y-126860638D01*
X175254779Y-126892675D01*
X175287557Y-126910191D01*
X175321325Y-126915821D01*
X175346733Y-126913169D01*
X175368523Y-126905555D01*
X175387466Y-126893057D01*
X175402761Y-126876464D01*
X175411389Y-126859117D01*
X175414235Y-126840399D01*
X175409459Y-126814013D01*
X175394012Y-126786128D01*
X175366763Y-126756649D01*
X175304961Y-126703085D01*
X175218022Y-126628657D01*
X175164723Y-126575639D01*
X175135554Y-126538954D01*
X175113724Y-126499129D01*
X175101320Y-126460933D01*
X175097306Y-126423623D01*
X175101295Y-126383549D01*
X175113021Y-126346971D01*
X175132636Y-126313053D01*
X175160956Y-126281229D01*
X175194502Y-126255322D01*
X175231387Y-126236911D01*
X175272283Y-126225663D01*
X175318101Y-126221780D01*
X175357485Y-126224895D01*
X175395484Y-126234201D01*
X175432554Y-126249868D01*
X175466703Y-126271411D01*
X175505674Y-126304603D01*
X175550327Y-126352304D01*
G37*
G36*
X176420614Y-127044000D02*
G01*
X176261563Y-127044000D01*
X176198743Y-126878305D01*
X175870823Y-126878305D01*
X175805268Y-127044000D01*
X175646217Y-127044000D01*
X175766799Y-126731369D01*
X175927683Y-126731369D01*
X176141346Y-126731369D01*
X176034808Y-126454397D01*
X175927683Y-126731369D01*
X175766799Y-126731369D01*
X175956113Y-126240538D01*
X176111304Y-126240538D01*
X176420614Y-127044000D01*
G37*
G36*
X176540293Y-126240538D02*
G01*
X176686741Y-126240538D01*
X177031563Y-126769275D01*
X177031563Y-126240538D01*
X177184605Y-126240538D01*
X177184605Y-127044000D01*
X177037571Y-127044000D01*
X176693286Y-126516923D01*
X176693286Y-127044000D01*
X176540293Y-127044000D01*
X176540293Y-126240538D01*
G37*
G36*
X177789546Y-126352304D02*
G01*
X177676413Y-126453127D01*
X177642880Y-126412465D01*
X177612002Y-126386934D01*
X177583076Y-126373087D01*
X177555073Y-126368717D01*
X177527172Y-126372915D01*
X177505882Y-126384739D01*
X177491290Y-126402302D01*
X177486782Y-126420887D01*
X177490104Y-126440190D01*
X177500460Y-126458940D01*
X177528977Y-126488432D01*
X177612470Y-126561669D01*
X177718520Y-126653504D01*
X177759669Y-126701237D01*
X177784368Y-126742946D01*
X177798823Y-126787128D01*
X177803761Y-126836100D01*
X177799318Y-126884044D01*
X177786460Y-126926432D01*
X177765349Y-126964368D01*
X177735422Y-126998619D01*
X177699529Y-127026159D01*
X177658573Y-127046059D01*
X177611593Y-127058425D01*
X177557320Y-127062757D01*
X177501391Y-127057843D01*
X177451975Y-127043651D01*
X177407843Y-127020454D01*
X177369196Y-126988651D01*
X177332849Y-126945095D01*
X177298813Y-126887538D01*
X177427236Y-126809526D01*
X177460981Y-126860638D01*
X177493997Y-126892675D01*
X177526775Y-126910191D01*
X177560544Y-126915821D01*
X177585951Y-126913169D01*
X177607741Y-126905555D01*
X177626685Y-126893057D01*
X177641980Y-126876464D01*
X177650607Y-126859117D01*
X177653454Y-126840399D01*
X177648678Y-126814013D01*
X177633230Y-126786128D01*
X177605981Y-126756649D01*
X177544180Y-126703085D01*
X177457241Y-126628657D01*
X177403942Y-126575639D01*
X177374773Y-126538954D01*
X177352942Y-126499129D01*
X177340539Y-126460933D01*
X177336524Y-126423623D01*
X177340513Y-126383549D01*
X177352239Y-126346971D01*
X177371855Y-126313053D01*
X177400174Y-126281229D01*
X177433720Y-126255322D01*
X177470605Y-126236911D01*
X177511502Y-126225663D01*
X177557320Y-126221780D01*
X177596704Y-126224895D01*
X177634703Y-126234201D01*
X177671772Y-126249868D01*
X177705921Y-126271411D01*
X177744893Y-126304603D01*
X177789546Y-126352304D01*
G37*
G36*
X163323178Y-127619907D02*
G01*
X163399190Y-127630595D01*
X163447986Y-127645165D01*
X163491823Y-127668964D01*
X163529535Y-127701287D01*
X163561742Y-127743046D01*
X163585248Y-127790371D01*
X163599744Y-127843900D01*
X163604790Y-127904979D01*
X163599130Y-127968968D01*
X163583077Y-128023114D01*
X163557285Y-128069293D01*
X163521736Y-128108504D01*
X163474779Y-128141856D01*
X163414220Y-128169249D01*
X163651929Y-128620000D01*
X163442918Y-128620000D01*
X163216749Y-128190132D01*
X163199042Y-128190132D01*
X163199042Y-128620000D01*
X163007739Y-128620000D01*
X163007739Y-128006461D01*
X163199042Y-128006461D01*
X163259125Y-128006461D01*
X163320550Y-128002975D01*
X163360517Y-127994278D01*
X163385155Y-127982404D01*
X163403675Y-127963767D01*
X163415350Y-127937972D01*
X163419654Y-127902536D01*
X163415269Y-127871285D01*
X163402557Y-127845078D01*
X163382683Y-127824163D01*
X163356823Y-127810029D01*
X163322150Y-127802675D01*
X163251615Y-127799344D01*
X163199042Y-127799344D01*
X163199042Y-128006461D01*
X163007739Y-128006461D01*
X163007739Y-127615673D01*
X163210643Y-127615673D01*
X163323178Y-127619907D01*
G37*
G36*
X163807329Y-127615673D02*
G01*
X164355837Y-127615673D01*
X164355837Y-127799344D01*
X163997227Y-127799344D01*
X163997227Y-127983014D01*
X164355837Y-127983014D01*
X164355837Y-128166685D01*
X163997227Y-128166685D01*
X163997227Y-128436329D01*
X164355837Y-128436329D01*
X164355837Y-128620000D01*
X163807329Y-128620000D01*
X163807329Y-127615673D01*
G37*
G36*
X164537187Y-127615673D02*
G01*
X165035870Y-127615673D01*
X165035870Y-127799344D01*
X164726414Y-127799344D01*
X164726414Y-127983014D01*
X165035870Y-127983014D01*
X165035870Y-128166685D01*
X164726414Y-128166685D01*
X164726414Y-128620000D01*
X164537187Y-128620000D01*
X164537187Y-127615673D01*
G37*
G36*
X165286891Y-127857962D02*
G01*
X165315218Y-127861514D01*
X165340205Y-127871932D01*
X165362728Y-127889591D01*
X165380274Y-127912218D01*
X165390638Y-127937329D01*
X165394174Y-127965795D01*
X165390659Y-127993779D01*
X165380315Y-128018677D01*
X165362728Y-128041327D01*
X165340209Y-128058950D01*
X165315222Y-128069349D01*
X165286891Y-128072896D01*
X165258574Y-128069387D01*
X165233583Y-128059102D01*
X165211053Y-128041693D01*
X165193555Y-128019259D01*
X165183205Y-127994255D01*
X165179668Y-127965795D01*
X165183198Y-127937325D01*
X165193544Y-127912214D01*
X165211053Y-127889591D01*
X165233613Y-127871927D01*
X165258602Y-127861511D01*
X165286891Y-127857962D01*
G37*
G36*
X165286891Y-128424605D02*
G01*
X165315242Y-128428123D01*
X165340231Y-128438429D01*
X165362728Y-128455868D01*
X165380261Y-128478269D01*
X165390630Y-128503251D01*
X165394174Y-128531706D01*
X165390639Y-128560174D01*
X165380276Y-128585306D01*
X165362728Y-128607971D01*
X165340209Y-128625593D01*
X165315222Y-128635992D01*
X165286891Y-128639539D01*
X165258598Y-128635995D01*
X165233609Y-128625598D01*
X165211053Y-128607971D01*
X165193542Y-128585310D01*
X165183197Y-128560178D01*
X165179668Y-128531706D01*
X165183206Y-128503247D01*
X165193557Y-128478265D01*
X165211053Y-128455868D01*
X165233587Y-128438423D01*
X165258578Y-128428120D01*
X165286891Y-128424605D01*
G37*
D12*
X191565000Y-69672219D02*
X192231666Y-69672219D01*
X192231666Y-69672219D02*
X191803095Y-70672219D01*
X193088809Y-69672219D02*
X192612619Y-69672219D01*
X192612619Y-69672219D02*
X192565000Y-70148409D01*
X192565000Y-70148409D02*
X192612619Y-70100790D01*
X192612619Y-70100790D02*
X192707857Y-70053171D01*
X192707857Y-70053171D02*
X192945952Y-70053171D01*
X192945952Y-70053171D02*
X193041190Y-70100790D01*
X193041190Y-70100790D02*
X193088809Y-70148409D01*
X193088809Y-70148409D02*
X193136428Y-70243647D01*
X193136428Y-70243647D02*
X193136428Y-70481742D01*
X193136428Y-70481742D02*
X193088809Y-70576980D01*
X193088809Y-70576980D02*
X193041190Y-70624600D01*
X193041190Y-70624600D02*
X192945952Y-70672219D01*
X192945952Y-70672219D02*
X192707857Y-70672219D01*
X192707857Y-70672219D02*
X192612619Y-70624600D01*
X192612619Y-70624600D02*
X192565000Y-70576980D01*
X193612619Y-70624600D02*
X193612619Y-70672219D01*
X193612619Y-70672219D02*
X193565000Y-70767457D01*
X193565000Y-70767457D02*
X193517381Y-70815076D01*
X193993571Y-69767457D02*
X194041190Y-69719838D01*
X194041190Y-69719838D02*
X194136428Y-69672219D01*
X194136428Y-69672219D02*
X194374523Y-69672219D01*
X194374523Y-69672219D02*
X194469761Y-69719838D01*
X194469761Y-69719838D02*
X194517380Y-69767457D01*
X194517380Y-69767457D02*
X194564999Y-69862695D01*
X194564999Y-69862695D02*
X194564999Y-69957933D01*
X194564999Y-69957933D02*
X194517380Y-70100790D01*
X194517380Y-70100790D02*
X193945952Y-70672219D01*
X193945952Y-70672219D02*
X194564999Y-70672219D01*
X195041190Y-70672219D02*
X195231666Y-70672219D01*
X195231666Y-70672219D02*
X195326904Y-70624600D01*
X195326904Y-70624600D02*
X195374523Y-70576980D01*
X195374523Y-70576980D02*
X195469761Y-70434123D01*
X195469761Y-70434123D02*
X195517380Y-70243647D01*
X195517380Y-70243647D02*
X195517380Y-69862695D01*
X195517380Y-69862695D02*
X195469761Y-69767457D01*
X195469761Y-69767457D02*
X195422142Y-69719838D01*
X195422142Y-69719838D02*
X195326904Y-69672219D01*
X195326904Y-69672219D02*
X195136428Y-69672219D01*
X195136428Y-69672219D02*
X195041190Y-69719838D01*
X195041190Y-69719838D02*
X194993571Y-69767457D01*
X194993571Y-69767457D02*
X194945952Y-69862695D01*
X194945952Y-69862695D02*
X194945952Y-70100790D01*
X194945952Y-70100790D02*
X194993571Y-70196028D01*
X194993571Y-70196028D02*
X195041190Y-70243647D01*
X195041190Y-70243647D02*
X195136428Y-70291266D01*
X195136428Y-70291266D02*
X195326904Y-70291266D01*
X195326904Y-70291266D02*
X195422142Y-70243647D01*
X195422142Y-70243647D02*
X195469761Y-70196028D01*
X195469761Y-70196028D02*
X195517380Y-70100790D01*
D10*
X155920000Y-71420000D02*
X155920000Y-71420000D01*
X231210000Y-70833580D02*
X231210000Y-72320000D01*
X155920000Y-71420000D02*
X231210000Y-71420000D01*
X155920000Y-71420000D02*
X231210000Y-71420000D01*
X155920000Y-71420000D02*
X157046504Y-70833579D01*
X155920000Y-71420000D02*
X157046504Y-72006421D01*
X231210000Y-71420000D02*
X230083496Y-72006421D01*
X231210000Y-71420000D02*
X230083496Y-70833579D01*
X155920000Y-71420000D02*
X231210000Y-71420000D01*
X155920000Y-71420000D02*
X231210000Y-71420000D01*
X155920000Y-71420000D02*
X157046504Y-70833579D01*
X155920000Y-71420000D02*
X157046504Y-72006421D01*
X231210000Y-71420000D02*
X230083496Y-72006421D01*
X231210000Y-71420000D02*
X230083496Y-70833579D01*
D12*
X236951428Y-99932219D02*
X236475238Y-99932219D01*
X236475238Y-99932219D02*
X236427619Y-100408409D01*
X236427619Y-100408409D02*
X236475238Y-100360790D01*
X236475238Y-100360790D02*
X236570476Y-100313171D01*
X236570476Y-100313171D02*
X236808571Y-100313171D01*
X236808571Y-100313171D02*
X236903809Y-100360790D01*
X236903809Y-100360790D02*
X236951428Y-100408409D01*
X236951428Y-100408409D02*
X236999047Y-100503647D01*
X236999047Y-100503647D02*
X236999047Y-100741742D01*
X236999047Y-100741742D02*
X236951428Y-100836980D01*
X236951428Y-100836980D02*
X236903809Y-100884600D01*
X236903809Y-100884600D02*
X236808571Y-100932219D01*
X236808571Y-100932219D02*
X236570476Y-100932219D01*
X236570476Y-100932219D02*
X236475238Y-100884600D01*
X236475238Y-100884600D02*
X236427619Y-100836980D01*
X237856190Y-99932219D02*
X237665714Y-99932219D01*
X237665714Y-99932219D02*
X237570476Y-99979838D01*
X237570476Y-99979838D02*
X237522857Y-100027457D01*
X237522857Y-100027457D02*
X237427619Y-100170314D01*
X237427619Y-100170314D02*
X237380000Y-100360790D01*
X237380000Y-100360790D02*
X237380000Y-100741742D01*
X237380000Y-100741742D02*
X237427619Y-100836980D01*
X237427619Y-100836980D02*
X237475238Y-100884600D01*
X237475238Y-100884600D02*
X237570476Y-100932219D01*
X237570476Y-100932219D02*
X237760952Y-100932219D01*
X237760952Y-100932219D02*
X237856190Y-100884600D01*
X237856190Y-100884600D02*
X237903809Y-100836980D01*
X237903809Y-100836980D02*
X237951428Y-100741742D01*
X237951428Y-100741742D02*
X237951428Y-100503647D01*
X237951428Y-100503647D02*
X237903809Y-100408409D01*
X237903809Y-100408409D02*
X237856190Y-100360790D01*
X237856190Y-100360790D02*
X237760952Y-100313171D01*
X237760952Y-100313171D02*
X237570476Y-100313171D01*
X237570476Y-100313171D02*
X237475238Y-100360790D01*
X237475238Y-100360790D02*
X237427619Y-100408409D01*
X237427619Y-100408409D02*
X237380000Y-100503647D01*
X238427619Y-100884600D02*
X238427619Y-100932219D01*
X238427619Y-100932219D02*
X238380000Y-101027457D01*
X238380000Y-101027457D02*
X238332381Y-101075076D01*
X239284761Y-99932219D02*
X239094285Y-99932219D01*
X239094285Y-99932219D02*
X238999047Y-99979838D01*
X238999047Y-99979838D02*
X238951428Y-100027457D01*
X238951428Y-100027457D02*
X238856190Y-100170314D01*
X238856190Y-100170314D02*
X238808571Y-100360790D01*
X238808571Y-100360790D02*
X238808571Y-100741742D01*
X238808571Y-100741742D02*
X238856190Y-100836980D01*
X238856190Y-100836980D02*
X238903809Y-100884600D01*
X238903809Y-100884600D02*
X238999047Y-100932219D01*
X238999047Y-100932219D02*
X239189523Y-100932219D01*
X239189523Y-100932219D02*
X239284761Y-100884600D01*
X239284761Y-100884600D02*
X239332380Y-100836980D01*
X239332380Y-100836980D02*
X239379999Y-100741742D01*
X239379999Y-100741742D02*
X239379999Y-100503647D01*
X239379999Y-100503647D02*
X239332380Y-100408409D01*
X239332380Y-100408409D02*
X239284761Y-100360790D01*
X239284761Y-100360790D02*
X239189523Y-100313171D01*
X239189523Y-100313171D02*
X238999047Y-100313171D01*
X238999047Y-100313171D02*
X238903809Y-100360790D01*
X238903809Y-100360790D02*
X238856190Y-100408409D01*
X238856190Y-100408409D02*
X238808571Y-100503647D01*
X239856190Y-100932219D02*
X240046666Y-100932219D01*
X240046666Y-100932219D02*
X240141904Y-100884600D01*
X240141904Y-100884600D02*
X240189523Y-100836980D01*
X240189523Y-100836980D02*
X240284761Y-100694123D01*
X240284761Y-100694123D02*
X240332380Y-100503647D01*
X240332380Y-100503647D02*
X240332380Y-100122695D01*
X240332380Y-100122695D02*
X240284761Y-100027457D01*
X240284761Y-100027457D02*
X240237142Y-99979838D01*
X240237142Y-99979838D02*
X240141904Y-99932219D01*
X240141904Y-99932219D02*
X239951428Y-99932219D01*
X239951428Y-99932219D02*
X239856190Y-99979838D01*
X239856190Y-99979838D02*
X239808571Y-100027457D01*
X239808571Y-100027457D02*
X239760952Y-100122695D01*
X239760952Y-100122695D02*
X239760952Y-100360790D01*
X239760952Y-100360790D02*
X239808571Y-100456028D01*
X239808571Y-100456028D02*
X239856190Y-100503647D01*
X239856190Y-100503647D02*
X239951428Y-100551266D01*
X239951428Y-100551266D02*
X240141904Y-100551266D01*
X240141904Y-100551266D02*
X240237142Y-100503647D01*
X240237142Y-100503647D02*
X240284761Y-100456028D01*
X240284761Y-100456028D02*
X240332380Y-100360790D01*
D10*
X233600000Y-72730000D02*
X235376420Y-72730000D01*
X235376420Y-129420000D02*
X234040000Y-129420000D01*
X234790000Y-72730000D02*
X234790000Y-129420000D01*
X234790000Y-72730000D02*
X234790000Y-129420000D01*
X234790000Y-72730000D02*
X235376421Y-73856504D01*
X234790000Y-72730000D02*
X234203579Y-73856504D01*
X234790000Y-129420000D02*
X234203579Y-128293496D01*
X234790000Y-129420000D02*
X235376421Y-128293496D01*
X234790000Y-72730000D02*
X234790000Y-129420000D01*
X234790000Y-72730000D02*
X234790000Y-129420000D01*
X234790000Y-72730000D02*
X235376421Y-73856504D01*
X234790000Y-72730000D02*
X234203579Y-73856504D01*
X234790000Y-129420000D02*
X234203579Y-128293496D01*
X234790000Y-129420000D02*
X235376421Y-128293496D01*
D13*
X221878095Y-114984819D02*
X221878095Y-115794342D01*
X221878095Y-115794342D02*
X221925714Y-115889580D01*
X221925714Y-115889580D02*
X221973333Y-115937200D01*
X221973333Y-115937200D02*
X222068571Y-115984819D01*
X222068571Y-115984819D02*
X222259047Y-115984819D01*
X222259047Y-115984819D02*
X222354285Y-115937200D01*
X222354285Y-115937200D02*
X222401904Y-115889580D01*
X222401904Y-115889580D02*
X222449523Y-115794342D01*
X222449523Y-115794342D02*
X222449523Y-114984819D01*
X223354285Y-114984819D02*
X223163809Y-114984819D01*
X223163809Y-114984819D02*
X223068571Y-115032438D01*
X223068571Y-115032438D02*
X223020952Y-115080057D01*
X223020952Y-115080057D02*
X222925714Y-115222914D01*
X222925714Y-115222914D02*
X222878095Y-115413390D01*
X222878095Y-115413390D02*
X222878095Y-115794342D01*
X222878095Y-115794342D02*
X222925714Y-115889580D01*
X222925714Y-115889580D02*
X222973333Y-115937200D01*
X222973333Y-115937200D02*
X223068571Y-115984819D01*
X223068571Y-115984819D02*
X223259047Y-115984819D01*
X223259047Y-115984819D02*
X223354285Y-115937200D01*
X223354285Y-115937200D02*
X223401904Y-115889580D01*
X223401904Y-115889580D02*
X223449523Y-115794342D01*
X223449523Y-115794342D02*
X223449523Y-115556247D01*
X223449523Y-115556247D02*
X223401904Y-115461009D01*
X223401904Y-115461009D02*
X223354285Y-115413390D01*
X223354285Y-115413390D02*
X223259047Y-115365771D01*
X223259047Y-115365771D02*
X223068571Y-115365771D01*
X223068571Y-115365771D02*
X222973333Y-115413390D01*
X222973333Y-115413390D02*
X222925714Y-115461009D01*
X222925714Y-115461009D02*
X222878095Y-115556247D01*
X224320912Y-111442295D02*
X224320912Y-112089914D01*
X224320912Y-112089914D02*
X224359007Y-112166104D01*
X224359007Y-112166104D02*
X224397102Y-112204200D01*
X224397102Y-112204200D02*
X224473293Y-112242295D01*
X224473293Y-112242295D02*
X224625674Y-112242295D01*
X224625674Y-112242295D02*
X224701864Y-112204200D01*
X224701864Y-112204200D02*
X224739959Y-112166104D01*
X224739959Y-112166104D02*
X224778055Y-112089914D01*
X224778055Y-112089914D02*
X224778055Y-111442295D01*
X225082816Y-111442295D02*
X225578054Y-111442295D01*
X225578054Y-111442295D02*
X225311388Y-111747057D01*
X225311388Y-111747057D02*
X225425673Y-111747057D01*
X225425673Y-111747057D02*
X225501864Y-111785152D01*
X225501864Y-111785152D02*
X225539959Y-111823247D01*
X225539959Y-111823247D02*
X225578054Y-111899438D01*
X225578054Y-111899438D02*
X225578054Y-112089914D01*
X225578054Y-112089914D02*
X225539959Y-112166104D01*
X225539959Y-112166104D02*
X225501864Y-112204200D01*
X225501864Y-112204200D02*
X225425673Y-112242295D01*
X225425673Y-112242295D02*
X225197102Y-112242295D01*
X225197102Y-112242295D02*
X225120911Y-112204200D01*
X225120911Y-112204200D02*
X225082816Y-112166104D01*
G36*
X226188786Y-106720673D02*
G01*
X226380700Y-106720673D01*
X226380700Y-107369748D01*
X226385165Y-107447415D01*
X226395354Y-107488450D01*
X226414692Y-107519535D01*
X226443897Y-107544016D01*
X226480264Y-107559339D01*
X226525536Y-107564776D01*
X226573438Y-107558761D01*
X226612608Y-107541634D01*
X226643917Y-107514840D01*
X226663167Y-107482650D01*
X226672785Y-107438689D01*
X226677210Y-107345935D01*
X226677210Y-106720673D01*
X226869124Y-106720673D01*
X226869124Y-107318396D01*
X226863823Y-107458170D01*
X226852027Y-107528323D01*
X226827919Y-107584674D01*
X226786814Y-107641468D01*
X226752621Y-107675058D01*
X226715719Y-107701820D01*
X226675806Y-107722252D01*
X226609712Y-107741559D01*
X226529627Y-107748447D01*
X226458191Y-107742592D01*
X226395273Y-107725742D01*
X226339362Y-107698377D01*
X226289404Y-107661142D01*
X226251289Y-107619471D01*
X226223590Y-107572958D01*
X226206381Y-107520733D01*
X226193781Y-107439272D01*
X226188786Y-107318396D01*
X226188786Y-106720673D01*
G37*
G36*
X227618156Y-106860380D02*
G01*
X227476739Y-106986409D01*
X227434824Y-106935581D01*
X227396226Y-106903668D01*
X227360069Y-106886359D01*
X227325065Y-106880896D01*
X227290189Y-106886144D01*
X227263576Y-106900924D01*
X227245336Y-106922877D01*
X227239702Y-106946109D01*
X227243854Y-106970237D01*
X227256799Y-106993675D01*
X227292445Y-107030540D01*
X227396811Y-107122086D01*
X227529374Y-107236880D01*
X227580810Y-107296547D01*
X227611684Y-107348682D01*
X227629752Y-107403910D01*
X227635925Y-107465125D01*
X227630371Y-107525055D01*
X227614299Y-107578040D01*
X227587910Y-107625461D01*
X227550501Y-107668274D01*
X227505634Y-107702699D01*
X227454439Y-107727573D01*
X227395715Y-107743032D01*
X227327873Y-107748447D01*
X227257962Y-107742304D01*
X227196193Y-107724564D01*
X227141028Y-107695568D01*
X227092719Y-107655814D01*
X227047285Y-107601368D01*
X227004740Y-107529422D01*
X227165269Y-107431908D01*
X227207450Y-107495797D01*
X227248720Y-107535844D01*
X227289693Y-107557739D01*
X227331903Y-107564776D01*
X227363662Y-107561462D01*
X227390900Y-107551944D01*
X227414580Y-107536322D01*
X227433698Y-107515581D01*
X227444482Y-107493896D01*
X227448041Y-107470498D01*
X227442071Y-107437516D01*
X227422762Y-107402660D01*
X227388700Y-107365812D01*
X227311448Y-107298857D01*
X227202775Y-107205821D01*
X227136151Y-107139549D01*
X227099690Y-107093693D01*
X227072401Y-107043911D01*
X227056897Y-106996166D01*
X227051879Y-106949528D01*
X227056865Y-106899436D01*
X227071523Y-106853713D01*
X227096042Y-106811316D01*
X227131441Y-106771536D01*
X227173374Y-106739153D01*
X227219480Y-106716138D01*
X227270601Y-106702079D01*
X227327873Y-106697226D01*
X227377104Y-106701119D01*
X227424602Y-106712752D01*
X227470939Y-106732336D01*
X227513625Y-106759264D01*
X227562340Y-106800754D01*
X227618156Y-106860380D01*
G37*
G36*
X228706014Y-107725000D02*
G01*
X228507200Y-107725000D01*
X228428676Y-107517882D01*
X228018775Y-107517882D01*
X227936832Y-107725000D01*
X227738018Y-107725000D01*
X227888745Y-107334211D01*
X228089850Y-107334211D01*
X228356930Y-107334211D01*
X228223756Y-106987997D01*
X228089850Y-107334211D01*
X227888745Y-107334211D01*
X228125387Y-106720673D01*
X228319377Y-106720673D01*
X228706014Y-107725000D01*
G37*
G36*
X229183325Y-106724907D02*
G01*
X229259337Y-106735595D01*
X229308133Y-106750165D01*
X229351970Y-106773964D01*
X229389682Y-106806287D01*
X229421889Y-106848046D01*
X229445395Y-106895371D01*
X229459891Y-106948900D01*
X229464937Y-107009979D01*
X229459277Y-107073968D01*
X229443224Y-107128114D01*
X229417432Y-107174293D01*
X229381883Y-107213504D01*
X229334926Y-107246856D01*
X229274367Y-107274249D01*
X229512076Y-107725000D01*
X229303065Y-107725000D01*
X229076896Y-107295132D01*
X229059189Y-107295132D01*
X229059189Y-107725000D01*
X228867886Y-107725000D01*
X228867886Y-107111461D01*
X229059189Y-107111461D01*
X229119273Y-107111461D01*
X229180697Y-107107975D01*
X229220664Y-107099278D01*
X229245302Y-107087404D01*
X229263823Y-107068767D01*
X229275497Y-107042972D01*
X229279801Y-107007536D01*
X229275416Y-106976285D01*
X229262704Y-106950078D01*
X229242830Y-106929163D01*
X229216970Y-106915029D01*
X229182297Y-106907675D01*
X229111762Y-106904344D01*
X229059189Y-106904344D01*
X229059189Y-107111461D01*
X228867886Y-107111461D01*
X228867886Y-106720673D01*
X229070790Y-106720673D01*
X229183325Y-106724907D01*
G37*
G36*
X229567702Y-106720673D02*
G01*
X230123111Y-106720673D01*
X230123111Y-106904344D01*
X229940051Y-106904344D01*
X229940051Y-107725000D01*
X229746000Y-107725000D01*
X229746000Y-106904344D01*
X229567702Y-106904344D01*
X229567702Y-106720673D01*
G37*
G36*
X206458170Y-100352089D02*
G01*
X206773369Y-100352089D01*
X206773369Y-101418131D01*
X206780704Y-101545690D01*
X206797438Y-101613088D01*
X206829198Y-101664140D01*
X206877165Y-101704348D01*
X206936895Y-101729516D01*
X207011248Y-101738445D01*
X207089923Y-101728566D01*
X207154256Y-101700437D01*
X207205677Y-101656429D01*
X207237293Y-101603560D01*
X207253092Y-101531359D01*
X207260359Y-101379020D01*
X207260359Y-100352089D01*
X207575559Y-100352089D01*
X207575559Y-101333790D01*
X207566851Y-101563355D01*
X207547479Y-101678575D01*
X207507884Y-101771125D01*
X207440373Y-101864405D01*
X207384213Y-101919573D01*
X207323605Y-101963526D01*
X207258053Y-101997084D01*
X207149500Y-102028793D01*
X207017967Y-102040106D01*
X206900641Y-102030491D01*
X206797304Y-102002817D01*
X206705475Y-101957872D01*
X206623425Y-101896717D01*
X206560825Y-101828276D01*
X206515333Y-101751884D01*
X206487067Y-101666110D01*
X206466373Y-101532316D01*
X206458170Y-101333790D01*
X206458170Y-100352089D01*
G37*
G36*
X208135958Y-100352089D02*
G01*
X208908965Y-100352089D01*
X208908965Y-100640913D01*
X208370427Y-100640913D01*
X208303135Y-100938964D01*
X208358092Y-100927230D01*
X208409740Y-100923319D01*
X208519206Y-100933266D01*
X208616365Y-100962078D01*
X208703630Y-101009381D01*
X208782704Y-101076356D01*
X208847082Y-101157164D01*
X208893157Y-101248005D01*
X208921547Y-101350828D01*
X208931429Y-101468274D01*
X208920824Y-101585864D01*
X208889981Y-101691309D01*
X208839167Y-101787024D01*
X208767060Y-101874734D01*
X208679717Y-101947566D01*
X208585155Y-101998654D01*
X208481730Y-102029527D01*
X208367118Y-102040106D01*
X208263035Y-102032240D01*
X208169002Y-102009401D01*
X208083328Y-101972095D01*
X208004684Y-101919964D01*
X207936249Y-101855166D01*
X207880615Y-101779683D01*
X207837176Y-101692199D01*
X207806117Y-101590824D01*
X208135958Y-101590824D01*
X208181017Y-101658574D01*
X208236345Y-101705852D01*
X208301659Y-101735055D01*
X208373837Y-101744864D01*
X208440243Y-101736466D01*
X208498611Y-101711860D01*
X208551043Y-101670150D01*
X208591150Y-101616462D01*
X208615527Y-101553444D01*
X208624051Y-101478403D01*
X208616083Y-101405260D01*
X208593353Y-101343871D01*
X208556158Y-101291670D01*
X208507092Y-101250661D01*
X208452960Y-101226693D01*
X208391788Y-101218562D01*
X208341183Y-101224869D01*
X208290299Y-101244335D01*
X208242224Y-101275446D01*
X208192119Y-101321756D01*
X207936288Y-101264794D01*
X208135958Y-100352089D01*
G37*
G36*
X204558467Y-94948706D02*
G01*
X204732076Y-94948706D01*
X204678075Y-95152003D01*
X204832502Y-95008144D01*
X204912465Y-95159822D01*
X204704037Y-95212601D01*
X204912465Y-95273199D01*
X204822240Y-95420234D01*
X204673310Y-95273199D01*
X204725906Y-95476495D01*
X204558467Y-95476495D01*
X204611124Y-95273199D01*
X204458713Y-95420234D01*
X204367816Y-95273199D01*
X204576916Y-95212601D01*
X204367816Y-95152003D01*
X204458713Y-95001363D01*
X204611124Y-95152003D01*
X204558467Y-94948706D01*
G37*
G36*
X159178754Y-120654907D02*
G01*
X159254766Y-120665595D01*
X159303562Y-120680165D01*
X159347399Y-120703964D01*
X159385111Y-120736287D01*
X159417318Y-120778046D01*
X159440824Y-120825371D01*
X159455320Y-120878900D01*
X159460366Y-120939979D01*
X159454706Y-121003968D01*
X159438653Y-121058114D01*
X159412861Y-121104293D01*
X159377312Y-121143504D01*
X159330355Y-121176856D01*
X159269796Y-121204249D01*
X159507505Y-121655000D01*
X159298494Y-121655000D01*
X159072325Y-121225132D01*
X159054618Y-121225132D01*
X159054618Y-121655000D01*
X158863315Y-121655000D01*
X158863315Y-121041461D01*
X159054618Y-121041461D01*
X159114701Y-121041461D01*
X159176126Y-121037975D01*
X159216093Y-121029278D01*
X159240731Y-121017404D01*
X159259251Y-120998767D01*
X159270926Y-120972972D01*
X159275230Y-120937536D01*
X159270845Y-120906285D01*
X159258133Y-120880078D01*
X159238259Y-120859163D01*
X159212399Y-120845029D01*
X159177726Y-120837675D01*
X159107191Y-120834344D01*
X159054618Y-120834344D01*
X159054618Y-121041461D01*
X158863315Y-121041461D01*
X158863315Y-120650673D01*
X159066219Y-120650673D01*
X159178754Y-120654907D01*
G37*
G36*
X160976565Y-120827871D02*
G01*
X160842659Y-120954633D01*
X160784117Y-120900868D01*
X160724701Y-120860816D01*
X160663923Y-120832984D01*
X160601079Y-120816446D01*
X160535279Y-120810896D01*
X160464953Y-120817231D01*
X160401924Y-120835649D01*
X160344744Y-120865986D01*
X160292379Y-120909021D01*
X160249081Y-120961097D01*
X160218582Y-121017993D01*
X160200072Y-121080747D01*
X160193705Y-121150821D01*
X160198775Y-121216381D01*
X160213463Y-121275249D01*
X160237425Y-121328569D01*
X160270545Y-121376578D01*
X160311501Y-121417030D01*
X160361073Y-121450507D01*
X160415836Y-121474930D01*
X160474727Y-121489726D01*
X160538698Y-121494776D01*
X160593587Y-121491215D01*
X160644154Y-121480820D01*
X160691045Y-121463818D01*
X160734910Y-121439853D01*
X160785086Y-121403212D01*
X160842659Y-121351039D01*
X160972474Y-121486106D01*
X160894874Y-121554782D01*
X160825112Y-121603818D01*
X160762058Y-121636498D01*
X160694811Y-121659311D01*
X160619843Y-121673509D01*
X160535951Y-121678447D01*
X160442639Y-121672113D01*
X160358933Y-121653823D01*
X160283389Y-121624204D01*
X160214822Y-121583286D01*
X160152367Y-121530497D01*
X160098984Y-121468428D01*
X160057703Y-121400453D01*
X160027881Y-121325732D01*
X160009495Y-121243100D01*
X160003135Y-121151127D01*
X160007587Y-121076697D01*
X160020572Y-121008066D01*
X160041751Y-120944442D01*
X160071095Y-120885146D01*
X160108361Y-120830297D01*
X160152851Y-120781025D01*
X160205068Y-120736973D01*
X160265757Y-120697995D01*
X160330527Y-120666962D01*
X160397258Y-120644948D01*
X160466455Y-120631695D01*
X160538698Y-120627226D01*
X160620469Y-120633014D01*
X160700022Y-120650329D01*
X160778117Y-120679433D01*
X160851356Y-120719150D01*
X160917294Y-120768454D01*
X160976565Y-120827871D01*
G37*
G36*
X162030961Y-121655000D02*
G01*
X161832147Y-121655000D01*
X161753623Y-121447882D01*
X161343723Y-121447882D01*
X161261779Y-121655000D01*
X161062966Y-121655000D01*
X161213693Y-121264211D01*
X161414797Y-121264211D01*
X161681877Y-121264211D01*
X161548704Y-120917997D01*
X161414797Y-121264211D01*
X161213693Y-121264211D01*
X161450335Y-120650673D01*
X161644325Y-120650673D01*
X162030961Y-121655000D01*
G37*
G36*
X162179888Y-120650673D02*
G01*
X162371130Y-120650673D01*
X162371130Y-121471329D01*
X162649872Y-121471329D01*
X162649872Y-121655000D01*
X162179888Y-121655000D01*
X162179888Y-120650673D01*
G37*
G36*
X162796052Y-120650673D02*
G01*
X163344560Y-120650673D01*
X163344560Y-120834344D01*
X162985951Y-120834344D01*
X162985951Y-121018014D01*
X163344560Y-121018014D01*
X163344560Y-121201685D01*
X162985951Y-121201685D01*
X162985951Y-121471329D01*
X163344560Y-121471329D01*
X163344560Y-121655000D01*
X162796052Y-121655000D01*
X162796052Y-120650673D01*
G37*
G36*
X163525910Y-120650673D02*
G01*
X164024593Y-120650673D01*
X164024593Y-120834344D01*
X163715138Y-120834344D01*
X163715138Y-121018014D01*
X164024593Y-121018014D01*
X164024593Y-121201685D01*
X163715138Y-121201685D01*
X163715138Y-121655000D01*
X163525910Y-121655000D01*
X163525910Y-120650673D01*
G37*
G36*
X165081066Y-121655000D02*
G01*
X164882252Y-121655000D01*
X164803728Y-121447882D01*
X164393827Y-121447882D01*
X164311884Y-121655000D01*
X164113070Y-121655000D01*
X164263797Y-121264211D01*
X164464902Y-121264211D01*
X164731982Y-121264211D01*
X164598808Y-120917997D01*
X164464902Y-121264211D01*
X164263797Y-121264211D01*
X164500439Y-120650673D01*
X164694429Y-120650673D01*
X165081066Y-121655000D01*
G37*
G36*
X166153536Y-120827871D02*
G01*
X166019630Y-120954633D01*
X165961088Y-120900868D01*
X165901672Y-120860816D01*
X165840895Y-120832984D01*
X165778050Y-120816446D01*
X165712250Y-120810896D01*
X165641924Y-120817231D01*
X165578895Y-120835649D01*
X165521715Y-120865986D01*
X165469351Y-120909021D01*
X165426053Y-120961097D01*
X165395554Y-121017993D01*
X165377043Y-121080747D01*
X165370677Y-121150821D01*
X165375746Y-121216381D01*
X165390434Y-121275249D01*
X165414396Y-121328569D01*
X165447516Y-121376578D01*
X165488472Y-121417030D01*
X165538044Y-121450507D01*
X165592808Y-121474930D01*
X165651699Y-121489726D01*
X165715670Y-121494776D01*
X165770558Y-121491215D01*
X165821125Y-121480820D01*
X165868016Y-121463818D01*
X165911881Y-121439853D01*
X165962057Y-121403212D01*
X166019630Y-121351039D01*
X166149445Y-121486106D01*
X166071846Y-121554782D01*
X166002083Y-121603818D01*
X165939030Y-121636498D01*
X165871782Y-121659311D01*
X165796814Y-121673509D01*
X165712922Y-121678447D01*
X165619610Y-121672113D01*
X165535905Y-121653823D01*
X165460360Y-121624204D01*
X165391793Y-121583286D01*
X165329339Y-121530497D01*
X165275956Y-121468428D01*
X165234674Y-121400453D01*
X165204853Y-121325732D01*
X165186466Y-121243100D01*
X165180106Y-121151127D01*
X165184559Y-121076697D01*
X165197543Y-121008066D01*
X165218723Y-120944442D01*
X165248067Y-120885146D01*
X165285332Y-120830297D01*
X165329822Y-120781025D01*
X165382040Y-120736973D01*
X165442728Y-120697995D01*
X165507499Y-120666962D01*
X165574230Y-120644948D01*
X165643427Y-120631695D01*
X165715670Y-120627226D01*
X165797440Y-120633014D01*
X165876993Y-120650329D01*
X165955089Y-120679433D01*
X166028327Y-120719150D01*
X166094265Y-120768454D01*
X166153536Y-120827871D01*
G37*
G36*
X166222168Y-120650673D02*
G01*
X166777577Y-120650673D01*
X166777577Y-120834344D01*
X166594517Y-120834344D01*
X166594517Y-121655000D01*
X166400466Y-121655000D01*
X166400466Y-120834344D01*
X166222168Y-120834344D01*
X166222168Y-120650673D01*
G37*
G36*
X167795092Y-121655000D02*
G01*
X167596279Y-121655000D01*
X167517754Y-121447882D01*
X167107854Y-121447882D01*
X167025910Y-121655000D01*
X166827097Y-121655000D01*
X166977824Y-121264211D01*
X167178929Y-121264211D01*
X167446008Y-121264211D01*
X167312835Y-120917997D01*
X167178929Y-121264211D01*
X166977824Y-121264211D01*
X167214466Y-120650673D01*
X167408456Y-120650673D01*
X167795092Y-121655000D01*
G37*
G36*
X168229904Y-120655985D02*
G01*
X168302629Y-120668442D01*
X168359743Y-120689531D01*
X168407067Y-120719152D01*
X168446060Y-120757468D01*
X168475583Y-120803218D01*
X168493294Y-120853840D01*
X168499366Y-120910792D01*
X168493177Y-120966206D01*
X168475125Y-121015205D01*
X168444586Y-121059140D01*
X168396235Y-121103133D01*
X168454241Y-121135789D01*
X168498090Y-121171581D01*
X168530080Y-121210478D01*
X168553267Y-121255092D01*
X168567509Y-121305402D01*
X168572456Y-121362702D01*
X168567524Y-121417776D01*
X168552988Y-121468799D01*
X168528737Y-121516697D01*
X168496328Y-121559629D01*
X168458901Y-121594003D01*
X168416019Y-121620622D01*
X168368652Y-121638503D01*
X168306340Y-121650523D01*
X168225448Y-121655000D01*
X167944019Y-121655000D01*
X167944019Y-121471329D01*
X168135261Y-121471329D01*
X168183072Y-121471329D01*
X168263052Y-121466943D01*
X168313472Y-121456158D01*
X168343234Y-121441714D01*
X168366009Y-121419205D01*
X168379722Y-121391053D01*
X168384572Y-121355436D01*
X168379007Y-121315166D01*
X168363017Y-121282070D01*
X168336090Y-121254380D01*
X168301459Y-121235570D01*
X168249733Y-121222425D01*
X168174890Y-121217316D01*
X168135261Y-121217316D01*
X168135261Y-121471329D01*
X167944019Y-121471329D01*
X167944019Y-121045369D01*
X168135261Y-121045369D01*
X168176905Y-121045369D01*
X168222550Y-121041555D01*
X168256085Y-121031399D01*
X168280403Y-121016121D01*
X168298989Y-120994572D01*
X168310262Y-120968475D01*
X168314230Y-120936437D01*
X168310479Y-120906611D01*
X168299796Y-120882206D01*
X168282112Y-120861943D01*
X168259047Y-120847512D01*
X168227374Y-120837935D01*
X168184415Y-120834344D01*
X168135261Y-120834344D01*
X168135261Y-121045369D01*
X167944019Y-121045369D01*
X167944019Y-120650673D01*
X168101800Y-120650673D01*
X168229904Y-120655985D01*
G37*
G36*
X168755883Y-120650673D02*
G01*
X168947125Y-120650673D01*
X168947125Y-121471329D01*
X169225867Y-121471329D01*
X169225867Y-121655000D01*
X168755883Y-121655000D01*
X168755883Y-120650673D01*
G37*
G36*
X169372046Y-120650673D02*
G01*
X169920555Y-120650673D01*
X169920555Y-120834344D01*
X169561945Y-120834344D01*
X169561945Y-121018014D01*
X169920555Y-121018014D01*
X169920555Y-121201685D01*
X169561945Y-121201685D01*
X169561945Y-121471329D01*
X169920555Y-121471329D01*
X169920555Y-121655000D01*
X169372046Y-121655000D01*
X169372046Y-120650673D01*
G37*
X210478095Y-115004819D02*
X210478095Y-115814342D01*
X210478095Y-115814342D02*
X210525714Y-115909580D01*
X210525714Y-115909580D02*
X210573333Y-115957200D01*
X210573333Y-115957200D02*
X210668571Y-116004819D01*
X210668571Y-116004819D02*
X210859047Y-116004819D01*
X210859047Y-116004819D02*
X210954285Y-115957200D01*
X210954285Y-115957200D02*
X211001904Y-115909580D01*
X211001904Y-115909580D02*
X211049523Y-115814342D01*
X211049523Y-115814342D02*
X211049523Y-115004819D01*
X212049523Y-116004819D02*
X211478095Y-116004819D01*
X211763809Y-116004819D02*
X211763809Y-115004819D01*
X211763809Y-115004819D02*
X211668571Y-115147676D01*
X211668571Y-115147676D02*
X211573333Y-115242914D01*
X211573333Y-115242914D02*
X211478095Y-115290533D01*
G36*
X194018249Y-99910673D02*
G01*
X194210163Y-99910673D01*
X194210163Y-100559748D01*
X194214628Y-100637415D01*
X194224817Y-100678450D01*
X194244155Y-100709535D01*
X194273360Y-100734016D01*
X194309727Y-100749339D01*
X194354999Y-100754776D01*
X194402901Y-100748761D01*
X194442071Y-100731634D01*
X194473380Y-100704840D01*
X194492630Y-100672650D01*
X194502248Y-100628689D01*
X194506673Y-100535935D01*
X194506673Y-99910673D01*
X194698587Y-99910673D01*
X194698587Y-100508396D01*
X194693286Y-100648170D01*
X194681490Y-100718323D01*
X194657382Y-100774674D01*
X194616277Y-100831468D01*
X194582084Y-100865058D01*
X194545182Y-100891820D01*
X194505269Y-100912252D01*
X194439175Y-100931559D01*
X194359090Y-100938447D01*
X194287654Y-100932592D01*
X194224736Y-100915742D01*
X194168825Y-100888377D01*
X194118867Y-100851142D01*
X194080752Y-100809471D01*
X194053053Y-100762958D01*
X194035844Y-100710733D01*
X194023244Y-100629272D01*
X194018249Y-100508396D01*
X194018249Y-99910673D01*
G37*
G36*
X194890196Y-99910673D02*
G01*
X195549407Y-99910673D01*
X195549407Y-100008981D01*
X195095848Y-100938447D01*
X194933915Y-100860045D01*
X195311026Y-100086528D01*
X194890196Y-100086528D01*
X194890196Y-99910673D01*
G37*
G36*
X198263494Y-76570380D02*
G01*
X198122078Y-76696409D01*
X198080162Y-76645581D01*
X198041564Y-76613668D01*
X198005407Y-76596359D01*
X197970403Y-76590896D01*
X197935527Y-76596144D01*
X197908915Y-76610924D01*
X197890674Y-76632877D01*
X197885040Y-76656109D01*
X197889192Y-76680237D01*
X197902137Y-76703675D01*
X197937784Y-76740540D01*
X198042149Y-76832086D01*
X198174712Y-76946880D01*
X198226148Y-77006547D01*
X198257022Y-77058682D01*
X198275091Y-77113910D01*
X198281263Y-77175125D01*
X198275709Y-77235055D01*
X198259637Y-77288040D01*
X198233248Y-77335461D01*
X198195839Y-77378274D01*
X198150973Y-77412699D01*
X198099778Y-77437573D01*
X198041053Y-77453032D01*
X197973212Y-77458447D01*
X197903300Y-77452304D01*
X197841531Y-77434564D01*
X197786366Y-77405568D01*
X197738057Y-77365814D01*
X197692623Y-77311368D01*
X197650078Y-77239422D01*
X197810607Y-77141908D01*
X197852788Y-77205797D01*
X197894058Y-77245844D01*
X197935031Y-77267739D01*
X197977242Y-77274776D01*
X198009001Y-77271462D01*
X198036238Y-77261944D01*
X198059918Y-77246322D01*
X198079037Y-77225581D01*
X198089821Y-77203896D01*
X198093379Y-77180498D01*
X198087409Y-77147516D01*
X198068100Y-77112660D01*
X198034038Y-77075812D01*
X197956786Y-77008857D01*
X197848113Y-76915821D01*
X197781489Y-76849549D01*
X197745028Y-76803693D01*
X197717740Y-76753911D01*
X197702235Y-76706166D01*
X197697217Y-76659528D01*
X197702203Y-76609436D01*
X197716861Y-76563713D01*
X197741380Y-76521316D01*
X197776779Y-76481536D01*
X197818712Y-76449153D01*
X197864818Y-76426138D01*
X197915939Y-76412079D01*
X197973212Y-76407226D01*
X198022442Y-76411119D01*
X198069940Y-76422752D01*
X198116277Y-76442336D01*
X198158963Y-76469264D01*
X198207678Y-76510754D01*
X198263494Y-76570380D01*
G37*
G36*
X198388180Y-76430673D02*
G01*
X198576675Y-76430673D01*
X198721511Y-77071749D01*
X198901151Y-76430673D01*
X199060337Y-76430673D01*
X199242053Y-77071749D01*
X199385485Y-76430673D01*
X199574040Y-76430673D01*
X199347933Y-77435000D01*
X199164201Y-77435000D01*
X198979065Y-76785680D01*
X198797348Y-77435000D01*
X198615631Y-77435000D01*
X198388180Y-76430673D01*
G37*
G36*
X200211758Y-76430673D02*
G01*
X200398971Y-76430673D01*
X200631184Y-77131161D01*
X200866879Y-76430673D01*
X201051343Y-76430673D01*
X201220726Y-77435000D01*
X201036261Y-77435000D01*
X200928367Y-76800701D01*
X200714532Y-77435000D01*
X200545822Y-77435000D01*
X200334735Y-76800701D01*
X200224764Y-77435000D01*
X200038285Y-77435000D01*
X200211758Y-76430673D01*
G37*
G36*
X202297653Y-76607871D02*
G01*
X202163747Y-76734633D01*
X202105206Y-76680868D01*
X202045789Y-76640816D01*
X201985012Y-76612984D01*
X201922168Y-76596446D01*
X201856368Y-76590896D01*
X201786042Y-76597231D01*
X201723012Y-76615649D01*
X201665833Y-76645986D01*
X201613468Y-76689021D01*
X201570170Y-76741097D01*
X201539671Y-76797993D01*
X201521161Y-76860747D01*
X201514794Y-76930821D01*
X201519864Y-76996381D01*
X201534552Y-77055249D01*
X201558513Y-77108569D01*
X201591634Y-77156578D01*
X201632589Y-77197030D01*
X201682161Y-77230507D01*
X201736925Y-77254930D01*
X201795816Y-77269726D01*
X201859787Y-77274776D01*
X201914675Y-77271215D01*
X201965242Y-77260820D01*
X202012133Y-77243818D01*
X202055998Y-77219853D01*
X202106174Y-77183212D01*
X202163747Y-77131039D01*
X202293562Y-77266106D01*
X202215963Y-77334782D01*
X202146201Y-77383818D01*
X202083147Y-77416498D01*
X202015900Y-77439311D01*
X201940931Y-77453509D01*
X201857039Y-77458447D01*
X201763727Y-77452113D01*
X201680022Y-77433823D01*
X201604478Y-77404204D01*
X201535911Y-77363286D01*
X201473456Y-77310497D01*
X201420073Y-77248428D01*
X201378791Y-77180453D01*
X201348970Y-77105732D01*
X201330584Y-77023100D01*
X201324224Y-76931127D01*
X201328676Y-76856697D01*
X201341660Y-76788066D01*
X201362840Y-76724442D01*
X201392184Y-76665146D01*
X201429450Y-76610297D01*
X201473940Y-76561025D01*
X201526157Y-76516973D01*
X201586846Y-76477995D01*
X201651616Y-76446962D01*
X201718347Y-76424948D01*
X201787544Y-76411695D01*
X201859787Y-76407226D01*
X201941557Y-76413014D01*
X202021111Y-76430329D01*
X202099206Y-76459433D01*
X202172445Y-76499150D01*
X202238382Y-76548454D01*
X202297653Y-76607871D01*
G37*
G36*
X202465387Y-76430673D02*
G01*
X202656629Y-76430673D01*
X202656629Y-77251329D01*
X202935371Y-77251329D01*
X202935371Y-77435000D01*
X202465387Y-77435000D01*
X202465387Y-76430673D01*
G37*
G36*
X203409263Y-76434907D02*
G01*
X203485275Y-76445595D01*
X203534072Y-76460165D01*
X203577908Y-76483964D01*
X203615620Y-76516287D01*
X203647828Y-76558046D01*
X203671334Y-76605371D01*
X203685830Y-76658900D01*
X203690876Y-76719979D01*
X203685216Y-76783968D01*
X203669162Y-76838114D01*
X203643370Y-76884293D01*
X203607821Y-76923504D01*
X203560865Y-76956856D01*
X203500305Y-76984249D01*
X203738015Y-77435000D01*
X203529004Y-77435000D01*
X203302835Y-77005132D01*
X203285127Y-77005132D01*
X203285127Y-77435000D01*
X203093824Y-77435000D01*
X203093824Y-76821461D01*
X203285127Y-76821461D01*
X203345211Y-76821461D01*
X203406635Y-76817975D01*
X203446602Y-76809278D01*
X203471240Y-76797404D01*
X203489761Y-76778767D01*
X203501435Y-76752972D01*
X203505740Y-76717536D01*
X203501355Y-76686285D01*
X203488643Y-76660078D01*
X203468769Y-76639163D01*
X203442908Y-76625029D01*
X203408236Y-76617675D01*
X203337700Y-76614344D01*
X203285127Y-76614344D01*
X203285127Y-76821461D01*
X203093824Y-76821461D01*
X203093824Y-76430673D01*
X203296729Y-76430673D01*
X203409263Y-76434907D01*
G37*
G36*
X197917673Y-111339250D02*
G01*
X197917673Y-111147336D01*
X198566748Y-111147336D01*
X198644415Y-111142871D01*
X198685450Y-111132682D01*
X198716535Y-111113344D01*
X198741016Y-111084139D01*
X198756339Y-111047772D01*
X198761776Y-111002500D01*
X198755761Y-110954598D01*
X198738634Y-110915428D01*
X198711840Y-110884119D01*
X198679650Y-110864869D01*
X198635689Y-110855251D01*
X198542935Y-110850826D01*
X197917673Y-110850826D01*
X197917673Y-110658912D01*
X198515396Y-110658912D01*
X198655170Y-110664213D01*
X198725323Y-110676009D01*
X198781674Y-110700117D01*
X198838468Y-110741222D01*
X198872058Y-110775415D01*
X198898820Y-110812317D01*
X198919252Y-110852230D01*
X198938559Y-110918324D01*
X198945447Y-110998409D01*
X198939592Y-111069845D01*
X198922742Y-111132763D01*
X198895377Y-111188674D01*
X198858142Y-111238632D01*
X198816471Y-111276747D01*
X198769958Y-111304446D01*
X198717733Y-111321655D01*
X198636272Y-111334255D01*
X198515396Y-111339250D01*
X197917673Y-111339250D01*
G37*
G36*
X198694219Y-109815708D02*
G01*
X198747265Y-109830125D01*
X198797741Y-109854254D01*
X198843100Y-109886800D01*
X198879712Y-109925431D01*
X198908383Y-109970696D01*
X198928073Y-110020802D01*
X198940834Y-110082188D01*
X198945447Y-110157176D01*
X198940857Y-110237930D01*
X198928424Y-110301282D01*
X198909726Y-110350494D01*
X198882004Y-110394875D01*
X198846221Y-110432945D01*
X198801527Y-110465227D01*
X198751632Y-110488945D01*
X198697382Y-110503342D01*
X198637762Y-110508275D01*
X198586001Y-110504336D01*
X198538270Y-110492797D01*
X198493842Y-110473776D01*
X198452993Y-110447665D01*
X198414366Y-110413488D01*
X198377765Y-110370278D01*
X198329980Y-110410347D01*
X198280862Y-110438238D01*
X198228168Y-110455389D01*
X198172357Y-110461136D01*
X198121296Y-110456837D01*
X198074078Y-110444199D01*
X198029903Y-110423217D01*
X197990306Y-110394642D01*
X197957141Y-110359480D01*
X197929946Y-110317033D01*
X197910463Y-110270263D01*
X197898411Y-110217992D01*
X197894665Y-110165358D01*
X198077896Y-110165358D01*
X198081464Y-110195491D01*
X198091721Y-110220983D01*
X198108732Y-110242905D01*
X198130868Y-110259631D01*
X198156777Y-110269772D01*
X198187561Y-110273313D01*
X198218318Y-110269640D01*
X198244850Y-110258992D01*
X198268161Y-110241195D01*
X198286215Y-110218104D01*
X198296955Y-110192011D01*
X198300646Y-110161939D01*
X198300160Y-110157848D01*
X198480408Y-110157848D01*
X198485240Y-110202255D01*
X198499169Y-110240516D01*
X198522174Y-110273985D01*
X198552480Y-110300627D01*
X198585262Y-110315973D01*
X198621703Y-110321124D01*
X198660101Y-110316144D01*
X198693754Y-110301545D01*
X198723919Y-110276733D01*
X198746668Y-110244892D01*
X198760713Y-110206556D01*
X198765684Y-110159924D01*
X198760959Y-110112656D01*
X198747752Y-110074491D01*
X198726666Y-110043481D01*
X198698187Y-110019426D01*
X198665036Y-110005051D01*
X198625733Y-110000067D01*
X198586497Y-110005153D01*
X198552421Y-110020012D01*
X198522174Y-110045190D01*
X198499177Y-110077348D01*
X198485251Y-110114429D01*
X198480408Y-110157848D01*
X198300160Y-110157848D01*
X198296962Y-110130960D01*
X198286380Y-110104811D01*
X198268833Y-110082376D01*
X198245953Y-110065349D01*
X198218819Y-110054949D01*
X198186218Y-110051297D01*
X198155527Y-110054954D01*
X198129860Y-110065426D01*
X198108060Y-110082743D01*
X198091606Y-110105302D01*
X198081476Y-110132415D01*
X198077896Y-110165358D01*
X197894665Y-110165358D01*
X197894226Y-110159191D01*
X197898453Y-110101361D01*
X197910622Y-110050033D01*
X197930312Y-110004158D01*
X197957735Y-109962607D01*
X197991651Y-109927599D01*
X198032650Y-109898584D01*
X198078086Y-109877084D01*
X198125335Y-109864294D01*
X198175105Y-109859993D01*
X198227305Y-109865116D01*
X198274756Y-109880143D01*
X198320406Y-109906443D01*
X198377765Y-109953599D01*
X198409860Y-109911171D01*
X198447051Y-109876207D01*
X198489751Y-109848087D01*
X198536524Y-109827417D01*
X198585631Y-109815027D01*
X198637762Y-109810839D01*
X198694219Y-109815708D01*
G37*
G36*
X203587507Y-111780673D02*
G01*
X203793099Y-111780673D01*
X203980311Y-112139221D01*
X204166119Y-111780673D01*
X204368962Y-111780673D01*
X204075260Y-112350064D01*
X204075260Y-112785000D01*
X203882614Y-112785000D01*
X203882614Y-112350064D01*
X203587507Y-111780673D01*
G37*
G36*
X204642209Y-111780673D02*
G01*
X204928462Y-111780673D01*
X204928462Y-112785000D01*
X204738563Y-112785000D01*
X204738563Y-111956528D01*
X204531567Y-111956528D01*
X204642209Y-111780673D01*
G37*
D12*
G36*
X207602784Y-76295673D02*
G01*
X207789996Y-76295673D01*
X208022210Y-76996161D01*
X208257904Y-76295673D01*
X208442369Y-76295673D01*
X208611751Y-77300000D01*
X208427287Y-77300000D01*
X208319393Y-76665701D01*
X208105558Y-77300000D01*
X207936847Y-77300000D01*
X207725760Y-76665701D01*
X207615790Y-77300000D01*
X207429311Y-77300000D01*
X207602784Y-76295673D01*
G37*
G36*
X209688679Y-76472871D02*
G01*
X209554773Y-76599633D01*
X209496231Y-76545868D01*
X209436815Y-76505816D01*
X209376038Y-76477984D01*
X209313193Y-76461446D01*
X209247393Y-76455896D01*
X209177067Y-76462231D01*
X209114038Y-76480649D01*
X209056858Y-76510986D01*
X209004494Y-76554021D01*
X208961196Y-76606097D01*
X208930697Y-76662993D01*
X208912186Y-76725747D01*
X208905820Y-76795821D01*
X208910889Y-76861381D01*
X208925577Y-76920249D01*
X208949539Y-76973569D01*
X208982659Y-77021578D01*
X209023615Y-77062030D01*
X209073187Y-77095507D01*
X209127951Y-77119930D01*
X209186842Y-77134726D01*
X209250813Y-77139776D01*
X209305701Y-77136215D01*
X209356268Y-77125820D01*
X209403159Y-77108818D01*
X209447024Y-77084853D01*
X209497200Y-77048212D01*
X209554773Y-76996039D01*
X209684588Y-77131106D01*
X209606989Y-77199782D01*
X209537226Y-77248818D01*
X209474173Y-77281498D01*
X209406925Y-77304311D01*
X209331957Y-77318509D01*
X209248065Y-77323447D01*
X209154753Y-77317113D01*
X209071048Y-77298823D01*
X208995503Y-77269204D01*
X208926936Y-77228286D01*
X208864482Y-77175497D01*
X208811099Y-77113428D01*
X208769817Y-77045453D01*
X208739996Y-76970732D01*
X208721609Y-76888100D01*
X208715249Y-76796127D01*
X208719702Y-76721697D01*
X208732686Y-76653066D01*
X208753866Y-76589442D01*
X208783210Y-76530146D01*
X208820475Y-76475297D01*
X208864965Y-76426025D01*
X208917183Y-76381973D01*
X208977871Y-76342995D01*
X209042642Y-76311962D01*
X209109373Y-76289948D01*
X209178569Y-76276695D01*
X209250813Y-76272226D01*
X209332583Y-76278014D01*
X209412136Y-76295329D01*
X209490232Y-76324433D01*
X209563470Y-76364150D01*
X209629408Y-76413454D01*
X209688679Y-76472871D01*
G37*
G36*
X209856413Y-76295673D02*
G01*
X210047655Y-76295673D01*
X210047655Y-77116329D01*
X210326397Y-77116329D01*
X210326397Y-77300000D01*
X209856413Y-77300000D01*
X209856413Y-76295673D01*
G37*
G36*
X210800289Y-76299907D02*
G01*
X210876301Y-76310595D01*
X210925097Y-76325165D01*
X210968934Y-76348964D01*
X211006646Y-76381287D01*
X211038853Y-76423046D01*
X211062359Y-76470371D01*
X211076855Y-76523900D01*
X211081901Y-76584979D01*
X211076241Y-76648968D01*
X211060188Y-76703114D01*
X211034396Y-76749293D01*
X210998847Y-76788504D01*
X210951890Y-76821856D01*
X210891331Y-76849249D01*
X211129040Y-77300000D01*
X210920029Y-77300000D01*
X210693860Y-76870132D01*
X210676153Y-76870132D01*
X210676153Y-77300000D01*
X210484850Y-77300000D01*
X210484850Y-76686461D01*
X210676153Y-76686461D01*
X210736237Y-76686461D01*
X210797661Y-76682975D01*
X210837628Y-76674278D01*
X210862266Y-76662404D01*
X210880787Y-76643767D01*
X210892461Y-76617972D01*
X210896765Y-76582536D01*
X210892380Y-76551285D01*
X210879668Y-76525078D01*
X210859794Y-76504163D01*
X210833934Y-76490029D01*
X210799261Y-76482675D01*
X210728726Y-76479344D01*
X210676153Y-76479344D01*
X210676153Y-76686461D01*
X210484850Y-76686461D01*
X210484850Y-76295673D01*
X210687754Y-76295673D01*
X210800289Y-76299907D01*
G37*
D13*
G36*
X170840597Y-115020673D02*
G01*
X171033915Y-115020673D01*
X171033915Y-115365300D01*
X171306490Y-115020673D01*
X171536689Y-115020673D01*
X171185590Y-115468126D01*
X171570822Y-116025000D01*
X171344043Y-116025000D01*
X171033915Y-115576692D01*
X171033915Y-116025000D01*
X170840597Y-116025000D01*
X170840597Y-115020673D01*
G37*
G36*
X171822209Y-115020673D02*
G01*
X172108462Y-115020673D01*
X172108462Y-116025000D01*
X171918563Y-116025000D01*
X171918563Y-115196528D01*
X171711567Y-115196528D01*
X171822209Y-115020673D01*
G37*
G36*
X168924599Y-85818538D02*
G01*
X169078130Y-85818538D01*
X169078130Y-86337799D01*
X169081702Y-86399932D01*
X169089853Y-86432760D01*
X169105324Y-86457628D01*
X169128688Y-86477212D01*
X169157782Y-86489471D01*
X169193999Y-86493821D01*
X169232321Y-86489009D01*
X169263657Y-86475307D01*
X169288703Y-86453872D01*
X169304103Y-86428120D01*
X169311798Y-86392951D01*
X169315338Y-86318748D01*
X169315338Y-85818538D01*
X169468870Y-85818538D01*
X169468870Y-86296717D01*
X169464628Y-86408536D01*
X169455192Y-86464658D01*
X169435906Y-86509739D01*
X169403022Y-86555175D01*
X169375667Y-86582047D01*
X169346145Y-86603456D01*
X169314215Y-86619801D01*
X169261340Y-86635247D01*
X169197271Y-86640757D01*
X169140123Y-86636074D01*
X169089788Y-86622594D01*
X169045059Y-86600702D01*
X169005094Y-86570914D01*
X168974601Y-86537577D01*
X168952442Y-86500367D01*
X168938675Y-86458587D01*
X168928595Y-86393417D01*
X168924599Y-86296717D01*
X168924599Y-85818538D01*
G37*
G36*
X169750042Y-86081148D02*
G01*
X169600858Y-86081148D01*
X169608798Y-86016264D01*
X169625390Y-85961312D01*
X169649967Y-85914631D01*
X169682533Y-85874958D01*
X169722607Y-85842372D01*
X169767644Y-85819092D01*
X169818615Y-85804765D01*
X169876853Y-85799780D01*
X169924872Y-85803378D01*
X169967652Y-85813758D01*
X170006057Y-85830604D01*
X170040745Y-85854044D01*
X170070504Y-85883488D01*
X170095694Y-85919557D01*
X170114680Y-85959346D01*
X170125688Y-85998527D01*
X170129302Y-86037673D01*
X170125136Y-86084525D01*
X170111997Y-86135518D01*
X170088562Y-86191595D01*
X170057752Y-86244193D01*
X170009607Y-86308373D01*
X169939672Y-86386354D01*
X169849498Y-86481316D01*
X170135848Y-86481316D01*
X170135848Y-86622000D01*
X169578974Y-86622000D01*
X169578974Y-86549020D01*
X169827662Y-86296424D01*
X169886697Y-86233342D01*
X169924978Y-86185643D01*
X169947586Y-86150220D01*
X169964941Y-86112451D01*
X169974436Y-86079454D01*
X169977383Y-86050325D01*
X169973828Y-86020754D01*
X169963578Y-85995600D01*
X169946511Y-85973828D01*
X169924315Y-85957228D01*
X169898184Y-85947127D01*
X169866985Y-85943591D01*
X169835846Y-85947753D01*
X169808888Y-85959922D01*
X169785017Y-85980618D01*
X169767153Y-86007041D01*
X169755309Y-86039992D01*
X169750042Y-86081148D01*
G37*
D12*
G36*
X207245101Y-85439954D02*
G01*
X207321369Y-85450840D01*
X207371455Y-85465837D01*
X207416646Y-85490111D01*
X207454651Y-85522375D01*
X207486249Y-85563351D01*
X207509107Y-85609963D01*
X207523293Y-85663338D01*
X207528259Y-85724918D01*
X207521742Y-85792572D01*
X207503216Y-85849689D01*
X207473243Y-85898391D01*
X207432879Y-85939249D01*
X207383638Y-85971244D01*
X207324010Y-85994562D01*
X207257393Y-86005281D01*
X207122510Y-86010132D01*
X207122510Y-86440000D01*
X206931207Y-86440000D01*
X206931207Y-85826461D01*
X207122510Y-85826461D01*
X207183327Y-85826461D01*
X207249540Y-85823270D01*
X207282978Y-85816142D01*
X207308125Y-85802378D01*
X207327064Y-85782070D01*
X207338942Y-85756415D01*
X207343122Y-85724612D01*
X207337807Y-85688170D01*
X207322904Y-85660466D01*
X207298060Y-85639310D01*
X207274829Y-85629553D01*
X207236362Y-85622282D01*
X207176488Y-85619344D01*
X207122510Y-85619344D01*
X207122510Y-85826461D01*
X206931207Y-85826461D01*
X206931207Y-85435673D01*
X207134112Y-85435673D01*
X207245101Y-85439954D01*
G37*
G36*
X208043855Y-85439907D02*
G01*
X208119867Y-85450595D01*
X208168663Y-85465165D01*
X208212500Y-85488964D01*
X208250212Y-85521287D01*
X208282419Y-85563046D01*
X208305925Y-85610371D01*
X208320421Y-85663900D01*
X208325467Y-85724979D01*
X208319807Y-85788968D01*
X208303754Y-85843114D01*
X208277962Y-85889293D01*
X208242413Y-85928504D01*
X208195456Y-85961856D01*
X208134897Y-85989249D01*
X208372606Y-86440000D01*
X208163595Y-86440000D01*
X207937426Y-86010132D01*
X207919719Y-86010132D01*
X207919719Y-86440000D01*
X207728416Y-86440000D01*
X207728416Y-85826461D01*
X207919719Y-85826461D01*
X207979803Y-85826461D01*
X208041227Y-85822975D01*
X208081194Y-85814278D01*
X208105832Y-85802404D01*
X208124352Y-85783767D01*
X208136027Y-85757972D01*
X208140331Y-85722536D01*
X208135946Y-85691285D01*
X208123234Y-85665078D01*
X208103360Y-85644163D01*
X208077500Y-85630029D01*
X208042827Y-85622675D01*
X207972292Y-85619344D01*
X207919719Y-85619344D01*
X207919719Y-85826461D01*
X207728416Y-85826461D01*
X207728416Y-85435673D01*
X207931320Y-85435673D01*
X208043855Y-85439907D01*
G37*
G36*
X209085644Y-85418484D02*
G01*
X209163072Y-85436847D01*
X209235482Y-85467155D01*
X209303771Y-85509868D01*
X209368567Y-85566038D01*
X209424210Y-85630811D01*
X209466758Y-85699862D01*
X209497122Y-85773874D01*
X209515619Y-85853817D01*
X209521952Y-85940889D01*
X209515694Y-86027214D01*
X209497426Y-86106383D01*
X209467457Y-86179594D01*
X209425491Y-86247808D01*
X209370643Y-86311711D01*
X209306823Y-86366862D01*
X209238984Y-86408964D01*
X209166468Y-86438961D01*
X209088336Y-86457207D01*
X209003424Y-86463447D01*
X208914152Y-86456931D01*
X208833158Y-86437994D01*
X208759089Y-86407063D01*
X208690860Y-86363901D01*
X208627718Y-86307620D01*
X208573227Y-86242058D01*
X208531677Y-86173004D01*
X208502138Y-86099833D01*
X208484224Y-86021677D01*
X208478296Y-85939912D01*
X208670766Y-85939912D01*
X208675866Y-86005850D01*
X208690537Y-86064068D01*
X208714299Y-86115868D01*
X208747303Y-86162256D01*
X208790322Y-86203878D01*
X208838808Y-86237277D01*
X208890002Y-86260790D01*
X208944583Y-86274959D01*
X209003424Y-86279776D01*
X209069411Y-86273519D01*
X209129175Y-86255214D01*
X209184066Y-86224813D01*
X209235028Y-86181285D01*
X209276853Y-86129192D01*
X209306436Y-86072123D01*
X209324445Y-86009040D01*
X209330649Y-85938508D01*
X209324429Y-85868384D01*
X209306334Y-85805361D01*
X209276533Y-85748045D01*
X209234295Y-85695425D01*
X209182966Y-85651479D01*
X209127522Y-85620756D01*
X209066998Y-85602235D01*
X209000005Y-85595896D01*
X208932156Y-85602150D01*
X208871377Y-85620343D01*
X208816233Y-85650357D01*
X208765715Y-85693044D01*
X208724510Y-85744362D01*
X208695107Y-85801745D01*
X208677040Y-85866386D01*
X208670766Y-85939912D01*
X208478296Y-85939912D01*
X208478119Y-85937470D01*
X208482561Y-85866452D01*
X208495672Y-85799191D01*
X208517350Y-85735056D01*
X208547789Y-85673504D01*
X208585971Y-85616320D01*
X208630384Y-85565737D01*
X208681349Y-85521281D01*
X208739398Y-85482690D01*
X208801814Y-85451748D01*
X208866048Y-85429839D01*
X208932608Y-85416665D01*
X209002081Y-85412226D01*
X209085644Y-85418484D01*
G37*
G36*
X210630265Y-85600048D02*
G01*
X210495687Y-85732245D01*
X210441106Y-85681733D01*
X210384627Y-85643809D01*
X210325768Y-85617225D01*
X210263808Y-85601287D01*
X210197833Y-85595896D01*
X210125377Y-85602282D01*
X210060781Y-85620795D01*
X210002539Y-85651170D01*
X209949560Y-85694082D01*
X209905416Y-85746337D01*
X209874512Y-85802805D01*
X209855865Y-85864463D01*
X209849482Y-85932707D01*
X209856108Y-86003284D01*
X209875454Y-86066941D01*
X209907505Y-86125140D01*
X209953285Y-86178904D01*
X210008221Y-86223018D01*
X210068431Y-86254227D01*
X210135017Y-86273229D01*
X210209495Y-86279776D01*
X210274462Y-86274884D01*
X210329561Y-86261064D01*
X210376497Y-86239110D01*
X210417748Y-86207978D01*
X210454259Y-86166125D01*
X210486162Y-86111737D01*
X210195146Y-86111737D01*
X210195146Y-85931974D01*
X210700668Y-85931974D01*
X210702011Y-85974045D01*
X210694471Y-86059602D01*
X210671899Y-86142023D01*
X210633684Y-86222501D01*
X210582767Y-86295672D01*
X210523957Y-86354939D01*
X210456730Y-86401714D01*
X210382088Y-86435355D01*
X210297813Y-86456188D01*
X210201985Y-86463447D01*
X210124074Y-86459010D01*
X210052082Y-86446067D01*
X209985239Y-86424970D01*
X209922876Y-86395792D01*
X209864810Y-86358370D01*
X209813414Y-86314049D01*
X209768192Y-86262440D01*
X209728887Y-86202901D01*
X209697576Y-86138852D01*
X209675376Y-86072828D01*
X209662014Y-86004311D01*
X209657507Y-85932707D01*
X209662906Y-85854429D01*
X209678751Y-85781556D01*
X209704855Y-85713181D01*
X209741482Y-85648551D01*
X209789337Y-85587103D01*
X209855725Y-85524114D01*
X209928518Y-85475752D01*
X210008623Y-85440994D01*
X210097380Y-85419618D01*
X210196490Y-85412226D01*
X210282932Y-85417688D01*
X210364402Y-85433780D01*
X210441709Y-85460341D01*
X210502815Y-85492287D01*
X210565488Y-85538128D01*
X210630265Y-85600048D01*
G37*
G36*
X211206311Y-85439907D02*
G01*
X211282323Y-85450595D01*
X211331120Y-85465165D01*
X211374956Y-85488964D01*
X211412668Y-85521287D01*
X211444876Y-85563046D01*
X211468382Y-85610371D01*
X211482877Y-85663900D01*
X211487924Y-85724979D01*
X211482264Y-85788968D01*
X211466210Y-85843114D01*
X211440418Y-85889293D01*
X211404869Y-85928504D01*
X211357913Y-85961856D01*
X211297353Y-85989249D01*
X211535062Y-86440000D01*
X211326052Y-86440000D01*
X211099883Y-86010132D01*
X211082175Y-86010132D01*
X211082175Y-86440000D01*
X210890872Y-86440000D01*
X210890872Y-85826461D01*
X211082175Y-85826461D01*
X211142259Y-85826461D01*
X211203683Y-85822975D01*
X211243650Y-85814278D01*
X211268288Y-85802404D01*
X211286809Y-85783767D01*
X211298483Y-85757972D01*
X211302788Y-85722536D01*
X211298403Y-85691285D01*
X211285691Y-85665078D01*
X211265817Y-85644163D01*
X211239956Y-85630029D01*
X211205284Y-85622675D01*
X211134748Y-85619344D01*
X211082175Y-85619344D01*
X211082175Y-85826461D01*
X210890872Y-85826461D01*
X210890872Y-85435673D01*
X211093777Y-85435673D01*
X211206311Y-85439907D01*
G37*
G36*
X212576453Y-86440000D02*
G01*
X212377639Y-86440000D01*
X212299115Y-86232882D01*
X211889215Y-86232882D01*
X211807271Y-86440000D01*
X211608457Y-86440000D01*
X211759185Y-86049211D01*
X211960289Y-86049211D01*
X212227369Y-86049211D01*
X212094195Y-85702997D01*
X211960289Y-86049211D01*
X211759185Y-86049211D01*
X211995827Y-85435673D01*
X212189816Y-85435673D01*
X212576453Y-86440000D01*
G37*
G36*
X212822344Y-85435673D02*
G01*
X213009557Y-85435673D01*
X213241770Y-86136161D01*
X213477465Y-85435673D01*
X213661929Y-85435673D01*
X213831312Y-86440000D01*
X213646847Y-86440000D01*
X213538953Y-85805701D01*
X213325118Y-86440000D01*
X213156408Y-86440000D01*
X212945321Y-85805701D01*
X212835350Y-86440000D01*
X212648871Y-86440000D01*
X212822344Y-85435673D01*
G37*
G36*
X214871359Y-86440000D02*
G01*
X214672545Y-86440000D01*
X214594021Y-86232882D01*
X214184120Y-86232882D01*
X214102177Y-86440000D01*
X213903363Y-86440000D01*
X214054090Y-86049211D01*
X214255195Y-86049211D01*
X214522275Y-86049211D01*
X214389101Y-85702997D01*
X214255195Y-86049211D01*
X214054090Y-86049211D01*
X214290732Y-85435673D01*
X214484722Y-85435673D01*
X214871359Y-86440000D01*
G37*
G36*
X215943829Y-85612871D02*
G01*
X215809923Y-85739633D01*
X215751381Y-85685868D01*
X215691965Y-85645816D01*
X215631188Y-85617984D01*
X215568343Y-85601446D01*
X215502543Y-85595896D01*
X215432217Y-85602231D01*
X215369188Y-85620649D01*
X215312008Y-85650986D01*
X215259644Y-85694021D01*
X215216346Y-85746097D01*
X215185847Y-85802993D01*
X215167336Y-85865747D01*
X215160970Y-85935821D01*
X215166039Y-86001381D01*
X215180727Y-86060249D01*
X215204689Y-86113569D01*
X215237809Y-86161578D01*
X215278765Y-86202030D01*
X215328337Y-86235507D01*
X215383101Y-86259930D01*
X215441992Y-86274726D01*
X215505963Y-86279776D01*
X215560851Y-86276215D01*
X215611418Y-86265820D01*
X215658309Y-86248818D01*
X215702174Y-86224853D01*
X215752350Y-86188212D01*
X215809923Y-86136039D01*
X215939738Y-86271106D01*
X215862139Y-86339782D01*
X215792376Y-86388818D01*
X215729323Y-86421498D01*
X215662075Y-86444311D01*
X215587107Y-86458509D01*
X215503215Y-86463447D01*
X215409903Y-86457113D01*
X215326198Y-86438823D01*
X215250653Y-86409204D01*
X215182086Y-86368286D01*
X215119632Y-86315497D01*
X215066249Y-86253428D01*
X215024967Y-86185453D01*
X214995146Y-86110732D01*
X214976759Y-86028100D01*
X214970399Y-85936127D01*
X214974852Y-85861697D01*
X214987836Y-85793066D01*
X215009016Y-85729442D01*
X215038360Y-85670146D01*
X215075625Y-85615297D01*
X215120115Y-85566025D01*
X215172333Y-85521973D01*
X215233021Y-85482995D01*
X215297792Y-85451962D01*
X215364523Y-85429948D01*
X215433719Y-85416695D01*
X215505963Y-85412226D01*
X215587733Y-85418014D01*
X215667286Y-85435329D01*
X215745382Y-85464433D01*
X215818620Y-85504150D01*
X215884558Y-85553454D01*
X215943829Y-85612871D01*
G37*
G36*
X216097885Y-85435673D02*
G01*
X216287784Y-85435673D01*
X216287784Y-86440000D01*
X216097885Y-86440000D01*
X216097885Y-85435673D01*
G37*
G36*
X217060661Y-85418484D02*
G01*
X217138090Y-85436847D01*
X217210500Y-85467155D01*
X217278789Y-85509868D01*
X217343585Y-85566038D01*
X217399228Y-85630811D01*
X217441775Y-85699862D01*
X217472139Y-85773874D01*
X217490636Y-85853817D01*
X217496969Y-85940889D01*
X217490711Y-86027214D01*
X217472443Y-86106383D01*
X217442474Y-86179594D01*
X217400508Y-86247808D01*
X217345661Y-86311711D01*
X217281840Y-86366862D01*
X217214002Y-86408964D01*
X217141485Y-86438961D01*
X217063354Y-86457207D01*
X216978442Y-86463447D01*
X216889170Y-86456931D01*
X216808175Y-86437994D01*
X216734106Y-86407063D01*
X216665878Y-86363901D01*
X216602735Y-86307620D01*
X216548245Y-86242058D01*
X216506695Y-86173004D01*
X216477155Y-86099833D01*
X216459242Y-86021677D01*
X216453313Y-85939912D01*
X216645783Y-85939912D01*
X216650883Y-86005850D01*
X216665555Y-86064068D01*
X216689316Y-86115868D01*
X216722320Y-86162256D01*
X216765340Y-86203878D01*
X216813826Y-86237277D01*
X216865020Y-86260790D01*
X216919600Y-86274959D01*
X216978442Y-86279776D01*
X217044429Y-86273519D01*
X217104192Y-86255214D01*
X217159084Y-86224813D01*
X217210045Y-86181285D01*
X217251870Y-86129192D01*
X217281453Y-86072123D01*
X217299462Y-86009040D01*
X217305666Y-85938508D01*
X217299447Y-85868384D01*
X217281352Y-85805361D01*
X217251550Y-85748045D01*
X217209312Y-85695425D01*
X217157984Y-85651479D01*
X217102540Y-85620756D01*
X217042015Y-85602235D01*
X216975022Y-85595896D01*
X216907174Y-85602150D01*
X216846394Y-85620343D01*
X216791251Y-85650357D01*
X216740732Y-85693044D01*
X216699528Y-85744362D01*
X216670125Y-85801745D01*
X216652058Y-85866386D01*
X216645783Y-85939912D01*
X216453313Y-85939912D01*
X216453136Y-85937470D01*
X216457578Y-85866452D01*
X216470689Y-85799191D01*
X216492368Y-85735056D01*
X216522807Y-85673504D01*
X216560988Y-85616320D01*
X216605402Y-85565737D01*
X216656366Y-85521281D01*
X216714415Y-85482690D01*
X216776831Y-85451748D01*
X216841065Y-85429839D01*
X216907626Y-85416665D01*
X216977098Y-85412226D01*
X217060661Y-85418484D01*
G37*
G36*
X216978503Y-85357515D02*
G01*
X216844597Y-85357515D01*
X217007873Y-85087871D01*
X217228485Y-85087871D01*
X216978503Y-85357515D01*
G37*
D13*
G36*
X191678249Y-84170673D02*
G01*
X191870163Y-84170673D01*
X191870163Y-84819748D01*
X191874628Y-84897415D01*
X191884817Y-84938450D01*
X191904155Y-84969535D01*
X191933360Y-84994016D01*
X191969727Y-85009339D01*
X192014999Y-85014776D01*
X192062901Y-85008761D01*
X192102071Y-84991634D01*
X192133380Y-84964840D01*
X192152630Y-84932650D01*
X192162248Y-84888689D01*
X192166673Y-84795935D01*
X192166673Y-84170673D01*
X192358587Y-84170673D01*
X192358587Y-84768396D01*
X192353286Y-84908170D01*
X192341490Y-84978323D01*
X192317382Y-85034674D01*
X192276277Y-85091468D01*
X192242084Y-85125058D01*
X192205182Y-85151820D01*
X192165269Y-85172252D01*
X192099175Y-85191559D01*
X192019090Y-85198447D01*
X191947654Y-85192592D01*
X191884736Y-85175742D01*
X191828825Y-85148377D01*
X191778867Y-85111142D01*
X191740752Y-85069471D01*
X191713053Y-85022958D01*
X191695844Y-84970733D01*
X191683244Y-84889272D01*
X191678249Y-84768396D01*
X191678249Y-84170673D01*
G37*
G36*
X193120625Y-84792027D02*
G01*
X193210079Y-84792027D01*
X193210079Y-84967882D01*
X193120625Y-84967882D01*
X193120625Y-85175000D01*
X192933413Y-85175000D01*
X192933413Y-84967882D01*
X192494875Y-84967882D01*
X192494875Y-84792027D01*
X192703886Y-84792027D01*
X192933413Y-84792027D01*
X192933413Y-84456376D01*
X192703886Y-84792027D01*
X192494875Y-84792027D01*
X192494875Y-84791599D01*
X192929322Y-84147226D01*
X193120625Y-84147226D01*
X193120625Y-84792027D01*
G37*
G36*
X158471716Y-93700673D02*
G01*
X158757969Y-93700673D01*
X158757969Y-94705000D01*
X158568070Y-94705000D01*
X158568070Y-93876528D01*
X158361074Y-93876528D01*
X158471716Y-93700673D01*
G37*
G36*
X159268925Y-94028935D02*
G01*
X159082446Y-94028935D01*
X159092371Y-93947830D01*
X159113111Y-93879140D01*
X159143832Y-93820788D01*
X159184539Y-93771198D01*
X159234632Y-93730465D01*
X159290928Y-93701366D01*
X159354642Y-93683457D01*
X159427439Y-93677226D01*
X159487462Y-93681723D01*
X159540938Y-93694698D01*
X159588944Y-93715755D01*
X159632304Y-93745056D01*
X159669503Y-93781860D01*
X159700991Y-93826946D01*
X159724723Y-93876682D01*
X159738482Y-93925659D01*
X159743000Y-93974591D01*
X159737793Y-94033156D01*
X159721369Y-94096898D01*
X159692076Y-94166994D01*
X159653563Y-94232741D01*
X159593381Y-94312967D01*
X159505963Y-94410443D01*
X159393245Y-94529145D01*
X159751183Y-94529145D01*
X159751183Y-94705000D01*
X159055090Y-94705000D01*
X159055090Y-94613775D01*
X159365951Y-94298030D01*
X159439744Y-94219178D01*
X159487595Y-94159554D01*
X159515855Y-94115275D01*
X159537549Y-94068064D01*
X159549418Y-94026817D01*
X159553102Y-93990406D01*
X159548658Y-93953442D01*
X159535845Y-93922000D01*
X159514511Y-93894785D01*
X159486766Y-93874035D01*
X159454103Y-93861409D01*
X159415104Y-93856988D01*
X159376180Y-93862191D01*
X159342482Y-93877402D01*
X159312645Y-93903272D01*
X159290314Y-93936301D01*
X159275509Y-93977491D01*
X159268925Y-94028935D01*
G37*
G36*
X159846865Y-93700673D02*
G01*
X160043602Y-93700673D01*
X160296333Y-94414167D01*
X160552482Y-93700673D01*
X160749220Y-93700673D01*
X160387191Y-94705000D01*
X160202727Y-94705000D01*
X159846865Y-93700673D01*
G37*
G36*
X223580428Y-85145985D02*
G01*
X223653152Y-85158442D01*
X223710266Y-85179531D01*
X223757591Y-85209152D01*
X223796584Y-85247468D01*
X223826106Y-85293218D01*
X223843817Y-85343840D01*
X223849890Y-85400792D01*
X223843701Y-85456206D01*
X223825649Y-85505205D01*
X223795109Y-85549140D01*
X223746758Y-85593133D01*
X223804764Y-85625789D01*
X223848614Y-85661581D01*
X223880603Y-85700478D01*
X223903790Y-85745092D01*
X223918032Y-85795402D01*
X223922979Y-85852702D01*
X223918047Y-85907776D01*
X223903511Y-85958799D01*
X223879260Y-86006697D01*
X223846852Y-86049629D01*
X223809425Y-86084003D01*
X223766542Y-86110622D01*
X223719175Y-86128503D01*
X223656863Y-86140523D01*
X223575971Y-86145000D01*
X223294543Y-86145000D01*
X223294543Y-85961329D01*
X223485785Y-85961329D01*
X223533595Y-85961329D01*
X223613576Y-85956943D01*
X223663995Y-85946158D01*
X223693758Y-85931714D01*
X223716533Y-85909205D01*
X223730246Y-85881053D01*
X223735096Y-85845436D01*
X223729531Y-85805166D01*
X223713540Y-85772070D01*
X223686613Y-85744380D01*
X223651983Y-85725570D01*
X223600256Y-85712425D01*
X223525413Y-85707316D01*
X223485785Y-85707316D01*
X223485785Y-85961329D01*
X223294543Y-85961329D01*
X223294543Y-85535369D01*
X223485785Y-85535369D01*
X223527428Y-85535369D01*
X223573073Y-85531555D01*
X223606608Y-85521399D01*
X223630926Y-85506121D01*
X223649513Y-85484572D01*
X223660785Y-85458475D01*
X223664754Y-85426437D01*
X223661003Y-85396611D01*
X223650319Y-85372206D01*
X223632636Y-85351943D01*
X223609571Y-85337512D01*
X223577897Y-85327935D01*
X223534939Y-85324344D01*
X223485785Y-85324344D01*
X223485785Y-85535369D01*
X223294543Y-85535369D01*
X223294543Y-85140673D01*
X223452324Y-85140673D01*
X223580428Y-85145985D01*
G37*
G36*
X224664716Y-85123484D02*
G01*
X224742144Y-85141847D01*
X224814554Y-85172155D01*
X224882843Y-85214868D01*
X224947639Y-85271038D01*
X225003282Y-85335811D01*
X225045829Y-85404862D01*
X225076194Y-85478874D01*
X225094691Y-85558817D01*
X225101024Y-85645889D01*
X225094766Y-85732214D01*
X225076498Y-85811383D01*
X225046529Y-85884594D01*
X225004563Y-85952808D01*
X224949715Y-86016711D01*
X224885895Y-86071862D01*
X224818056Y-86113964D01*
X224745540Y-86143961D01*
X224667408Y-86162207D01*
X224582496Y-86168447D01*
X224493224Y-86161931D01*
X224412230Y-86142994D01*
X224338160Y-86112063D01*
X224269932Y-86068901D01*
X224206790Y-86012620D01*
X224152299Y-85947058D01*
X224110749Y-85878004D01*
X224081209Y-85804833D01*
X224063296Y-85726677D01*
X224057368Y-85644912D01*
X224249837Y-85644912D01*
X224254938Y-85710850D01*
X224269609Y-85769068D01*
X224293371Y-85820868D01*
X224326375Y-85867256D01*
X224369394Y-85908878D01*
X224417880Y-85942277D01*
X224469074Y-85965790D01*
X224523655Y-85979959D01*
X224582496Y-85984776D01*
X224648483Y-85978519D01*
X224708247Y-85960214D01*
X224763138Y-85929813D01*
X224814100Y-85886285D01*
X224855925Y-85834192D01*
X224885508Y-85777123D01*
X224903517Y-85714040D01*
X224909721Y-85643508D01*
X224903501Y-85573384D01*
X224885406Y-85510361D01*
X224855604Y-85453045D01*
X224813367Y-85400425D01*
X224762038Y-85356479D01*
X224706594Y-85325756D01*
X224646070Y-85307235D01*
X224579077Y-85300896D01*
X224511228Y-85307150D01*
X224450449Y-85325343D01*
X224395305Y-85355357D01*
X224344787Y-85398044D01*
X224303582Y-85449362D01*
X224274179Y-85506745D01*
X224256112Y-85571386D01*
X224249837Y-85644912D01*
X224057368Y-85644912D01*
X224057191Y-85642470D01*
X224061633Y-85571452D01*
X224074744Y-85504191D01*
X224096422Y-85440056D01*
X224126861Y-85378504D01*
X224165043Y-85321320D01*
X224209456Y-85270737D01*
X224260421Y-85226281D01*
X224318470Y-85187690D01*
X224380886Y-85156748D01*
X224445120Y-85134839D01*
X224511680Y-85121665D01*
X224581153Y-85117226D01*
X224664716Y-85123484D01*
G37*
G36*
X225182601Y-85140673D02*
G01*
X225738009Y-85140673D01*
X225738009Y-85324344D01*
X225554949Y-85324344D01*
X225554949Y-86145000D01*
X225360898Y-86145000D01*
X225360898Y-85324344D01*
X225182601Y-85324344D01*
X225182601Y-85140673D01*
G37*
G36*
X226427172Y-85123484D02*
G01*
X226504600Y-85141847D01*
X226577011Y-85172155D01*
X226645300Y-85214868D01*
X226710096Y-85271038D01*
X226765739Y-85335811D01*
X226808286Y-85404862D01*
X226838650Y-85478874D01*
X226857147Y-85558817D01*
X226863480Y-85645889D01*
X226857222Y-85732214D01*
X226838954Y-85811383D01*
X226808985Y-85884594D01*
X226767019Y-85952808D01*
X226712172Y-86016711D01*
X226648351Y-86071862D01*
X226580513Y-86113964D01*
X226507996Y-86143961D01*
X226429865Y-86162207D01*
X226344953Y-86168447D01*
X226255680Y-86161931D01*
X226174686Y-86142994D01*
X226100617Y-86112063D01*
X226032389Y-86068901D01*
X225969246Y-86012620D01*
X225914756Y-85947058D01*
X225873206Y-85878004D01*
X225843666Y-85804833D01*
X225825753Y-85726677D01*
X225819824Y-85644912D01*
X226012294Y-85644912D01*
X226017394Y-85710850D01*
X226032066Y-85769068D01*
X226055827Y-85820868D01*
X226088831Y-85867256D01*
X226131851Y-85908878D01*
X226180337Y-85942277D01*
X226231531Y-85965790D01*
X226286111Y-85979959D01*
X226344953Y-85984776D01*
X226410939Y-85978519D01*
X226470703Y-85960214D01*
X226525595Y-85929813D01*
X226576556Y-85886285D01*
X226618381Y-85834192D01*
X226647964Y-85777123D01*
X226665973Y-85714040D01*
X226672177Y-85643508D01*
X226665958Y-85573384D01*
X226647863Y-85510361D01*
X226618061Y-85453045D01*
X226575823Y-85400425D01*
X226524495Y-85356479D01*
X226469051Y-85325756D01*
X226408526Y-85307235D01*
X226341533Y-85300896D01*
X226273685Y-85307150D01*
X226212905Y-85325343D01*
X226157762Y-85355357D01*
X226107243Y-85398044D01*
X226066039Y-85449362D01*
X226036635Y-85506745D01*
X226018568Y-85571386D01*
X226012294Y-85644912D01*
X225819824Y-85644912D01*
X225819647Y-85642470D01*
X225824089Y-85571452D01*
X225837200Y-85504191D01*
X225858879Y-85440056D01*
X225889318Y-85378504D01*
X225927499Y-85321320D01*
X225971913Y-85270737D01*
X226022877Y-85226281D01*
X226080926Y-85187690D01*
X226143342Y-85156748D01*
X226207576Y-85134839D01*
X226274136Y-85121665D01*
X226343609Y-85117226D01*
X226427172Y-85123484D01*
G37*
G36*
X227044830Y-85140673D02*
G01*
X227227891Y-85140673D01*
X227658918Y-85801594D01*
X227658918Y-85140673D01*
X227850221Y-85140673D01*
X227850221Y-86145000D01*
X227666429Y-86145000D01*
X227236073Y-85486154D01*
X227236073Y-86145000D01*
X227044830Y-86145000D01*
X227044830Y-85140673D01*
G37*
G36*
X228080420Y-85140673D02*
G01*
X228628929Y-85140673D01*
X228628929Y-85324344D01*
X228270319Y-85324344D01*
X228270319Y-85508014D01*
X228628929Y-85508014D01*
X228628929Y-85691685D01*
X228270319Y-85691685D01*
X228270319Y-85961329D01*
X228628929Y-85961329D01*
X228628929Y-86145000D01*
X228080420Y-86145000D01*
X228080420Y-85140673D01*
G37*
G36*
X229135976Y-85144907D02*
G01*
X229211988Y-85155595D01*
X229260785Y-85170165D01*
X229304621Y-85193964D01*
X229342333Y-85226287D01*
X229374541Y-85268046D01*
X229398047Y-85315371D01*
X229412543Y-85368900D01*
X229417589Y-85429979D01*
X229411929Y-85493968D01*
X229395875Y-85548114D01*
X229370083Y-85594293D01*
X229334534Y-85633504D01*
X229287578Y-85666856D01*
X229227018Y-85694249D01*
X229464728Y-86145000D01*
X229255717Y-86145000D01*
X229029548Y-85715132D01*
X229011840Y-85715132D01*
X229011840Y-86145000D01*
X228820537Y-86145000D01*
X228820537Y-85531461D01*
X229011840Y-85531461D01*
X229071924Y-85531461D01*
X229133348Y-85527975D01*
X229173315Y-85519278D01*
X229197953Y-85507404D01*
X229216474Y-85488767D01*
X229228149Y-85462972D01*
X229232453Y-85427536D01*
X229228068Y-85396285D01*
X229215356Y-85370078D01*
X229195482Y-85349163D01*
X229169621Y-85335029D01*
X229134949Y-85327675D01*
X229064414Y-85324344D01*
X229011840Y-85324344D01*
X229011840Y-85531461D01*
X228820537Y-85531461D01*
X228820537Y-85140673D01*
X229023442Y-85140673D01*
X229135976Y-85144907D01*
G37*
G36*
X230506118Y-86145000D02*
G01*
X230307304Y-86145000D01*
X230228780Y-85937882D01*
X229818880Y-85937882D01*
X229736936Y-86145000D01*
X229538123Y-86145000D01*
X229688850Y-85754211D01*
X229889954Y-85754211D01*
X230157034Y-85754211D01*
X230023861Y-85407997D01*
X229889954Y-85754211D01*
X229688850Y-85754211D01*
X229925492Y-85140673D01*
X230119482Y-85140673D01*
X230506118Y-86145000D01*
G37*
G36*
X203782109Y-124872871D02*
G01*
X203648203Y-124999633D01*
X203589661Y-124945868D01*
X203530245Y-124905816D01*
X203469468Y-124877984D01*
X203406623Y-124861446D01*
X203340823Y-124855896D01*
X203270497Y-124862231D01*
X203207468Y-124880649D01*
X203150288Y-124910986D01*
X203097924Y-124954021D01*
X203054625Y-125006097D01*
X203024127Y-125062993D01*
X203005616Y-125125747D01*
X202999250Y-125195821D01*
X203004319Y-125261381D01*
X203019007Y-125320249D01*
X203042969Y-125373569D01*
X203076089Y-125421578D01*
X203117045Y-125462030D01*
X203166617Y-125495507D01*
X203221381Y-125519930D01*
X203280272Y-125534726D01*
X203344243Y-125539776D01*
X203399131Y-125536215D01*
X203449698Y-125525820D01*
X203496589Y-125508818D01*
X203540454Y-125484853D01*
X203590630Y-125448212D01*
X203648203Y-125396039D01*
X203778018Y-125531106D01*
X203700418Y-125599782D01*
X203630656Y-125648818D01*
X203567603Y-125681498D01*
X203500355Y-125704311D01*
X203425387Y-125718509D01*
X203341495Y-125723447D01*
X203248183Y-125717113D01*
X203164478Y-125698823D01*
X203088933Y-125669204D01*
X203020366Y-125628286D01*
X202957911Y-125575497D01*
X202904529Y-125513428D01*
X202863247Y-125445453D01*
X202833426Y-125370732D01*
X202815039Y-125288100D01*
X202808679Y-125196127D01*
X202813132Y-125121697D01*
X202826116Y-125053066D01*
X202847296Y-124989442D01*
X202876640Y-124930146D01*
X202913905Y-124875297D01*
X202958395Y-124826025D01*
X203010612Y-124781973D01*
X203071301Y-124742995D01*
X203136072Y-124711962D01*
X203202802Y-124689948D01*
X203271999Y-124676695D01*
X203344243Y-124672226D01*
X203426013Y-124678014D01*
X203505566Y-124695329D01*
X203583662Y-124724433D01*
X203656900Y-124764150D01*
X203722838Y-124813454D01*
X203782109Y-124872871D01*
G37*
G36*
X204836505Y-125700000D02*
G01*
X204637692Y-125700000D01*
X204559168Y-125492882D01*
X204149267Y-125492882D01*
X204067323Y-125700000D01*
X203868510Y-125700000D01*
X204019237Y-125309211D01*
X204220342Y-125309211D01*
X204487421Y-125309211D01*
X204354248Y-124962997D01*
X204220342Y-125309211D01*
X204019237Y-125309211D01*
X204255879Y-124695673D01*
X204449869Y-124695673D01*
X204836505Y-125700000D01*
G37*
G36*
X204986104Y-124695673D02*
G01*
X205169164Y-124695673D01*
X205600192Y-125356594D01*
X205600192Y-124695673D01*
X205791495Y-124695673D01*
X205791495Y-125700000D01*
X205607702Y-125700000D01*
X205177346Y-125041154D01*
X205177346Y-125700000D01*
X204986104Y-125700000D01*
X204986104Y-124695673D01*
G37*
G36*
X158222292Y-105800673D02*
G01*
X158409504Y-105800673D01*
X158641718Y-106501161D01*
X158877412Y-105800673D01*
X159061877Y-105800673D01*
X159231259Y-106805000D01*
X159046795Y-106805000D01*
X158938901Y-106170701D01*
X158725066Y-106805000D01*
X158556355Y-106805000D01*
X158345268Y-106170701D01*
X158235298Y-106805000D01*
X158048819Y-106805000D01*
X158222292Y-105800673D01*
G37*
G36*
X159942954Y-105783484D02*
G01*
X160020382Y-105801847D01*
X160092792Y-105832155D01*
X160161081Y-105874868D01*
X160225877Y-105931038D01*
X160281520Y-105995811D01*
X160324067Y-106064862D01*
X160354432Y-106138874D01*
X160372929Y-106218817D01*
X160379262Y-106305889D01*
X160373004Y-106392214D01*
X160354736Y-106471383D01*
X160324767Y-106544594D01*
X160282801Y-106612808D01*
X160227953Y-106676711D01*
X160164132Y-106731862D01*
X160096294Y-106773964D01*
X160023778Y-106803961D01*
X159945646Y-106822207D01*
X159860734Y-106828447D01*
X159771462Y-106821931D01*
X159690468Y-106802994D01*
X159616398Y-106772063D01*
X159548170Y-106728901D01*
X159485028Y-106672620D01*
X159430537Y-106607058D01*
X159388987Y-106538004D01*
X159359447Y-106464833D01*
X159341534Y-106386677D01*
X159335606Y-106304912D01*
X159528075Y-106304912D01*
X159533176Y-106370850D01*
X159547847Y-106429068D01*
X159571609Y-106480868D01*
X159604612Y-106527256D01*
X159647632Y-106568878D01*
X159696118Y-106602277D01*
X159747312Y-106625790D01*
X159801893Y-106639959D01*
X159860734Y-106644776D01*
X159926721Y-106638519D01*
X159986484Y-106620214D01*
X160041376Y-106589813D01*
X160092337Y-106546285D01*
X160134163Y-106494192D01*
X160163746Y-106437123D01*
X160181755Y-106374040D01*
X160187958Y-106303508D01*
X160181739Y-106233384D01*
X160163644Y-106170361D01*
X160133842Y-106113045D01*
X160091605Y-106060425D01*
X160040276Y-106016479D01*
X159984832Y-105985756D01*
X159924308Y-105967235D01*
X159857315Y-105960896D01*
X159789466Y-105967150D01*
X159728687Y-105985343D01*
X159673543Y-106015357D01*
X159623025Y-106058044D01*
X159581820Y-106109362D01*
X159552417Y-106166745D01*
X159534350Y-106231386D01*
X159528075Y-106304912D01*
X159335606Y-106304912D01*
X159335429Y-106302470D01*
X159339871Y-106231452D01*
X159352981Y-106164191D01*
X159374660Y-106100056D01*
X159405099Y-106038504D01*
X159443281Y-105981320D01*
X159487694Y-105930737D01*
X159538659Y-105886281D01*
X159596708Y-105847690D01*
X159659124Y-105816748D01*
X159723358Y-105794839D01*
X159789918Y-105781665D01*
X159859391Y-105777226D01*
X159942954Y-105783484D01*
G37*
G36*
X160460839Y-105800673D02*
G01*
X161016247Y-105800673D01*
X161016247Y-105984344D01*
X160833187Y-105984344D01*
X160833187Y-106805000D01*
X160639136Y-106805000D01*
X160639136Y-105984344D01*
X160460839Y-105984344D01*
X160460839Y-105800673D01*
G37*
G36*
X161705410Y-105783484D02*
G01*
X161782838Y-105801847D01*
X161855249Y-105832155D01*
X161923537Y-105874868D01*
X161988334Y-105931038D01*
X162043976Y-105995811D01*
X162086524Y-106064862D01*
X162116888Y-106138874D01*
X162135385Y-106218817D01*
X162141718Y-106305889D01*
X162135460Y-106392214D01*
X162117192Y-106471383D01*
X162087223Y-106544594D01*
X162045257Y-106612808D01*
X161990410Y-106676711D01*
X161926589Y-106731862D01*
X161858750Y-106773964D01*
X161786234Y-106803961D01*
X161708102Y-106822207D01*
X161623191Y-106828447D01*
X161533918Y-106821931D01*
X161452924Y-106802994D01*
X161378855Y-106772063D01*
X161310627Y-106728901D01*
X161247484Y-106672620D01*
X161192993Y-106607058D01*
X161151443Y-106538004D01*
X161121904Y-106464833D01*
X161103991Y-106386677D01*
X161098062Y-106304912D01*
X161290532Y-106304912D01*
X161295632Y-106370850D01*
X161310304Y-106429068D01*
X161334065Y-106480868D01*
X161367069Y-106527256D01*
X161410089Y-106568878D01*
X161458575Y-106602277D01*
X161509769Y-106625790D01*
X161564349Y-106639959D01*
X161623191Y-106644776D01*
X161689177Y-106638519D01*
X161748941Y-106620214D01*
X161803833Y-106589813D01*
X161854794Y-106546285D01*
X161896619Y-106494192D01*
X161926202Y-106437123D01*
X161944211Y-106374040D01*
X161950415Y-106303508D01*
X161944196Y-106233384D01*
X161926101Y-106170361D01*
X161896299Y-106113045D01*
X161854061Y-106060425D01*
X161802732Y-106016479D01*
X161747289Y-105985756D01*
X161686764Y-105967235D01*
X161619771Y-105960896D01*
X161551922Y-105967150D01*
X161491143Y-105985343D01*
X161435999Y-106015357D01*
X161385481Y-106058044D01*
X161344277Y-106109362D01*
X161314873Y-106166745D01*
X161296806Y-106231386D01*
X161290532Y-106304912D01*
X161098062Y-106304912D01*
X161097885Y-106302470D01*
X161102327Y-106231452D01*
X161115438Y-106164191D01*
X161137117Y-106100056D01*
X161167555Y-106038504D01*
X161205737Y-105981320D01*
X161250151Y-105930737D01*
X161301115Y-105886281D01*
X161359164Y-105847690D01*
X161421580Y-105816748D01*
X161485814Y-105794839D01*
X161552374Y-105781665D01*
X161621847Y-105777226D01*
X161705410Y-105783484D01*
G37*
G36*
X162650781Y-105804907D02*
G01*
X162726793Y-105815595D01*
X162775589Y-105830165D01*
X162819426Y-105853964D01*
X162857138Y-105886287D01*
X162889345Y-105928046D01*
X162912851Y-105975371D01*
X162927347Y-106028900D01*
X162932393Y-106089979D01*
X162926733Y-106153968D01*
X162910680Y-106208114D01*
X162884888Y-106254293D01*
X162849339Y-106293504D01*
X162802382Y-106326856D01*
X162741823Y-106354249D01*
X162979532Y-106805000D01*
X162770521Y-106805000D01*
X162544352Y-106375132D01*
X162526645Y-106375132D01*
X162526645Y-106805000D01*
X162335342Y-106805000D01*
X162335342Y-106191461D01*
X162526645Y-106191461D01*
X162586729Y-106191461D01*
X162648153Y-106187975D01*
X162688120Y-106179278D01*
X162712758Y-106167404D01*
X162731279Y-106148767D01*
X162742953Y-106122972D01*
X162747257Y-106087536D01*
X162742872Y-106056285D01*
X162730160Y-106030078D01*
X162710286Y-106009163D01*
X162684426Y-105995029D01*
X162649753Y-105987675D01*
X162579218Y-105984344D01*
X162526645Y-105984344D01*
X162526645Y-106191461D01*
X162335342Y-106191461D01*
X162335342Y-105800673D01*
X162538246Y-105800673D01*
X162650781Y-105804907D01*
G37*
D12*
G36*
X215519569Y-76907953D02*
G01*
X215404103Y-77025251D01*
X215354049Y-76982981D01*
X215312270Y-76961344D01*
X215276364Y-76954909D01*
X215247273Y-76958529D01*
X215227210Y-76968159D01*
X215213746Y-76983285D01*
X215209441Y-77001132D01*
X215212164Y-77015285D01*
X215220676Y-77028670D01*
X215236631Y-77041259D01*
X215276364Y-77062986D01*
X215344691Y-77096936D01*
X215414920Y-77136184D01*
X215462603Y-77172087D01*
X215492946Y-77205013D01*
X215515155Y-77243431D01*
X215528612Y-77286107D01*
X215533246Y-77334157D01*
X215528590Y-77381922D01*
X215515034Y-77424594D01*
X215492587Y-77463261D01*
X215460462Y-77498654D01*
X215422440Y-77526637D01*
X215378115Y-77547115D01*
X215326292Y-77559989D01*
X215265434Y-77564539D01*
X215201955Y-77559149D01*
X215145361Y-77543540D01*
X215094376Y-77517997D01*
X215048057Y-77482057D01*
X215005865Y-77434541D01*
X215120598Y-77306618D01*
X215156249Y-77341496D01*
X215197412Y-77368900D01*
X215240973Y-77387246D01*
X215275692Y-77392592D01*
X215309958Y-77387902D01*
X215335104Y-77375006D01*
X215352326Y-77355424D01*
X215357636Y-77334340D01*
X215350813Y-77309777D01*
X215326888Y-77282597D01*
X215276364Y-77250992D01*
X215213471Y-77219851D01*
X215142058Y-77177451D01*
X215091832Y-77134092D01*
X215058614Y-77089697D01*
X215039508Y-77043543D01*
X215033159Y-76994293D01*
X215037415Y-76952152D01*
X215049923Y-76913765D01*
X215070857Y-76878228D01*
X215101120Y-76844938D01*
X215136759Y-76818255D01*
X215176998Y-76799024D01*
X215222705Y-76787117D01*
X215275020Y-76782962D01*
X215322529Y-76786579D01*
X215367776Y-76797317D01*
X215411308Y-76815263D01*
X215451505Y-76839733D01*
X215487482Y-76870458D01*
X215519569Y-76907953D01*
G37*
G36*
X215781824Y-77349605D02*
G01*
X215810176Y-77353123D01*
X215835164Y-77363429D01*
X215857662Y-77380868D01*
X215875195Y-77403269D01*
X215885564Y-77428251D01*
X215889108Y-77456706D01*
X215885573Y-77485174D01*
X215875210Y-77510306D01*
X215857662Y-77532971D01*
X215835143Y-77550593D01*
X215810155Y-77560992D01*
X215781824Y-77564539D01*
X215753532Y-77560995D01*
X215728542Y-77550598D01*
X215705987Y-77532971D01*
X215688476Y-77510310D01*
X215678131Y-77485178D01*
X215674602Y-77456706D01*
X215678140Y-77428247D01*
X215688490Y-77403265D01*
X215705987Y-77380868D01*
X215728521Y-77363423D01*
X215753511Y-77353120D01*
X215781824Y-77349605D01*
G37*
G36*
X216404563Y-76544954D02*
G01*
X216480832Y-76555840D01*
X216530917Y-76570837D01*
X216576109Y-76595111D01*
X216614114Y-76627375D01*
X216645711Y-76668351D01*
X216668569Y-76714963D01*
X216682756Y-76768338D01*
X216687721Y-76829918D01*
X216681205Y-76897572D01*
X216662679Y-76954689D01*
X216632705Y-77003391D01*
X216592341Y-77044249D01*
X216543101Y-77076244D01*
X216483473Y-77099562D01*
X216416855Y-77110281D01*
X216281973Y-77115132D01*
X216281973Y-77545000D01*
X216090669Y-77545000D01*
X216090669Y-76931461D01*
X216281973Y-76931461D01*
X216342789Y-76931461D01*
X216409002Y-76928270D01*
X216442440Y-76921142D01*
X216467588Y-76907378D01*
X216486526Y-76887070D01*
X216498405Y-76861415D01*
X216502585Y-76829612D01*
X216497270Y-76793170D01*
X216482366Y-76765466D01*
X216457522Y-76744310D01*
X216434291Y-76734553D01*
X216395825Y-76727282D01*
X216335950Y-76724344D01*
X216281973Y-76724344D01*
X216281973Y-76931461D01*
X216090669Y-76931461D01*
X216090669Y-76540673D01*
X216293574Y-76540673D01*
X216404563Y-76544954D01*
G37*
G36*
X217203317Y-76544907D02*
G01*
X217279329Y-76555595D01*
X217328126Y-76570165D01*
X217371962Y-76593964D01*
X217409675Y-76626287D01*
X217441882Y-76668046D01*
X217465388Y-76715371D01*
X217479884Y-76768900D01*
X217484930Y-76829979D01*
X217479270Y-76893968D01*
X217463216Y-76948114D01*
X217437424Y-76994293D01*
X217401875Y-77033504D01*
X217354919Y-77066856D01*
X217294359Y-77094249D01*
X217532069Y-77545000D01*
X217323058Y-77545000D01*
X217096889Y-77115132D01*
X217079181Y-77115132D01*
X217079181Y-77545000D01*
X216887878Y-77545000D01*
X216887878Y-76931461D01*
X217079181Y-76931461D01*
X217139265Y-76931461D01*
X217200689Y-76927975D01*
X217240656Y-76919278D01*
X217265294Y-76907404D01*
X217283815Y-76888767D01*
X217295490Y-76862972D01*
X217299794Y-76827536D01*
X217295409Y-76796285D01*
X217282697Y-76770078D01*
X217262823Y-76749163D01*
X217236962Y-76735029D01*
X217202290Y-76727675D01*
X217131755Y-76724344D01*
X217079181Y-76724344D01*
X217079181Y-76931461D01*
X216887878Y-76931461D01*
X216887878Y-76540673D01*
X217090783Y-76540673D01*
X217203317Y-76544907D01*
G37*
G36*
X218245106Y-76523484D02*
G01*
X218322535Y-76541847D01*
X218394945Y-76572155D01*
X218463234Y-76614868D01*
X218528030Y-76671038D01*
X218583673Y-76735811D01*
X218626220Y-76804862D01*
X218656584Y-76878874D01*
X218675081Y-76958817D01*
X218681414Y-77045889D01*
X218675157Y-77132214D01*
X218656888Y-77211383D01*
X218626919Y-77284594D01*
X218584953Y-77352808D01*
X218530106Y-77416711D01*
X218466285Y-77471862D01*
X218398447Y-77513964D01*
X218325930Y-77543961D01*
X218247799Y-77562207D01*
X218162887Y-77568447D01*
X218073615Y-77561931D01*
X217992620Y-77542994D01*
X217918551Y-77512063D01*
X217850323Y-77468901D01*
X217787180Y-77412620D01*
X217732690Y-77347058D01*
X217691140Y-77278004D01*
X217661600Y-77204833D01*
X217643687Y-77126677D01*
X217637759Y-77044912D01*
X217830228Y-77044912D01*
X217835328Y-77110850D01*
X217850000Y-77169068D01*
X217873761Y-77220868D01*
X217906765Y-77267256D01*
X217949785Y-77308878D01*
X217998271Y-77342277D01*
X218049465Y-77365790D01*
X218104045Y-77379959D01*
X218162887Y-77384776D01*
X218228874Y-77378519D01*
X218288637Y-77360214D01*
X218343529Y-77329813D01*
X218394490Y-77286285D01*
X218436315Y-77234192D01*
X218465898Y-77177123D01*
X218483907Y-77114040D01*
X218490111Y-77043508D01*
X218483892Y-76973384D01*
X218465797Y-76910361D01*
X218435995Y-76853045D01*
X218393757Y-76800425D01*
X218342429Y-76756479D01*
X218286985Y-76725756D01*
X218226460Y-76707235D01*
X218159467Y-76700896D01*
X218091619Y-76707150D01*
X218030840Y-76725343D01*
X217975696Y-76755357D01*
X217925177Y-76798044D01*
X217883973Y-76849362D01*
X217854570Y-76906745D01*
X217836503Y-76971386D01*
X217830228Y-77044912D01*
X217637759Y-77044912D01*
X217637582Y-77042470D01*
X217642023Y-76971452D01*
X217655134Y-76904191D01*
X217676813Y-76840056D01*
X217707252Y-76778504D01*
X217745433Y-76721320D01*
X217789847Y-76670737D01*
X217840811Y-76626281D01*
X217898860Y-76587690D01*
X217961276Y-76556748D01*
X218025510Y-76534839D01*
X218092071Y-76521665D01*
X218161543Y-76517226D01*
X218245106Y-76523484D01*
G37*
G36*
X218796514Y-76540673D02*
G01*
X219011692Y-76540673D01*
X219222901Y-76863135D01*
X219434537Y-76540673D01*
X219649715Y-76540673D01*
X219330673Y-77027693D01*
X219669499Y-77545000D01*
X219454321Y-77545000D01*
X219223084Y-77191946D01*
X218991847Y-77545000D01*
X218775326Y-77545000D01*
X219115190Y-77027205D01*
X218796514Y-76540673D01*
G37*
G36*
X219799986Y-76540673D02*
G01*
X219989884Y-76540673D01*
X219989884Y-77545000D01*
X219799986Y-77545000D01*
X219799986Y-76540673D01*
G37*
G36*
X220301416Y-76540673D02*
G01*
X220488628Y-76540673D01*
X220720842Y-77241161D01*
X220956537Y-76540673D01*
X221141001Y-76540673D01*
X221310383Y-77545000D01*
X221125919Y-77545000D01*
X221018025Y-76910701D01*
X220804190Y-77545000D01*
X220635479Y-77545000D01*
X220424392Y-76910701D01*
X220314422Y-77545000D01*
X220127943Y-77545000D01*
X220301416Y-76540673D01*
G37*
G36*
X221450090Y-76540673D02*
G01*
X221639989Y-76540673D01*
X221639989Y-77545000D01*
X221450090Y-77545000D01*
X221450090Y-76540673D01*
G37*
G36*
X221755455Y-76540673D02*
G01*
X222310863Y-76540673D01*
X222310863Y-76724344D01*
X222127803Y-76724344D01*
X222127803Y-77545000D01*
X221933752Y-77545000D01*
X221933752Y-76724344D01*
X221755455Y-76724344D01*
X221755455Y-76540673D01*
G37*
G36*
X223328379Y-77545000D02*
G01*
X223129565Y-77545000D01*
X223051041Y-77337882D01*
X222641140Y-77337882D01*
X222559197Y-77545000D01*
X222360383Y-77545000D01*
X222511110Y-77154211D01*
X222712215Y-77154211D01*
X222979295Y-77154211D01*
X222846121Y-76807997D01*
X222712215Y-77154211D01*
X222511110Y-77154211D01*
X222747752Y-76540673D01*
X222941742Y-76540673D01*
X223328379Y-77545000D01*
G37*
G36*
X223378204Y-76540673D02*
G01*
X223933613Y-76540673D01*
X223933613Y-76724344D01*
X223750553Y-76724344D01*
X223750553Y-77545000D01*
X223556502Y-77545000D01*
X223556502Y-76724344D01*
X223378204Y-76724344D01*
X223378204Y-76540673D01*
G37*
D14*
%TO.C,C12*%
X183570000Y-87162164D02*
X183570000Y-87377836D01*
X182850000Y-87162164D02*
X182850000Y-87377836D01*
%TO.C,C11*%
X169577836Y-79270000D02*
X169362164Y-79270000D01*
X169577836Y-78550000D02*
X169362164Y-78550000D01*
%TO.C,C10*%
X169587836Y-81490000D02*
X169372164Y-81490000D01*
X169587836Y-80770000D02*
X169372164Y-80770000D01*
%TO.C,C7*%
X164772164Y-80800000D02*
X164987836Y-80800000D01*
X164772164Y-81520000D02*
X164987836Y-81520000D01*
%TO.C,C6*%
X166607634Y-91885712D02*
X166391962Y-91885712D01*
X166607634Y-91165712D02*
X166391962Y-91165712D01*
%TO.C,C4*%
X161540000Y-80557836D02*
X161540000Y-80342164D01*
X162260000Y-80557836D02*
X162260000Y-80342164D01*
%TO.C,L1*%
X165751248Y-82010000D02*
X168523752Y-82010000D01*
X165751248Y-85430000D02*
X168523752Y-85430000D01*
%TO.C,C5*%
X206870000Y-112402164D02*
X206870000Y-112617836D01*
X206150000Y-112402164D02*
X206150000Y-112617836D01*
%TO.C,C3*%
X202520000Y-112422164D02*
X202520000Y-112637836D01*
X201800000Y-112422164D02*
X201800000Y-112637836D01*
D10*
%TO.C,U6*%
X219365000Y-117170000D02*
X219365000Y-117670000D01*
X219365000Y-117170000D02*
X219865000Y-117170000D01*
X219365000Y-120370000D02*
X219365000Y-119870000D01*
X219365000Y-120370000D02*
X219865000Y-120370000D01*
X222065000Y-117170000D02*
X222565000Y-117170000D01*
X222565000Y-117170000D02*
X222565000Y-117670000D01*
X222565000Y-120370000D02*
X222065000Y-120370000D01*
X222565000Y-120370000D02*
X222565000Y-119870000D01*
D14*
X219290000Y-118020000D02*
X218954000Y-118260000D01*
X218954000Y-117780000D01*
X219290000Y-118020000D01*
G36*
X219290000Y-118020000D02*
G01*
X218954000Y-118260000D01*
X218954000Y-117780000D01*
X219290000Y-118020000D01*
G37*
D15*
%TO.C,U3*%
X219825000Y-110982500D02*
X219825000Y-108182500D01*
X222815000Y-110982500D02*
X222815000Y-108182500D01*
D12*
X220045000Y-112772500D02*
G75*
G02*
X219845000Y-112772500I-100000J0D01*
G01*
X219845000Y-112772500D02*
G75*
G02*
X220045000Y-112772500I100000J0D01*
G01*
D14*
%TO.C,R18*%
X188505436Y-97345000D02*
X188959564Y-97345000D01*
X188505436Y-98815000D02*
X188959564Y-98815000D01*
%TO.C,USART*%
X225490000Y-102840000D02*
X225490000Y-95160000D01*
X228150000Y-95160000D02*
X225490000Y-95160000D01*
X228150000Y-102840000D02*
X225490000Y-102840000D01*
X228150000Y-102840000D02*
X228150000Y-95160000D01*
X228150000Y-104110000D02*
X228150000Y-105440000D01*
X228150000Y-105440000D02*
X226820000Y-105440000D01*
%TO.C,R6*%
X216160436Y-109425000D02*
X216614564Y-109425000D01*
X216160436Y-110895000D02*
X216614564Y-110895000D01*
%TO.C,R7*%
X216275436Y-106915000D02*
X216729564Y-106915000D01*
X216275436Y-108385000D02*
X216729564Y-108385000D01*
D16*
%TO.C,U5*%
X200614600Y-102184800D02*
X200614600Y-102565800D01*
X200614600Y-102565800D02*
X200868600Y-102565800D01*
X200868600Y-102565800D02*
X200868600Y-102184800D01*
X202545000Y-94133000D02*
X202545000Y-94615600D01*
X202545000Y-103759600D02*
X202545000Y-104242200D01*
X202545000Y-104242200D02*
X203027600Y-104242200D01*
X202900600Y-95047400D02*
X203459400Y-94488600D01*
X203027600Y-94133000D02*
X202545000Y-94133000D01*
X206609000Y-92202600D02*
X206990000Y-92202600D01*
X206609000Y-92456600D02*
X206609000Y-92202600D01*
X206990000Y-92202600D02*
X206990000Y-92456600D01*
X209809400Y-105918600D02*
X209809400Y-106172600D01*
X209809400Y-106172600D02*
X210190400Y-106172600D01*
X210190400Y-106172600D02*
X210190400Y-105918600D01*
X212171600Y-104242200D02*
X212654200Y-104242200D01*
X212654200Y-94133000D02*
X212171600Y-94133000D01*
X212654200Y-94615600D02*
X212654200Y-94133000D01*
X212654200Y-104242200D02*
X212654200Y-103759600D01*
X214330600Y-97790600D02*
X214330600Y-97409600D01*
X214584600Y-97409600D02*
X214584600Y-97790600D01*
X214584600Y-97790600D02*
X214330600Y-97790600D01*
D14*
%TO.C,R17*%
X199067064Y-115655000D02*
X198612936Y-115655000D01*
X199067064Y-117125000D02*
X198612936Y-117125000D01*
%TO.C,D1*%
X180770000Y-112030000D02*
X180770000Y-114890000D01*
X180770000Y-114890000D02*
X182690000Y-114890000D01*
X182690000Y-114890000D02*
X182690000Y-112030000D01*
%TO.C,R CALEFACTABLE*%
X158620000Y-113055000D02*
X159950000Y-113055000D01*
X158620000Y-114385000D02*
X158620000Y-113055000D01*
X158620000Y-115655000D02*
X158620000Y-118255000D01*
X158620000Y-115655000D02*
X161280000Y-115655000D01*
X158620000Y-118255000D02*
X161280000Y-118255000D01*
X161280000Y-115655000D02*
X161280000Y-118255000D01*
%TO.C,R2*%
X197482936Y-89095000D02*
X197937064Y-89095000D01*
X197482936Y-90565000D02*
X197937064Y-90565000D01*
%TO.C,U1*%
X209407500Y-118790000D02*
X210667500Y-118790000D01*
X209407500Y-122550000D02*
X209407500Y-118790000D01*
X216227500Y-118790000D02*
X214967500Y-118790000D01*
X216227500Y-122550000D02*
X216227500Y-118790000D01*
X209507500Y-123830000D02*
X209177500Y-124070000D01*
X209177500Y-123590000D01*
X209507500Y-123830000D01*
G36*
X209507500Y-123830000D02*
G01*
X209177500Y-124070000D01*
X209177500Y-123590000D01*
X209507500Y-123830000D01*
G37*
%TO.C,Q2*%
X164180000Y-102190000D02*
X164180000Y-97549000D01*
X167449000Y-102190000D02*
X167449000Y-100680000D01*
X171150000Y-102190000D02*
X171150000Y-100680000D01*
X174420000Y-97549000D02*
X164180000Y-97549000D01*
X174420000Y-100680000D02*
X164180000Y-100680000D01*
X174420000Y-102190000D02*
X164180000Y-102190000D01*
X174420000Y-102190000D02*
X174420000Y-97549000D01*
%TO.C,R3*%
X224930436Y-113415000D02*
X225384564Y-113415000D01*
X224930436Y-114885000D02*
X225384564Y-114885000D01*
%TO.C,DPM+1*%
X169850000Y-96420000D02*
X172710000Y-96420000D01*
X172710000Y-94500000D02*
X169850000Y-94500000D01*
X172710000Y-96420000D02*
X172710000Y-94500000D01*
%TO.C,C14*%
X212005000Y-126868748D02*
X212005000Y-127391252D01*
X213475000Y-126868748D02*
X213475000Y-127391252D01*
%TO.C,R19*%
X190155000Y-108725436D02*
X190155000Y-109179564D01*
X191625000Y-108725436D02*
X191625000Y-109179564D01*
%TO.C,RMCLR1*%
X193085000Y-81122936D02*
X193085000Y-81577064D01*
X194555000Y-81122936D02*
X194555000Y-81577064D01*
%TO.C,U7*%
X193180000Y-96282500D02*
X192380000Y-96282500D01*
X193180000Y-96282500D02*
X193980000Y-96282500D01*
X193180000Y-99402500D02*
X192380000Y-99402500D01*
X193180000Y-99402500D02*
X193980000Y-99402500D01*
X194720000Y-99682500D02*
X194240000Y-99682500D01*
X194480000Y-99352500D01*
X194720000Y-99682500D01*
G36*
X194720000Y-99682500D02*
G01*
X194240000Y-99682500D01*
X194480000Y-99352500D01*
X194720000Y-99682500D01*
G37*
%TO.C,DR1*%
X195840000Y-91940000D02*
X195840000Y-94625000D01*
X195840000Y-94625000D02*
X197760000Y-94625000D01*
X197760000Y-94625000D02*
X197760000Y-91940000D01*
%TO.C,R15*%
X188959564Y-99695000D02*
X188505436Y-99695000D01*
X188959564Y-101165000D02*
X188505436Y-101165000D01*
%TO.C,R11*%
X169924798Y-89248648D02*
X169924798Y-89702776D01*
X171394798Y-89248648D02*
X171394798Y-89702776D01*
%TO.C,R21*%
X190245000Y-112515436D02*
X190245000Y-112969564D01*
X191715000Y-112515436D02*
X191715000Y-112969564D01*
%TO.C,R20*%
X197345436Y-95205000D02*
X197799564Y-95205000D01*
X197345436Y-96675000D02*
X197799564Y-96675000D01*
%TO.C,SW MCLR*%
X197020000Y-81340000D02*
X197020000Y-82840000D01*
X198270000Y-85340000D02*
X202770000Y-85340000D01*
X202770000Y-78840000D02*
X198270000Y-78840000D01*
X204020000Y-82840000D02*
X204020000Y-81340000D01*
%TO.C,DPM+2*%
X180092500Y-108000000D02*
X180092500Y-109920000D01*
X180092500Y-109920000D02*
X182952500Y-109920000D01*
X182952500Y-108000000D02*
X180092500Y-108000000D01*
D15*
%TO.C,U8*%
X192645000Y-109012500D02*
X192645000Y-113002500D01*
X197695000Y-109012500D02*
X197695000Y-113002500D01*
D12*
X197775000Y-106757500D02*
G75*
G02*
X197575000Y-106757500I-100000J0D01*
G01*
X197575000Y-106757500D02*
G75*
G02*
X197775000Y-106757500I100000J0D01*
G01*
D14*
%TO.C,DPM-1*%
X166840000Y-109940000D02*
X169700000Y-109940000D01*
X169700000Y-108020000D02*
X166840000Y-108020000D01*
X169700000Y-109940000D02*
X169700000Y-108020000D01*
%TO.C,R9*%
X172025000Y-77972936D02*
X172025000Y-78427064D01*
X173495000Y-77972936D02*
X173495000Y-78427064D01*
%TO.C,R12*%
X216639564Y-103695000D02*
X216185436Y-103695000D01*
X216639564Y-105165000D02*
X216185436Y-105165000D01*
%TO.C,Y1*%
X200870000Y-107200000D02*
X200870000Y-111100000D01*
X200870000Y-111100000D02*
X207420000Y-111100000D01*
X207420000Y-107200000D02*
X200870000Y-107200000D01*
%TO.C,D2*%
X183100000Y-93540000D02*
X183100000Y-96400000D01*
X183100000Y-96400000D02*
X185020000Y-96400000D01*
X185020000Y-96400000D02*
X185020000Y-93540000D01*
%TO.C,R14*%
X192745436Y-93595000D02*
X193199564Y-93595000D01*
X192745436Y-95065000D02*
X193199564Y-95065000D01*
%TO.C,R4*%
X162036862Y-83380712D02*
X161582734Y-83380712D01*
X162036862Y-84850712D02*
X161582734Y-84850712D01*
%TO.C,MCLR*%
X205890000Y-81490000D02*
X205890000Y-80160000D01*
X207220000Y-81490000D02*
X205890000Y-81490000D01*
X208490000Y-78830000D02*
X213630000Y-78830000D01*
X208490000Y-81490000D02*
X208490000Y-78830000D01*
X208490000Y-81490000D02*
X213630000Y-81490000D01*
X213630000Y-81490000D02*
X213630000Y-78830000D01*
%TO.C,R10*%
X175070000Y-78524564D02*
X175070000Y-78070436D01*
X176540000Y-78524564D02*
X176540000Y-78070436D01*
D15*
%TO.C,K1*%
X164947500Y-111825000D02*
X177227500Y-111825000D01*
X164947500Y-114110000D02*
X164947500Y-111825000D01*
X164947500Y-119395000D02*
X164947500Y-117110000D01*
X177227500Y-119395000D02*
X164947500Y-119395000D01*
X179247500Y-116760000D02*
X179247500Y-114460000D01*
D12*
X163877500Y-115510000D02*
G75*
G02*
X163677500Y-115510000I-100000J0D01*
G01*
X163677500Y-115510000D02*
G75*
G02*
X163877500Y-115510000I100000J0D01*
G01*
D14*
%TO.C,R_shunt1*%
X186300000Y-92805000D02*
X186300000Y-89605000D01*
X189700000Y-94685000D02*
X189700000Y-91485000D01*
%TO.C,Q5*%
X175180000Y-97490000D02*
X175180000Y-102131000D01*
X175180000Y-97490000D02*
X185420000Y-97490000D01*
X175180000Y-99000000D02*
X185420000Y-99000000D01*
X175180000Y-102131000D02*
X185420000Y-102131000D01*
X178450000Y-97490000D02*
X178450000Y-99000000D01*
X182151000Y-97490000D02*
X182151000Y-99000000D01*
X185420000Y-97490000D02*
X185420000Y-102131000D01*
D15*
%TO.C,U2*%
X165229798Y-86253212D02*
X165734798Y-86253212D01*
X165229798Y-86333212D02*
X165229798Y-86253212D01*
X165229798Y-88673212D02*
X165229798Y-88753212D01*
X165229798Y-88753212D02*
X165534798Y-88753212D01*
X167724798Y-86253212D02*
X168229798Y-86253212D01*
X168229798Y-86253212D02*
X168229798Y-86333212D01*
X168229798Y-88673212D02*
X168229798Y-88753212D01*
X168229798Y-88753212D02*
X167924798Y-88753212D01*
D12*
X165679798Y-89503212D02*
G75*
G02*
X165479798Y-89503212I-100000J0D01*
G01*
X165479798Y-89503212D02*
G75*
G02*
X165679798Y-89503212I100000J0D01*
G01*
D14*
%TO.C,PROGRAMACI\u00D3*%
X202220000Y-90050000D02*
X202220000Y-88720000D01*
X203550000Y-90050000D02*
X202220000Y-90050000D01*
X204820000Y-87390000D02*
X217580000Y-87390000D01*
X204820000Y-90050000D02*
X204820000Y-87390000D01*
X204820000Y-90050000D02*
X217580000Y-90050000D01*
X217580000Y-90050000D02*
X217580000Y-87390000D01*
%TO.C,R16*%
X193199564Y-90725000D02*
X192745436Y-90725000D01*
X193199564Y-92195000D02*
X192745436Y-92195000D01*
%TO.C,U4*%
X183200000Y-78360000D02*
X183200000Y-78630000D01*
X183200000Y-85260000D02*
X183200000Y-84990000D01*
X189620000Y-78360000D02*
X183200000Y-78360000D01*
X189620000Y-85260000D02*
X183200000Y-85260000D01*
X181470000Y-78670000D02*
X181130000Y-78200000D01*
X181810000Y-78200000D01*
X181470000Y-78670000D01*
G36*
X181470000Y-78670000D02*
G01*
X181130000Y-78200000D01*
X181810000Y-78200000D01*
X181470000Y-78670000D01*
G37*
%TO.C,Q3*%
X175170000Y-103055000D02*
X175170000Y-107696000D01*
X175170000Y-103055000D02*
X185410000Y-103055000D01*
X175170000Y-104565000D02*
X185410000Y-104565000D01*
X175170000Y-107696000D02*
X185410000Y-107696000D01*
X178440000Y-103055000D02*
X178440000Y-104565000D01*
X182141000Y-103055000D02*
X182141000Y-104565000D01*
X185410000Y-103055000D02*
X185410000Y-107696000D01*
%TO.C,DR2*%
X177840000Y-76652500D02*
X177840000Y-79337500D01*
X179760000Y-76652500D02*
X177840000Y-76652500D01*
X179760000Y-79337500D02*
X179760000Y-76652500D01*
%TO.C,C2*%
X224015000Y-124398748D02*
X224015000Y-124921252D01*
X225485000Y-124398748D02*
X225485000Y-124921252D01*
%TO.C,DPA1*%
X164599798Y-94475712D02*
X164599798Y-96395712D01*
X164599798Y-96395712D02*
X167459798Y-96395712D01*
X167459798Y-94475712D02*
X164599798Y-94475712D01*
%TO.C,12V*%
X157900000Y-86445000D02*
X159230000Y-86445000D01*
X157900000Y-87775000D02*
X157900000Y-86445000D01*
X157900000Y-89045000D02*
X157900000Y-91645000D01*
X157900000Y-89045000D02*
X160560000Y-89045000D01*
X157900000Y-91645000D02*
X160560000Y-91645000D01*
X160560000Y-89045000D02*
X160560000Y-91645000D01*
%TO.C,BOTONERA*%
X225440000Y-89940000D02*
X225440000Y-87340000D01*
X228100000Y-87340000D02*
X225440000Y-87340000D01*
X228100000Y-89940000D02*
X225440000Y-89940000D01*
X228100000Y-89940000D02*
X228100000Y-87340000D01*
X228100000Y-91210000D02*
X228100000Y-92540000D01*
X228100000Y-92540000D02*
X226770000Y-92540000D01*
%TO.C,R22*%
X194990436Y-115485000D02*
X195444564Y-115485000D01*
X194990436Y-116955000D02*
X195444564Y-116955000D01*
D15*
%TO.C,Q1*%
X180470000Y-117300000D02*
X180470000Y-117985000D01*
X180470000Y-117985000D02*
X181315000Y-117985000D01*
X182545000Y-117985000D02*
X183390000Y-117985000D01*
X183390000Y-117985000D02*
X183390000Y-117300000D01*
D12*
X182980000Y-114835000D02*
G75*
G02*
X182780000Y-114835000I-100000J0D01*
G01*
X182780000Y-114835000D02*
G75*
G02*
X182980000Y-114835000I100000J0D01*
G01*
D14*
%TO.C,CAN*%
X185510000Y-126784669D02*
X187520000Y-126784669D01*
X185510000Y-130884669D02*
X185510000Y-126784669D01*
X187520000Y-117944669D02*
X200720000Y-117944669D01*
X187520000Y-126784669D02*
X187520000Y-117944669D01*
X188330000Y-117250331D02*
X188830000Y-117250331D01*
X188580000Y-117683344D02*
X188330000Y-117250331D01*
X188830000Y-117250331D02*
X188580000Y-117683344D01*
X200720000Y-117944669D02*
X200720000Y-126784669D01*
X200720000Y-126784669D02*
X202730000Y-126784669D01*
X202730000Y-126784669D02*
X202730000Y-130884669D01*
%TO.C,MOTOR*%
X158190000Y-98635000D02*
X159520000Y-98635000D01*
X158190000Y-99965000D02*
X158190000Y-98635000D01*
X158190000Y-101235000D02*
X158190000Y-103835000D01*
X158190000Y-101235000D02*
X160850000Y-101235000D01*
X158190000Y-103835000D02*
X160850000Y-103835000D01*
X160850000Y-101235000D02*
X160850000Y-103835000D01*
%TO.C,DPA2*%
X172779798Y-91248212D02*
X172779798Y-93168212D01*
X172779798Y-93168212D02*
X175639798Y-93168212D01*
X175639798Y-91248212D02*
X172779798Y-91248212D01*
%TO.C,R13*%
X183545000Y-113297064D02*
X183545000Y-112842936D01*
X185015000Y-113297064D02*
X185015000Y-112842936D01*
%TO.C,Q4*%
X164250000Y-107685000D02*
X164250000Y-103044000D01*
X167519000Y-107685000D02*
X167519000Y-106175000D01*
X171220000Y-107685000D02*
X171220000Y-106175000D01*
X174490000Y-103044000D02*
X164250000Y-103044000D01*
X174490000Y-106175000D02*
X164250000Y-106175000D01*
X174490000Y-107685000D02*
X164250000Y-107685000D01*
X174490000Y-107685000D02*
X174490000Y-103044000D01*
%TO.C,R8*%
X174877064Y-82695000D02*
X174422936Y-82695000D01*
X174877064Y-84165000D02*
X174422936Y-84165000D01*
%TO.C,R5*%
X217889564Y-113365000D02*
X217435436Y-113365000D01*
X217889564Y-114835000D02*
X217435436Y-114835000D01*
%TO.C,s.PROXIMITAT*%
X214670000Y-78860000D02*
X214670000Y-81520000D01*
X222350000Y-78860000D02*
X214670000Y-78860000D01*
X222350000Y-78860000D02*
X222350000Y-81520000D01*
X222350000Y-81520000D02*
X214670000Y-81520000D01*
X223620000Y-78860000D02*
X224950000Y-78860000D01*
X224950000Y-78860000D02*
X224950000Y-80190000D01*
%TD*%
M02*
