M48
; DRILL file {KiCad 9.0.0} date 2025-04-23T22:00:00+0200
; FORMAT={-:-/ absolute / inch / decimal}
; #@! TF.CreationDate,2025-04-23T22:00:00+02:00
; #@! TF.GenerationSoftware,Kicad,Pcbnew,9.0.0
; #@! TF.FileFunction,Plated,1,2,PTH
FMAT,2
INCH
; #@! TA.AperFunction,Plated,PTH,ViaDrill
T1C0.0118
; #@! TA.AperFunction,Plated,PTH,ComponentDrill
T2C0.0295
; #@! TA.AperFunction,Plated,PTH,ComponentDrill
T3C0.0394
; #@! TA.AperFunction,Plated,PTH,ComponentDrill
T4C0.0433
; #@! TA.AperFunction,Plated,PTH,ComponentDrill
T5C0.0591
%
G90
G05
T1
X6.4465Y-3.4587
X6.4528Y-3.3681
X6.4736Y-3.5114
X6.5469Y-3.5244
X6.5681Y-3.3583
X6.6575Y-3.5244
X6.6602Y-3.472
X6.965Y-4.1264
X7.0551Y-4.0819
X7.0791Y-3.2043
X7.2744Y-4.3551
X7.3071Y-3.4382
X7.3409Y-3.9169
X7.4205Y-4.5071
X7.5689Y-3.9219
X7.6217Y-4.4075
X7.6953Y-3.8554
X7.7083Y-4.2028
X7.8055Y-3.7118
X7.8528Y-4.1748
X7.8783Y-3.9913
X7.8843Y-4.035
X7.8902Y-4.3346
X7.8921Y-4.3909
X7.8945Y-4.4945
X7.9067Y-4.4469
X7.9083Y-4.5386
X7.9103Y-4.172
X7.9563Y-4.5386
X7.9878Y-4.2063
X8.0126Y-4.5386
X8.0169Y-4.039
X8.0799Y-4.5374
X8.0917Y-3.5665
X8.0919Y-3.7971
X8.1138Y-4.5394
X8.115Y-4.2012
X8.15Y-4.5339
X8.1547Y-4.1917
X8.1791Y-4.528
X8.185Y-4.4945
X8.1874Y-4.3008
X8.1878Y-4.3685
X8.1886Y-4.2118
X8.1902Y-4.2598
X8.1906Y-3.761
X8.1906Y-4.3378
X8.1933Y-3.7272
X8.2882Y-4.9413
X8.328Y-3.776
X8.3362Y-3.8106
X8.3689Y-4.2244
X8.413Y-4.1287
X8.4673Y-5.0433
X8.4693Y-4.7925
X8.6366Y-4.3831
X8.7154Y-4.6854
X8.7815Y-4.685
X8.785Y-4.3587
X8.848Y-4.998
T2
X6.8574Y-4.4581
X6.8574Y-4.6451
T3
X6.2689Y-3.4557
X6.2689Y-3.5557
X6.2803Y-3.9356
X6.2803Y-4.0356
X6.2972Y-4.5033
X6.2972Y-4.6033
X7.4244Y-4.6852
X7.4789Y-4.7852
X7.5335Y-4.6852
X7.588Y-4.7852
X7.6425Y-4.6852
X7.697Y-4.7852
X7.7516Y-4.6852
X7.8061Y-4.7852
X7.8606Y-4.6852
X8.0138Y-3.4929
X8.1138Y-3.4929
X8.1583Y-3.1559
X8.2138Y-3.4929
X8.2583Y-3.1559
X8.3138Y-3.4929
X8.3583Y-3.1559
X8.4138Y-3.4929
X8.5039Y-3.1571
X8.5138Y-3.4929
X8.6039Y-3.1571
X8.7039Y-3.1571
X8.8039Y-3.1571
X8.928Y-3.4909
X8.928Y-3.5909
X8.9299Y-3.7988
X8.9299Y-3.8988
X8.9299Y-3.9988
X8.9299Y-4.0988
T4
X6.5654Y-3.8945
X6.5681Y-4.1108
X6.6654Y-3.8945
X6.6681Y-4.1108
X6.7654Y-3.8945
X6.7681Y-4.1108
X6.998Y-4.186
X6.9984Y-3.9669
X7.098Y-4.186
X7.0984Y-3.9669
X7.198Y-4.186
X7.1984Y-3.9669
X7.7665Y-3.1433
X7.7665Y-3.3205
X8.0224Y-3.1433
X8.0224Y-3.3205
T5
X6.5294Y-4.5516
X7.0121Y-4.4581
X7.0121Y-4.6451
M30
