%TF.GenerationSoftware,KiCad,Pcbnew,9.0.0*%
%TF.CreationDate,2025-04-23T21:59:36+02:00*%
%TF.ProjectId,Projecte,50726f6a-6563-4746-952e-6b696361645f,rev?*%
%TF.SameCoordinates,Original*%
%TF.FileFunction,Soldermask,Bot*%
%TF.FilePolarity,Negative*%
%FSLAX46Y46*%
G04 Gerber Fmt 4.6, Leading zero omitted, Abs format (unit mm)*
G04 Created by KiCad (PCBNEW 9.0.0) date 2025-04-23 21:59:36*
%MOMM*%
%LPD*%
G01*
G04 APERTURE LIST*
G04 Aperture macros list*
%AMRoundRect*
0 Rectangle with rounded corners*
0 $1 Rounding radius*
0 $2 $3 $4 $5 $6 $7 $8 $9 X,Y pos of 4 corners*
0 Add a 4 corners polygon primitive as box body*
4,1,4,$2,$3,$4,$5,$6,$7,$8,$9,$2,$3,0*
0 Add four circle primitives for the rounded corners*
1,1,$1+$1,$2,$3*
1,1,$1+$1,$4,$5*
1,1,$1+$1,$6,$7*
1,1,$1+$1,$8,$9*
0 Add four rect primitives between the rounded corners*
20,1,$1+$1,$2,$3,$4,$5,0*
20,1,$1+$1,$4,$5,$6,$7,0*
20,1,$1+$1,$6,$7,$8,$9,0*
20,1,$1+$1,$8,$9,$2,$3,0*%
G04 Aperture macros list end*
%ADD10RoundRect,0.140000X-0.140000X-0.170000X0.140000X-0.170000X0.140000X0.170000X-0.140000X0.170000X0*%
%ADD11R,1.700000X1.700000*%
%ADD12O,1.700000X1.700000*%
%ADD13R,1.905000X2.000000*%
%ADD14O,1.905000X2.000000*%
%ADD15C,2.100000*%
%ADD16C,2.000000*%
%ADD17C,1.258000*%
%ADD18C,2.250000*%
%ADD19R,1.600000X1.600000*%
%ADD20C,1.600000*%
%ADD21RoundRect,0.250000X-0.250000X-0.475000X0.250000X-0.475000X0.250000X0.475000X-0.250000X0.475000X0*%
%ADD22RoundRect,0.250000X-0.262500X-0.450000X0.262500X-0.450000X0.262500X0.450000X-0.262500X0.450000X0*%
%ADD23RoundRect,0.250000X0.475000X-0.250000X0.475000X0.250000X-0.475000X0.250000X-0.475000X-0.250000X0*%
%ADD24RoundRect,0.250000X-0.475000X0.250000X-0.475000X-0.250000X0.475000X-0.250000X0.475000X0.250000X0*%
G04 APERTURE END LIST*
D10*
%TO.C,C13*%
X224170000Y-118980000D03*
X225130000Y-118980000D03*
%TD*%
D11*
%TO.C,USART*%
X226820000Y-104110000D03*
D12*
X226820000Y-101570000D03*
X226820000Y-99030000D03*
X226820000Y-96490000D03*
%TD*%
D11*
%TO.C,R CALEFACTABLE*%
X159950000Y-114385000D03*
D12*
X159950000Y-116925000D03*
%TD*%
D13*
%TO.C,Q2*%
X171840000Y-98920000D03*
D14*
X169300000Y-98920000D03*
X166760000Y-98920000D03*
%TD*%
D15*
%TO.C,REF\u002A\u002A*%
X159120000Y-126940000D03*
%TD*%
%TO.C,REF\u002A\u002A*%
X228160000Y-126030000D03*
%TD*%
D16*
%TO.C,SW MCLR*%
X197270000Y-79840000D03*
X203770000Y-79840000D03*
X197270000Y-84340000D03*
X203770000Y-84340000D03*
%TD*%
D11*
%TO.C,MCLR*%
X207220000Y-80160000D03*
D12*
X209760000Y-80160000D03*
X212300000Y-80160000D03*
%TD*%
D17*
%TO.C,K1*%
X174177500Y-113235000D03*
X174177500Y-117985000D03*
D18*
X165847500Y-115610000D03*
X178107500Y-113235000D03*
X178107500Y-117985000D03*
%TD*%
D13*
%TO.C,Q5*%
X177760000Y-100760000D03*
D14*
X180300000Y-100760000D03*
X182840000Y-100760000D03*
%TD*%
D11*
%TO.C,PROGRAMACI\u00D3*%
X203550000Y-88720000D03*
D12*
X206090000Y-88720000D03*
X208630000Y-88720000D03*
X211170000Y-88720000D03*
X213710000Y-88720000D03*
X216250000Y-88720000D03*
%TD*%
D13*
%TO.C,Q3*%
X177750000Y-106325000D03*
D14*
X180290000Y-106325000D03*
X182830000Y-106325000D03*
%TD*%
D15*
%TO.C,REF\u002A\u002A*%
X228030000Y-76580000D03*
%TD*%
D11*
%TO.C,12V*%
X159230000Y-87775000D03*
D12*
X159230000Y-90315000D03*
%TD*%
D15*
%TO.C,REF\u002A\u002A*%
X160840000Y-75930000D03*
%TD*%
D11*
%TO.C,BOTONERA*%
X226770000Y-91210000D03*
D12*
X226770000Y-88670000D03*
%TD*%
D19*
%TO.C,CAN*%
X188580000Y-119004669D03*
D20*
X191350000Y-119004669D03*
X194120000Y-119004669D03*
X196890000Y-119004669D03*
X199660000Y-119004669D03*
X189965000Y-121544669D03*
X192735000Y-121544669D03*
X195505000Y-121544669D03*
X198275000Y-121544669D03*
%TD*%
D11*
%TO.C,MOTOR*%
X159520000Y-99965000D03*
D12*
X159520000Y-102505000D03*
%TD*%
D13*
%TO.C,Q4*%
X171910000Y-104415000D03*
D14*
X169370000Y-104415000D03*
X166830000Y-104415000D03*
%TD*%
D11*
%TO.C,s.PROXIMITAT*%
X223620000Y-80190000D03*
D12*
X221080000Y-80190000D03*
X218540000Y-80190000D03*
X216000000Y-80190000D03*
%TD*%
D21*
%TO.C,C15*%
X192230000Y-97930000D03*
X194130000Y-97930000D03*
%TD*%
D22*
%TO.C,R24*%
X221397500Y-88630000D03*
X223222500Y-88630000D03*
%TD*%
D23*
%TO.C,C11*%
X195170000Y-111957500D03*
X195170000Y-110057500D03*
%TD*%
D22*
%TO.C,R1*%
X173787500Y-86790000D03*
X175612500Y-86790000D03*
%TD*%
%TO.C,R23*%
X221367500Y-91180000D03*
X223192500Y-91180000D03*
%TD*%
D23*
%TO.C,C9*%
X212820000Y-121710000D03*
X212820000Y-119810000D03*
%TD*%
%TO.C,C16*%
X205420000Y-99150000D03*
X205420000Y-97250000D03*
%TD*%
%TO.C,C13*%
X221390000Y-110720000D03*
X221390000Y-108820000D03*
%TD*%
D24*
%TO.C,C8*%
X209450000Y-97290000D03*
X209450000Y-99190000D03*
%TD*%
M02*
