%TF.GenerationSoftware,KiCad,Pcbnew,9.0.0*%
%TF.CreationDate,2025-04-23T21:59:36+02:00*%
%TF.ProjectId,Projecte,50726f6a-6563-4746-952e-6b696361645f,rev?*%
%TF.SameCoordinates,Original*%
%TF.FileFunction,Soldermask,Top*%
%TF.FilePolarity,Negative*%
%FSLAX46Y46*%
G04 Gerber Fmt 4.6, Leading zero omitted, Abs format (unit mm)*
G04 Created by KiCad (PCBNEW 9.0.0) date 2025-04-23 21:59:36*
%MOMM*%
%LPD*%
G01*
G04 APERTURE LIST*
G04 Aperture macros list*
%AMRoundRect*
0 Rectangle with rounded corners*
0 $1 Rounding radius*
0 $2 $3 $4 $5 $6 $7 $8 $9 X,Y pos of 4 corners*
0 Add a 4 corners polygon primitive as box body*
4,1,4,$2,$3,$4,$5,$6,$7,$8,$9,$2,$3,0*
0 Add four circle primitives for the rounded corners*
1,1,$1+$1,$2,$3*
1,1,$1+$1,$4,$5*
1,1,$1+$1,$6,$7*
1,1,$1+$1,$8,$9*
0 Add four rect primitives between the rounded corners*
20,1,$1+$1,$2,$3,$4,$5,0*
20,1,$1+$1,$4,$5,$6,$7,0*
20,1,$1+$1,$6,$7,$8,$9,0*
20,1,$1+$1,$8,$9,$2,$3,0*%
G04 Aperture macros list end*
%ADD10C,0.010000*%
%ADD11RoundRect,0.140000X-0.170000X0.140000X-0.170000X-0.140000X0.170000X-0.140000X0.170000X0.140000X0*%
%ADD12RoundRect,0.140000X0.140000X0.170000X-0.140000X0.170000X-0.140000X-0.170000X0.140000X-0.170000X0*%
%ADD13RoundRect,0.140000X-0.140000X-0.170000X0.140000X-0.170000X0.140000X0.170000X-0.140000X0.170000X0*%
%ADD14RoundRect,0.140000X0.170000X-0.140000X0.170000X0.140000X-0.170000X0.140000X-0.170000X-0.140000X0*%
%ADD15RoundRect,0.250000X-0.312500X-1.450000X0.312500X-1.450000X0.312500X1.450000X-0.312500X1.450000X0*%
%ADD16R,0.450000X0.300000*%
%ADD17R,0.300000X0.450000*%
%ADD18RoundRect,0.075500X0.226500X-0.736500X0.226500X0.736500X-0.226500X0.736500X-0.226500X-0.736500X0*%
%ADD19RoundRect,0.250000X-0.262500X-0.450000X0.262500X-0.450000X0.262500X0.450000X-0.262500X0.450000X0*%
%ADD20R,1.700000X1.700000*%
%ADD21O,1.700000X1.700000*%
%ADD22RoundRect,0.102000X-0.736600X-0.241300X0.736600X-0.241300X0.736600X0.241300X-0.736600X0.241300X0*%
%ADD23RoundRect,0.102000X-0.241300X-0.736600X0.241300X-0.736600X0.241300X0.736600X-0.241300X0.736600X0*%
%ADD24RoundRect,0.250000X0.262500X0.450000X-0.262500X0.450000X-0.262500X-0.450000X0.262500X-0.450000X0*%
%ADD25RoundRect,0.250000X0.450000X-0.325000X0.450000X0.325000X-0.450000X0.325000X-0.450000X-0.325000X0*%
%ADD26RoundRect,0.375000X0.375000X-0.625000X0.375000X0.625000X-0.375000X0.625000X-0.375000X-0.625000X0*%
%ADD27RoundRect,0.500000X1.400000X-0.500000X1.400000X0.500000X-1.400000X0.500000X-1.400000X-0.500000X0*%
%ADD28R,1.905000X2.000000*%
%ADD29O,1.905000X2.000000*%
%ADD30C,2.100000*%
%ADD31RoundRect,0.250000X0.325000X0.450000X-0.325000X0.450000X-0.325000X-0.450000X0.325000X-0.450000X0*%
%ADD32RoundRect,0.250000X-0.475000X0.250000X-0.475000X-0.250000X0.475000X-0.250000X0.475000X0.250000X0*%
%ADD33RoundRect,0.250000X-0.450000X0.262500X-0.450000X-0.262500X0.450000X-0.262500X0.450000X0.262500X0*%
%ADD34RoundRect,0.150000X0.512500X0.150000X-0.512500X0.150000X-0.512500X-0.150000X0.512500X-0.150000X0*%
%ADD35RoundRect,0.243750X0.456250X-0.243750X0.456250X0.243750X-0.456250X0.243750X-0.456250X-0.243750X0*%
%ADD36C,2.000000*%
%ADD37RoundRect,0.250000X-0.325000X-0.450000X0.325000X-0.450000X0.325000X0.450000X-0.325000X0.450000X0*%
%ADD38RoundRect,0.100500X-0.301500X0.791500X-0.301500X-0.791500X0.301500X-0.791500X0.301500X0.791500X0*%
%ADD39R,1.900000X2.500000*%
%ADD40RoundRect,0.250000X0.450000X-0.262500X0.450000X0.262500X-0.450000X0.262500X-0.450000X-0.262500X0*%
%ADD41C,1.462000*%
%ADD42C,2.454000*%
%ADD43RoundRect,0.243600X0.771400X-1.406400X0.771400X1.406400X-0.771400X1.406400X-0.771400X-1.406400X0*%
%ADD44RoundRect,0.190000X0.190000X-0.510000X0.190000X0.510000X-0.190000X0.510000X-0.190000X-0.510000X0*%
%ADD45RoundRect,0.250000X-0.850000X-0.350000X0.850000X-0.350000X0.850000X0.350000X-0.850000X0.350000X0*%
%ADD46RoundRect,0.249997X-2.950003X-2.650003X2.950003X-2.650003X2.950003X2.650003X-2.950003X2.650003X0*%
%ADD47RoundRect,0.243750X-0.456250X0.243750X-0.456250X-0.243750X0.456250X-0.243750X0.456250X0.243750X0*%
%ADD48RoundRect,0.099250X-0.297750X0.662750X-0.297750X-0.662750X0.297750X-0.662750X0.297750X0.662750X0*%
%ADD49R,1.600000X1.600000*%
%ADD50C,1.600000*%
G04 APERTURE END LIST*
D10*
%TO.C,U2*%
X165679798Y-87903212D02*
X164979798Y-87903212D01*
X164979798Y-87553212D01*
X165679798Y-87553212D01*
X165679798Y-87903212D01*
G36*
X165679798Y-87903212D02*
G01*
X164979798Y-87903212D01*
X164979798Y-87553212D01*
X165679798Y-87553212D01*
X165679798Y-87903212D01*
G37*
X165679798Y-88403212D02*
X164979798Y-88403212D01*
X164979798Y-88053212D01*
X165679798Y-88053212D01*
X165679798Y-88403212D01*
G36*
X165679798Y-88403212D02*
G01*
X164979798Y-88403212D01*
X164979798Y-88053212D01*
X165679798Y-88053212D01*
X165679798Y-88403212D01*
G37*
X166154798Y-89003212D02*
X165804798Y-89003212D01*
X165804798Y-88303212D01*
X166154798Y-88303212D01*
X166154798Y-89003212D01*
G36*
X166154798Y-89003212D02*
G01*
X165804798Y-89003212D01*
X165804798Y-88303212D01*
X166154798Y-88303212D01*
X166154798Y-89003212D01*
G37*
X166354798Y-87403212D02*
X166104798Y-87403212D01*
X166104798Y-86053212D01*
X166354798Y-86053212D01*
X166354798Y-87403212D01*
G36*
X166354798Y-87403212D02*
G01*
X166104798Y-87403212D01*
X166104798Y-86053212D01*
X166354798Y-86053212D01*
X166354798Y-87403212D01*
G37*
X166654798Y-89003212D02*
X166304798Y-89003212D01*
X166304798Y-88303212D01*
X166654798Y-88303212D01*
X166654798Y-89003212D01*
G36*
X166654798Y-89003212D02*
G01*
X166304798Y-89003212D01*
X166304798Y-88303212D01*
X166654798Y-88303212D01*
X166654798Y-89003212D01*
G37*
X166854798Y-87753212D02*
X166604798Y-87753212D01*
X166604798Y-86053212D01*
X166854798Y-86053212D01*
X166854798Y-87753212D01*
G36*
X166854798Y-87753212D02*
G01*
X166604798Y-87753212D01*
X166604798Y-86053212D01*
X166854798Y-86053212D01*
X166854798Y-87753212D01*
G37*
X167154798Y-89003212D02*
X166804798Y-89003212D01*
X166804798Y-88303212D01*
X167154798Y-88303212D01*
X167154798Y-89003212D01*
G36*
X167154798Y-89003212D02*
G01*
X166804798Y-89003212D01*
X166804798Y-88303212D01*
X167154798Y-88303212D01*
X167154798Y-89003212D01*
G37*
X167354798Y-87403212D02*
X167104798Y-87403212D01*
X167104798Y-86053212D01*
X167354798Y-86053212D01*
X167354798Y-87403212D01*
G36*
X167354798Y-87403212D02*
G01*
X167104798Y-87403212D01*
X167104798Y-86053212D01*
X167354798Y-86053212D01*
X167354798Y-87403212D01*
G37*
X167654798Y-89003212D02*
X167304798Y-89003212D01*
X167304798Y-88303212D01*
X167654798Y-88303212D01*
X167654798Y-89003212D01*
G36*
X167654798Y-89003212D02*
G01*
X167304798Y-89003212D01*
X167304798Y-88303212D01*
X167654798Y-88303212D01*
X167654798Y-89003212D01*
G37*
X168479798Y-87903212D02*
X167779798Y-87903212D01*
X167779798Y-87553212D01*
X168479798Y-87553212D01*
X168479798Y-87903212D01*
G36*
X168479798Y-87903212D02*
G01*
X167779798Y-87903212D01*
X167779798Y-87553212D01*
X168479798Y-87553212D01*
X168479798Y-87903212D01*
G37*
X168479798Y-88403212D02*
X167779798Y-88403212D01*
X167779798Y-88053212D01*
X168479798Y-88053212D01*
X168479798Y-88403212D01*
G36*
X168479798Y-88403212D02*
G01*
X167779798Y-88403212D01*
X167779798Y-88053212D01*
X168479798Y-88053212D01*
X168479798Y-88403212D01*
G37*
X165629798Y-87353212D02*
X165029798Y-87353212D01*
X165029798Y-87103212D01*
X165379798Y-87103212D01*
X165379798Y-86853212D01*
X165029798Y-86853212D01*
X165029798Y-86603212D01*
X165629798Y-86603212D01*
X165629798Y-87353212D01*
G36*
X165629798Y-87353212D02*
G01*
X165029798Y-87353212D01*
X165029798Y-87103212D01*
X165379798Y-87103212D01*
X165379798Y-86853212D01*
X165029798Y-86853212D01*
X165029798Y-86603212D01*
X165629798Y-86603212D01*
X165629798Y-87353212D01*
G37*
X168429798Y-86853212D02*
X168079798Y-86853212D01*
X168079798Y-87103212D01*
X168429798Y-87103212D01*
X168429798Y-87353212D01*
X167829798Y-87353212D01*
X167829798Y-86603212D01*
X168429798Y-86603212D01*
X168429798Y-86853212D01*
G36*
X168429798Y-86853212D02*
G01*
X168079798Y-86853212D01*
X168079798Y-87103212D01*
X168429798Y-87103212D01*
X168429798Y-87353212D01*
X167829798Y-87353212D01*
X167829798Y-86603212D01*
X168429798Y-86603212D01*
X168429798Y-86853212D01*
G37*
%TD*%
D11*
%TO.C,C12*%
X183210000Y-86790000D03*
X183210000Y-87750000D03*
%TD*%
D12*
%TO.C,C11*%
X169950000Y-78910000D03*
X168990000Y-78910000D03*
%TD*%
%TO.C,C10*%
X169960000Y-81130000D03*
X169000000Y-81130000D03*
%TD*%
D13*
%TO.C,C7*%
X164400000Y-81160000D03*
X165360000Y-81160000D03*
%TD*%
D12*
%TO.C,C6*%
X166979798Y-91525712D03*
X166019798Y-91525712D03*
%TD*%
D14*
%TO.C,C4*%
X161900000Y-80930000D03*
X161900000Y-79970000D03*
%TD*%
D15*
%TO.C,L1*%
X165000000Y-83720000D03*
X169275000Y-83720000D03*
%TD*%
D11*
%TO.C,C5*%
X206510000Y-112030000D03*
X206510000Y-112990000D03*
%TD*%
%TO.C,C3*%
X202160000Y-112050000D03*
X202160000Y-113010000D03*
%TD*%
D16*
%TO.C,U6*%
X219690000Y-118020000D03*
X219690000Y-118520000D03*
X219690000Y-119020000D03*
X219690000Y-119520000D03*
D17*
X220215000Y-120045000D03*
X220715000Y-120045000D03*
X221215000Y-120045000D03*
X221715000Y-120045000D03*
D16*
X222240000Y-119520000D03*
X222240000Y-119020000D03*
X222240000Y-118520000D03*
X222240000Y-118020000D03*
D17*
X221715000Y-117495000D03*
X221215000Y-117495000D03*
X220715000Y-117495000D03*
X220215000Y-117495000D03*
%TD*%
D18*
%TO.C,U3*%
X220345000Y-111352500D03*
X220995000Y-111352500D03*
X221645000Y-111352500D03*
X222295000Y-111352500D03*
X222295000Y-107812500D03*
X221645000Y-107812500D03*
X220995000Y-107812500D03*
X220345000Y-107812500D03*
%TD*%
D19*
%TO.C,R18*%
X187820000Y-98080000D03*
X189645000Y-98080000D03*
%TD*%
D20*
%TO.C,USART*%
X226820000Y-104110000D03*
D21*
X226820000Y-101570000D03*
X226820000Y-99030000D03*
X226820000Y-96490000D03*
%TD*%
D19*
%TO.C,R6*%
X215475000Y-110160000D03*
X217300000Y-110160000D03*
%TD*%
%TO.C,R7*%
X215590000Y-107650000D03*
X217415000Y-107650000D03*
%TD*%
D22*
%TO.C,U5*%
X201859200Y-95199800D03*
X201859200Y-95987200D03*
X201859200Y-96800000D03*
X201859200Y-97587400D03*
X201859200Y-98400200D03*
X201859200Y-99187600D03*
X201859200Y-99975000D03*
X201859200Y-100787800D03*
X201859200Y-101575200D03*
X201859200Y-102388000D03*
X201859200Y-103175400D03*
D23*
X203611800Y-104928000D03*
X204399200Y-104928000D03*
X205212000Y-104928000D03*
X205999400Y-104928000D03*
X206812200Y-104928000D03*
X207599600Y-104928000D03*
X208387000Y-104928000D03*
X209199800Y-104928000D03*
X209987200Y-104928000D03*
X210800000Y-104928000D03*
X211587400Y-104928000D03*
D22*
X213340000Y-103175400D03*
X213340000Y-102388000D03*
X213340000Y-101575200D03*
X213340000Y-100787800D03*
X213340000Y-99975000D03*
X213340000Y-99187600D03*
X213340000Y-98400200D03*
X213340000Y-97587400D03*
X213340000Y-96800000D03*
X213340000Y-95987200D03*
X213340000Y-95199800D03*
D23*
X211587400Y-93447200D03*
X210800000Y-93447200D03*
X209987200Y-93447200D03*
X209199800Y-93447200D03*
X208387000Y-93447200D03*
X207599600Y-93447200D03*
X206812200Y-93447200D03*
X205999400Y-93447200D03*
X205212000Y-93447200D03*
X204399200Y-93447200D03*
X203611800Y-93447200D03*
%TD*%
D24*
%TO.C,R17*%
X199752500Y-116390000D03*
X197927500Y-116390000D03*
%TD*%
D25*
%TO.C,D1*%
X181730000Y-114055000D03*
X181730000Y-112005000D03*
%TD*%
D20*
%TO.C,R CALEFACTABLE*%
X159950000Y-114385000D03*
D21*
X159950000Y-116925000D03*
%TD*%
D19*
%TO.C,R2*%
X196797500Y-89830000D03*
X198622500Y-89830000D03*
%TD*%
D26*
%TO.C,U1*%
X210517500Y-123850000D03*
X212817500Y-123850000D03*
D27*
X212817500Y-117550000D03*
D26*
X215117500Y-123850000D03*
%TD*%
D28*
%TO.C,Q2*%
X171840000Y-98920000D03*
D29*
X169300000Y-98920000D03*
X166760000Y-98920000D03*
%TD*%
D30*
%TO.C,REF\u002A\u002A*%
X159120000Y-126940000D03*
%TD*%
D19*
%TO.C,R3*%
X224245000Y-114150000D03*
X226070000Y-114150000D03*
%TD*%
D31*
%TO.C,DPM+1*%
X171875000Y-95460000D03*
X169825000Y-95460000D03*
%TD*%
D30*
%TO.C,REF\u002A\u002A*%
X228160000Y-126030000D03*
%TD*%
D32*
%TO.C,C14*%
X212740000Y-126180000D03*
X212740000Y-128080000D03*
%TD*%
D33*
%TO.C,R19*%
X190890000Y-108040000D03*
X190890000Y-109865000D03*
%TD*%
%TO.C,RMCLR1*%
X193820000Y-80437500D03*
X193820000Y-82262500D03*
%TD*%
D34*
%TO.C,U7*%
X194317500Y-98792500D03*
X194317500Y-97842500D03*
X194317500Y-96892500D03*
X192042500Y-96892500D03*
X192042500Y-98792500D03*
%TD*%
D35*
%TO.C,DR1*%
X196800000Y-93877500D03*
X196800000Y-92002500D03*
%TD*%
D24*
%TO.C,R15*%
X189645000Y-100430000D03*
X187820000Y-100430000D03*
%TD*%
D33*
%TO.C,R11*%
X170659798Y-88563212D03*
X170659798Y-90388212D03*
%TD*%
%TO.C,R21*%
X190980000Y-111830000D03*
X190980000Y-113655000D03*
%TD*%
D19*
%TO.C,R20*%
X196660000Y-95940000D03*
X198485000Y-95940000D03*
%TD*%
D36*
%TO.C,SW MCLR*%
X197270000Y-79840000D03*
X203770000Y-79840000D03*
X197270000Y-84340000D03*
X203770000Y-84340000D03*
%TD*%
D37*
%TO.C,DPM+2*%
X180927500Y-108960000D03*
X182977500Y-108960000D03*
%TD*%
D38*
%TO.C,U8*%
X197075000Y-108337500D03*
X195805000Y-108337500D03*
X194535000Y-108337500D03*
X193265000Y-108337500D03*
X193265000Y-113677500D03*
X194535000Y-113677500D03*
X195805000Y-113677500D03*
X197075000Y-113677500D03*
%TD*%
D31*
%TO.C,DPM-1*%
X168865000Y-108980000D03*
X166815000Y-108980000D03*
%TD*%
D33*
%TO.C,R9*%
X172760000Y-77287500D03*
X172760000Y-79112500D03*
%TD*%
D24*
%TO.C,R12*%
X217325000Y-104430000D03*
X215500000Y-104430000D03*
%TD*%
D39*
%TO.C,Y1*%
X202020000Y-109150000D03*
X206420000Y-109150000D03*
%TD*%
D25*
%TO.C,D2*%
X184060000Y-95565000D03*
X184060000Y-93515000D03*
%TD*%
D19*
%TO.C,R14*%
X192060000Y-94330000D03*
X193885000Y-94330000D03*
%TD*%
D24*
%TO.C,R4*%
X162722298Y-84115712D03*
X160897298Y-84115712D03*
%TD*%
D20*
%TO.C,MCLR*%
X207220000Y-80160000D03*
D21*
X209760000Y-80160000D03*
X212300000Y-80160000D03*
%TD*%
D40*
%TO.C,R10*%
X175805000Y-79210000D03*
X175805000Y-77385000D03*
%TD*%
D41*
%TO.C,K1*%
X174177500Y-113235000D03*
X174177500Y-117985000D03*
D42*
X165847500Y-115610000D03*
X178107500Y-113235000D03*
X178107500Y-117985000D03*
%TD*%
D43*
%TO.C,R_shunt1*%
X187365000Y-94625000D03*
D44*
X189270000Y-95575000D03*
X186730000Y-88715000D03*
D43*
X188635000Y-89665000D03*
%TD*%
D28*
%TO.C,Q5*%
X177760000Y-100760000D03*
D29*
X180300000Y-100760000D03*
X182840000Y-100760000D03*
%TD*%
D20*
%TO.C,PROGRAMACI\u00D3*%
X203550000Y-88720000D03*
D21*
X206090000Y-88720000D03*
X208630000Y-88720000D03*
X211170000Y-88720000D03*
X213710000Y-88720000D03*
X216250000Y-88720000D03*
%TD*%
D24*
%TO.C,R16*%
X193885000Y-91460000D03*
X192060000Y-91460000D03*
%TD*%
D45*
%TO.C,U4*%
X181470000Y-79530000D03*
X181470000Y-81810000D03*
D46*
X187770000Y-81810000D03*
D45*
X181470000Y-84090000D03*
%TD*%
D28*
%TO.C,Q3*%
X177750000Y-106325000D03*
D29*
X180290000Y-106325000D03*
X182830000Y-106325000D03*
%TD*%
D47*
%TO.C,DR2*%
X178800000Y-77400000D03*
X178800000Y-79275000D03*
%TD*%
D32*
%TO.C,C2*%
X224750000Y-123710000D03*
X224750000Y-125610000D03*
%TD*%
D37*
%TO.C,DPA1*%
X165434798Y-95435712D03*
X167484798Y-95435712D03*
%TD*%
D30*
%TO.C,REF\u002A\u002A*%
X228030000Y-76580000D03*
%TD*%
D20*
%TO.C,12V*%
X159230000Y-87775000D03*
D21*
X159230000Y-90315000D03*
%TD*%
D30*
%TO.C,REF\u002A\u002A*%
X160840000Y-75930000D03*
%TD*%
D20*
%TO.C,BOTONERA*%
X226770000Y-91210000D03*
D21*
X226770000Y-88670000D03*
%TD*%
D19*
%TO.C,R22*%
X194305000Y-116220000D03*
X196130000Y-116220000D03*
%TD*%
D48*
%TO.C,Q1*%
X182880000Y-116320000D03*
X180980000Y-116320000D03*
X181930000Y-118350000D03*
%TD*%
D49*
%TO.C,CAN*%
X188580000Y-119004669D03*
D50*
X191350000Y-119004669D03*
X194120000Y-119004669D03*
X196890000Y-119004669D03*
X199660000Y-119004669D03*
X189965000Y-121544669D03*
X192735000Y-121544669D03*
X195505000Y-121544669D03*
X198275000Y-121544669D03*
%TD*%
D20*
%TO.C,MOTOR*%
X159520000Y-99965000D03*
D21*
X159520000Y-102505000D03*
%TD*%
D37*
%TO.C,DPA2*%
X173614798Y-92208212D03*
X175664798Y-92208212D03*
%TD*%
D40*
%TO.C,R13*%
X184280000Y-113982500D03*
X184280000Y-112157500D03*
%TD*%
D28*
%TO.C,Q4*%
X171910000Y-104415000D03*
D29*
X169370000Y-104415000D03*
X166830000Y-104415000D03*
%TD*%
D24*
%TO.C,R8*%
X175562500Y-83430000D03*
X173737500Y-83430000D03*
%TD*%
%TO.C,R5*%
X218575000Y-114100000D03*
X216750000Y-114100000D03*
%TD*%
D20*
%TO.C,s.PROXIMITAT*%
X223620000Y-80190000D03*
D21*
X221080000Y-80190000D03*
X218540000Y-80190000D03*
X216000000Y-80190000D03*
%TD*%
M02*
